SplineFontDB: 3.2
FontName: IRNazanin-Italic
FullName: IRNazanin-Italic
FamilyName: IRNazanin
Weight: Book
Copyright: Copyright (c) 2022, Information Technology Organization of Iran (ito.gov.ir)
Version: 1.000
ItalicAngle: 0
UnderlinePosition: -710
UnderlineWidth: 60
Ascent: 1638
Descent: 410
InvalidEm: 0
sfntRevision: 0x00010000
LayerCount: 2
Layer: 0 1 "Back" 1
Layer: 1 1 "Fore" 0
XUID: [1021 420 722297922 8469552]
StyleMap: 0x0001
FSType: 0
OS2Version: 3
OS2_WeightWidthSlopeOnly: 0
OS2_UseTypoMetrics: 0
CreationTime: 1356416849
ModificationTime: 1662630133
PfmFamily: 17
TTFWeight: 400
TTFWidth: 5
LineGap: 0
VLineGap: 0
Panose: 2 0 5 6 0 0 0 2 0 2
OS2TypoAscent: 1990
OS2TypoAOffset: 0
OS2TypoDescent: -1045
OS2TypoDOffset: 0
OS2TypoLinegap: 0
OS2WinAscent: 1990
OS2WinAOffset: 0
OS2WinDescent: 1045
OS2WinDOffset: 0
HheadAscent: 1343
HheadAOffset: 0
HheadDescent: -705
HheadDOffset: 0
OS2SubXSize: 1434
OS2SubYSize: 1331
OS2SubXOff: 0
OS2SubYOff: 293
OS2SupXSize: 1434
OS2SupYSize: 1331
OS2SupXOff: 0
OS2SupYOff: 928
OS2StrikeYSize: 102
OS2StrikeYPos: 530
OS2CapHeight: -1
OS2XHeight: -1
OS2FamilyClass: 2048
OS2Vendor: 'PARS'
OS2CodePages: 200101ff.20280000
OS2UnicodeRanges: 61002a87.80000000.00000008.00000000
Lookup: 1 1 0 "'isol' Isolated Forms in Arabic lookup 0" { "'isol' Isolated Forms in Arabic lookup 0 subtable"  } ['isol' ('arab' <'dflt' > ) ]
Lookup: 1 1 0 "'init' Initial Forms in Arabic lookup 1" { "'init' Initial Forms in Arabic lookup 1 subtable"  } ['init' ('arab' <'dflt' > ) ]
Lookup: 1 1 0 "'medi' Medial Forms in Arabic lookup 2" { "'medi' Medial Forms in Arabic lookup 2 subtable"  } ['medi' ('arab' <'dflt' > ) ]
Lookup: 1 1 0 "'fina' Terminal Forms in Arabic lookup 3" { "'fina' Terminal Forms in Arabic lookup 3 subtable"  } ['fina' ('arab' <'dflt' > ) ]
Lookup: 4 1 1 "'rlig' Required Ligatures in Arabic lookup 4" { "'rlig' Required Ligatures in Arabic lookup 4 subtable"  } ['rlig' ('arab' <'dflt' > ) ]

StartChar: quotedbl
Encoding: 34 34 1
Width: 608
Flags: W
LayerCount: 2
Fore
SplineSet
150 1088 m 1,0,-1
 148 1097 l 2,1,2
 143 1120 143 1120 160 1140.5 c 128,-1,3
 177 1161 177 1161 206 1161 c 0,4,5
 219 1161 219 1161 232.5 1155 c 128,-1,6
 246 1149 246 1149 257.5 1140 c 128,-1,7
 269 1131 269 1131 277 1119.5 c 128,-1,8
 285 1108 285 1108 288 1097 c 2,9,-1
 289 1088 l 1,10,-1
 304 770 l 1,11,-1
 272 770 l 1,12,-1
 150 1088 l 1,0,-1
-147 1088 m 1,13,-1
 -149 1097 l 2,14,15
 -152 1108 -152 1108 -148 1119.5 c 128,-1,16
 -144 1131 -144 1131 -136 1140 c 128,-1,17
 -128 1149 -128 1149 -116.5 1155 c 128,-1,18
 -105 1161 -105 1161 -92 1161 c 0,19,20
 -78 1161 -78 1161 -63.5 1155 c 128,-1,21
 -49 1149 -49 1149 -37 1140 c 128,-1,22
 -25 1131 -25 1131 -16.5 1119.5 c 128,-1,23
 -8 1108 -8 1108 -5 1097 c 2,24,-1
 -4 1088 l 1,25,-1
 7 770 l 1,26,-1
 -23 770 l 1,27,-1
 -147 1088 l 1,13,-1
EndSplineSet
EndChar

StartChar: numbersign
Encoding: 35 35 2
Width: 1265
Flags: W
LayerCount: 2
Fore
SplineSet
1311 792 m 1,0,-1
 1064 792 l 1,1,-1
 916 472 l 1,2,-1
 1145 472 l 1,3,-1
 1121 358 l 1,4,-1
 862 358 l 1,5,-1
 698 0 l 1,6,-1
 588 0 l 1,7,-1
 754 358 l 1,8,-1
 525 358 l 1,9,-1
 359 0 l 1,10,-1
 251 0 l 1,11,-1
 415 358 l 1,12,-1
 196 358 l 1,13,-1
 220 472 l 1,14,-1
 469 472 l 1,15,-1
 616 792 l 1,16,-1
 387 792 l 1,17,-1
 411 906 l 1,18,-1
 669 906 l 1,19,-1
 835 1264 l 1,20,-1
 945 1264 l 1,21,-1
 779 906 l 1,22,-1
 1008 906 l 1,23,-1
 1173 1264 l 1,24,-1
 1283 1264 l 1,25,-1
 1116 906 l 1,26,-1
 1336 906 l 1,27,-1
 1311 792 l 1,0,-1
956 793 m 1,28,-1
 724 793 l 1,29,-1
 576 470 l 1,30,-1
 809 470 l 1,31,-1
 956 793 l 1,28,-1
EndSplineSet
EndChar

StartChar: dollar
Encoding: 36 36 3
Width: 949
Flags: W
LayerCount: 2
Fore
SplineSet
937 323 m 0,0,1
 911 197 911 197 796 108 c 128,-1,2
 681 19 681 19 532 1 c 1,3,-1
 466 -307 l 1,4,-1
 371 -307 l 1,5,-1
 435 -3 l 1,6,7
 344 -2 344 -2 255.5 18 c 128,-1,8
 167 38 167 38 105 73 c 1,9,-1
 141 244 l 1,10,-1
 154 244 l 1,11,12
 210 194 210 194 287.5 162.5 c 128,-1,13
 365 131 365 131 462 122 c 1,14,-1
 539 490 l 1,15,16
 520 494 520 494 491 501 c 128,-1,17
 462 508 462 508 442 516 c 0,18,19
 323 549 323 549 282 620 c 128,-1,20
 241 691 241 691 264 794 c 0,21,22
 289 914 289 914 402.5 1003 c 128,-1,23
 516 1092 516 1092 670 1107 c 1,24,-1
 721 1339 l 1,25,-1
 817 1339 l 1,26,-1
 769 1109 l 1,27,28
 844 1105 844 1105 923 1086 c 128,-1,29
 1002 1067 1002 1067 1050 1045 c 1,30,-1
 1014 877 l 1,31,-1
 1002 877 l 1,32,33
 950 917 950 917 885.5 947.5 c 128,-1,34
 821 978 821 978 741 986 c 1,35,-1
 664 620 l 1,36,37
 692 615 692 615 714.5 608.5 c 128,-1,38
 737 602 737 602 754 597 c 0,39,40
 864 571 864 571 912 503.5 c 128,-1,41
 960 436 960 436 937 323 c 0,0,1
570 634 m 1,42,-1
 645 985 l 1,43,44
 566 978 566 978 506 935 c 128,-1,45
 446 892 446 892 430 816 c 256,46,47
 414 740 414 740 442.5 699 c 128,-1,48
 471 658 471 658 570 634 c 1,42,-1
772 300 m 0,49,50
 790 381 790 381 757 418 c 128,-1,51
 724 455 724 455 634 477 c 1,52,-1
 559 123 l 1,53,54
 647 134 647 134 701 176 c 128,-1,55
 755 218 755 218 772 300 c 0,49,50
EndSplineSet
EndChar

StartChar: percent
Encoding: 37 37 4
Width: 1449
Flags: W
LayerCount: 2
Fore
SplineSet
1431 1178 m 1,0,-1
 331 -47 l 1,1,-1
 255 -47 l 1,2,-1
 1354 1178 l 1,3,-1
 1431 1178 l 1,0,-1
558 1178 m 0,4,5
 672 1178 672 1178 715 1082.5 c 128,-1,6
 758 987 758 987 733 864 c 0,7,8
 701 716 701 716 613 635.5 c 128,-1,9
 525 555 525 555 425 555 c 0,10,11
 356 555 356 555 308.5 592 c 128,-1,12
 261 629 261 629 243.5 701.5 c 128,-1,13
 226 774 226 774 244 864 c 0,14,15
 262 953 262 953 312.5 1028 c 128,-1,16
 363 1103 363 1103 429 1140.5 c 128,-1,17
 495 1178 495 1178 558 1178 c 0,4,5
546 1130 m 0,18,19
 502 1130 502 1130 457.5 1079 c 128,-1,20
 413 1028 413 1028 378 866 c 0,21,22
 353 747 353 747 359 685 c 0,23,24
 363 639 363 639 388 614 c 0,25,26
 404 597 404 597 429 597 c 0,27,28
 470 597 470 597 508 642 c 0,29,30
 564 706 564 706 597 859 c 0,31,32
 630 1020 630 1020 604 1087 c 0,33,34
 585 1130 585 1130 546 1130 c 0,18,19
1263 571 m 256,35,36
 1323 571 1323 571 1374.5 532.5 c 128,-1,37
 1426 494 1426 494 1443 421.5 c 128,-1,38
 1460 349 1460 349 1442 261 c 0,39,40
 1410 112 1410 112 1321 32.5 c 128,-1,41
 1232 -47 1232 -47 1133 -47 c 0,42,43
 1071 -47 1071 -47 1021 -9 c 128,-1,44
 971 29 971 29 953 100.5 c 128,-1,45
 935 172 935 172 954 261 c 0,46,47
 972 350 972 350 1021 424.5 c 128,-1,48
 1070 499 1070 499 1136.5 535 c 128,-1,49
 1203 571 1203 571 1263 571 c 256,35,36
1255 526 m 0,50,51
 1212 526 1212 526 1173 481 c 0,52,53
 1123 421 1123 421 1088 255 c 0,54,55
 1055 103 1055 103 1081 43 c 0,56,57
 1102 0 1102 0 1144 0 c 0,58,59
 1182 0 1182 0 1221 46 c 0,60,61
 1276 109 1276 109 1308 260 c 0,62,63
 1341 419 1341 419 1314 483 c 0,64,65
 1296 526 1296 526 1255 526 c 0,50,51
EndSplineSet
EndChar

StartChar: ampersand
Encoding: 38 38 5
Width: 1352
Flags: W
LayerCount: 2
Fore
SplineSet
1044 740 m 1,0,-1
 1400 740 l 1,1,-1
 1395 711 l 1,2,3
 1318 703 1318 703 1277.5 676.5 c 128,-1,4
 1237 650 1237 650 1134 515.5 c 128,-1,5
 1031 381 1031 381 912 264 c 1,6,7
 969 175 969 175 1020 139 c 128,-1,8
 1071 103 1071 103 1132 103 c 0,9,10
 1190 103 1190 103 1238 135.5 c 128,-1,11
 1286 168 1286 168 1317 230 c 1,12,-1
 1343 207 l 1,13,14
 1286 87 1286 87 1204.5 30.5 c 128,-1,15
 1123 -26 1123 -26 1031 -26 c 0,16,17
 960 -26 960 -26 896.5 12 c 128,-1,18
 833 50 833 50 767 139 c 1,19,20
 642 45 642 45 550.5 9.5 c 128,-1,21
 459 -26 459 -26 362 -26 c 0,22,23
 221 -26 221 -26 155 48.5 c 128,-1,24
 89 123 89 123 112 228 c 0,25,26
 133 329 133 329 228.5 431 c 128,-1,27
 324 533 324 533 550 642 c 1,28,29
 530 733 530 733 527.5 788.5 c 128,-1,30
 525 844 525 844 537 897 c 0,31,32
 566 1043 566 1043 691 1119 c 0,33,34
 785 1178 785 1178 892 1178 c 0,35,36
 993 1178 993 1178 1043.5 1117.5 c 128,-1,37
 1094 1057 1094 1057 1077 970 c 0,38,39
 1057 880 1057 880 981.5 812.5 c 128,-1,40
 906 745 906 745 734 664 c 1,41,42
 799 472 799 472 882 312 c 1,43,44
 1069 490 1069 490 1094 614 c 0,45,46
 1103 652 1103 652 1085 682 c 0,47,48
 1071 705 1071 705 1037 711 c 1,49,-1
 1044 740 l 1,0,-1
715 719 m 1,50,51
 832 770 832 770 896.5 833.5 c 128,-1,52
 961 897 961 897 979 974 c 0,53,54
 992 1035 992 1035 963 1074.5 c 128,-1,55
 934 1114 934 1114 878 1114 c 0,56,57
 803 1114 803 1114 754 1063 c 128,-1,58
 705 1012 705 1012 696 964 c 0,59,60
 686 922 686 922 690 871 c 128,-1,61
 694 820 694 820 715 719 c 1,50,51
734 189 m 1,62,63
 654 342 654 342 625.5 412 c 128,-1,64
 597 482 597 482 568 586 c 1,65,66
 453 528 453 528 387.5 457.5 c 128,-1,67
 322 387 322 387 305 305 c 0,68,69
 285 215 285 215 328.5 146 c 128,-1,70
 372 77 372 77 472 77 c 0,71,72
 525 77 525 77 579.5 98 c 128,-1,73
 634 119 634 119 734 189 c 1,62,63
EndSplineSet
EndChar

StartChar: quotesingle
Encoding: 39 39 6
Width: 349
Flags: W
LayerCount: 2
Fore
SplineSet
-126 1206 m 1,0,-1
 -35 1206 l 1,1,-1
 6 913 l 1,2,-1
 -54 913 l 1,3,-1
 -126 1206 l 1,0,-1
EndSplineSet
EndChar

StartChar: asterisk
Encoding: 42 42 7
Width: 704
Flags: W
LayerCount: 2
Fore
SplineSet
391 649 m 1,0,-1
 391 518 l 2,1,2
 391 505 391 505 384 496 c 128,-1,3
 377 487 377 487 363 487 c 2,4,-1
 317 487 l 2,5,6
 309 487 309 487 299.5 496 c 128,-1,7
 290 505 290 505 290 518 c 2,8,-1
 290 649 l 1,9,-1
 201 557 l 1,10,11
 176 541 176 541 149 557 c 1,12,-1
 121 587 l 2,13,14
 105 608 105 608 126 632 c 2,15,-1
 218 725 l 1,16,-1
 87 725 l 2,17,18
 75 725 75 725 63.5 733.5 c 128,-1,19
 52 742 52 742 52 756 c 2,20,-1
 52 802 l 2,21,22
 52 811 52 811 63.5 819 c 128,-1,23
 75 827 75 827 87 827 c 2,24,-1
 210 827 l 1,25,-1
 121 919 l 2,26,27
 108 930 108 930 107 943 c 128,-1,28
 106 956 106 956 116 969 c 2,29,-1
 149 997 l 2,30,31
 158 1006 158 1006 169.5 1005.5 c 128,-1,32
 181 1005 181 1005 192 992 c 2,33,-1
 290 896 l 1,34,-1
 290 1038 l 2,35,36
 290 1049 290 1049 299.5 1059.5 c 128,-1,37
 309 1070 309 1070 317 1070 c 2,38,-1
 363 1070 l 2,39,40
 377 1070 377 1070 384 1059.5 c 128,-1,41
 391 1049 391 1049 391 1038 c 2,42,-1
 391 902 l 1,43,-1
 489 997 l 2,44,45
 500 1010 500 1010 510.5 1011 c 128,-1,46
 521 1012 521 1012 539 1005 c 1,47,-1
 562 969 l 1,48,49
 572 962 572 962 572 950.5 c 128,-1,50
 572 939 572 939 561 925 c 2,51,-1
 466 827 l 1,52,-1
 608 827 l 2,53,54
 617 827 617 827 628 819 c 128,-1,55
 639 811 639 811 639 802 c 2,56,-1
 639 756 l 2,57,58
 639 742 639 742 628 733.5 c 128,-1,59
 617 725 617 725 608 725 c 2,60,-1
 459 725 l 1,61,-1
 561 632 l 1,62,63
 578 608 578 608 561 580 c 1,64,-1
 533 551 l 2,65,66
 512 535 512 535 489 557 c 2,67,-1
 391 649 l 1,0,-1
EndSplineSet
EndChar

StartChar: plus
Encoding: 43 43 8
Width: 786
Flags: W
LayerCount: 2
Fore
SplineSet
430 91 m 1,0,-1
 309 91 l 1,1,-1
 254 352 l 1,2,-1
 -5 352 l 1,3,-1
 -31 473 l 1,4,-1
 228 473 l 1,5,-1
 173 733 l 1,6,-1
 294 733 l 1,7,-1
 349 473 l 1,8,-1
 611 473 l 1,9,-1
 636 352 l 1,10,-1
 375 352 l 1,11,-1
 430 91 l 1,0,-1
EndSplineSet
EndChar

StartChar: hyphen
Encoding: 45 45 9
Width: 779
Flags: W
LayerCount: 2
Fore
SplineSet
12 352 m 1,0,-1
 -13 473 l 1,1,-1
 592 473 l 1,2,-1
 618 352 l 1,3,-1
 12 352 l 1,0,-1
EndSplineSet
EndChar

StartChar: period
Encoding: 46 46 10
Width: 536
Flags: W
LayerCount: 2
Fore
SplineSet
424 114 m 0,0,1
 434 69 434 69 410 38 c 128,-1,2
 386 7 386 7 341 7 c 0,3,4
 319 7 319 7 298 15.5 c 128,-1,5
 277 24 277 24 259.5 38.5 c 128,-1,6
 242 53 242 53 229.5 72.5 c 128,-1,7
 217 92 217 92 212 114 c 256,8,9
 207 136 207 136 211.5 155 c 128,-1,10
 216 174 216 174 227.5 188 c 128,-1,11
 239 202 239 202 256.5 210.5 c 128,-1,12
 274 219 274 219 296 219 c 256,13,14
 318 219 318 219 339 210.5 c 128,-1,15
 360 202 360 202 377 188 c 128,-1,16
 394 174 394 174 406.5 155 c 128,-1,17
 419 136 419 136 424 114 c 0,0,1
EndSplineSet
EndChar

StartChar: slash
Encoding: 47 47 11
Width: 790
Flags: W
LayerCount: 2
Fore
SplineSet
389 1081 m 1,0,-1
 251 -156 l 1,1,-1
 147 -156 l 1,2,-1
 286 1081 l 1,3,-1
 389 1081 l 1,0,-1
EndSplineSet
EndChar

StartChar: zero
Encoding: 48 48 12
Width: 869
Flags: W
LayerCount: 2
Fore
SplineSet
183 569 m 0,0,1
 226 766 226 766 315.5 908 c 128,-1,2
 405 1050 405 1050 518 1120 c 0,3,4
 606 1174 606 1174 687 1174 c 0,5,6
 820 1174 820 1174 897 1041 c 0,7,8
 992 872 992 872 932 586 c 0,9,10
 890 386 890 386 802 246 c 128,-1,11
 714 106 714 106 610.5 43 c 128,-1,12
 507 -20 507 -20 425 -20 c 0,13,14
 260 -20 260 -20 191 174 c 0,15,16
 134 337 134 337 183 569 c 0,0,1
345 548 m 0,17,18
 295 310 295 310 320 158 c 0,19,20
 343 33 343 33 439 33 c 0,21,22
 484 33 484 33 542.5 74.5 c 128,-1,23
 601 116 601 116 646 212 c 0,24,25
 716 359 716 359 772 624 c 0,26,27
 815 821 815 821 802 953 c 0,28,29
 793 1050 793 1050 752 1090 c 0,30,31
 724 1119 724 1119 675 1119 c 0,32,33
 618 1119 618 1119 560 1067 c 0,34,35
 485 996 485 996 430.5 845 c 128,-1,36
 376 694 376 694 345 548 c 0,17,18
EndSplineSet
EndChar

StartChar: one
Encoding: 49 49 13
Width: 869
Flags: W
LayerCount: 2
Fore
SplineSet
424 1037 m 1,0,-1
 734 1174 l 1,1,-1
 760 1174 l 1,2,-1
 553 202 l 2,3,4
 533 106 533 106 536.5 82 c 128,-1,5
 540 58 540 58 562.5 45.5 c 128,-1,6
 585 33 585 33 663 32 c 1,7,-1
 657 0 l 1,8,-1
 224 0 l 1,9,-1
 230 32 l 1,10,11
 312 33 312 33 338.5 45 c 128,-1,12
 365 57 365 57 378.5 78.5 c 128,-1,13
 392 100 392 100 414 202 c 2,14,-1
 547 824 l 2,15,16
 572 949 572 949 571 986 c 0,17,18
 571 1012 571 1012 558.5 1024.5 c 128,-1,19
 546 1037 546 1037 524 1037 c 0,20,21
 492 1037 492 1037 430 1012 c 1,22,-1
 424 1037 l 1,0,-1
EndSplineSet
EndChar

StartChar: two
Encoding: 50 50 14
Width: 869
Flags: W
LayerCount: 2
Fore
SplineSet
843 221 m 1,0,-1
 716 0 l 1,1,-1
 37 0 l 1,2,-1
 43 32 l 1,3,4
 403 305 403 305 561 478.5 c 128,-1,5
 719 652 719 652 750 795 c 0,6,7
 773 903 773 903 721 974 c 128,-1,8
 669 1045 669 1045 576 1045 c 0,9,10
 491 1045 491 1045 412.5 995.5 c 128,-1,11
 334 946 334 946 283 850 c 1,12,-1
 251 850 l 1,13,14
 305 1008 305 1008 411 1091 c 128,-1,15
 517 1174 517 1174 648 1174 c 0,16,17
 789 1174 789 1174 863 1085 c 128,-1,18
 937 996 937 996 912 872 c 0,19,20
 893 784 893 784 833 698 c 0,21,22
 741 560 741 560 568 407 c 0,23,24
 308 176 308 176 245 129 c 1,25,-1
 546 129 l 2,26,27
 637 129 637 129 675.5 135.5 c 128,-1,28
 714 142 714 142 748 162.5 c 128,-1,29
 782 183 782 183 813 221 c 1,30,-1
 843 221 l 1,0,-1
EndSplineSet
EndChar

StartChar: three
Encoding: 51 51 15
Width: 869
Flags: W
LayerCount: 2
Fore
SplineSet
286 932 m 1,0,1
 361 1048 361 1048 449 1111 c 128,-1,2
 537 1174 537 1174 649 1174 c 0,3,4
 787 1174 787 1174 843 1085 c 0,5,6
 883 1018 883 1018 868 941 c 0,7,8
 842 816 842 816 654 681 c 1,9,10
 752 640 752 640 790 563 c 128,-1,11
 828 486 828 486 805 382 c 0,12,13
 773 231 773 231 656 122 c 0,14,15
 502 -20 502 -20 265 -20 c 0,16,17
 150 -20 150 -20 113.5 8.5 c 128,-1,18
 77 37 77 37 85 70 c 0,19,20
 90 96 90 96 113.5 114.5 c 128,-1,21
 137 133 137 133 166 133 c 0,22,23
 187 133 187 133 208 124 c 0,24,25
 221 121 221 121 266.5 94 c 128,-1,26
 312 67 312 67 330 63 c 0,27,28
 359 53 359 53 395 53 c 0,29,30
 482 53 482 53 560.5 120.5 c 128,-1,31
 639 188 639 188 658 278 c 0,32,33
 673 346 673 346 657 409 c 0,34,35
 643 458 643 458 623 482 c 0,36,37
 595 516 595 516 537 543.5 c 128,-1,38
 479 571 479 571 411 571 c 2,39,-1
 385 571 l 1,40,-1
 391 596 l 1,41,42
 460 605 460 605 535 645 c 128,-1,43
 610 685 610 685 653 740.5 c 128,-1,44
 696 796 696 796 712 864 c 0,45,46
 728 952 728 952 685 1005 c 128,-1,47
 642 1058 642 1058 561 1058 c 0,48,49
 430 1058 430 1058 312 919 c 1,50,-1
 286 932 l 1,0,1
EndSplineSet
EndChar

StartChar: four
Encoding: 52 52 16
Width: 869
Flags: W
LayerCount: 2
Fore
SplineSet
899 425 m 1,0,-1
 872 304 l 1,1,-1
 718 304 l 1,2,-1
 654 0 l 1,3,-1
 514 0 l 1,4,-1
 579 304 l 1,5,-1
 91 304 l 1,6,-1
 114 413 l 1,7,-1
 811 1174 l 1,8,-1
 903 1174 l 1,9,-1
 745 425 l 1,10,-1
 899 425 l 1,0,-1
605 425 m 1,11,-1
 725 996 l 1,12,-1
 200 425 l 1,13,-1
 605 425 l 1,11,-1
EndSplineSet
EndChar

StartChar: five
Encoding: 53 53 17
Width: 869
Flags: W
LayerCount: 2
Fore
SplineSet
998 1151 m 1,0,-1
 901 1008 l 1,1,-1
 555 1008 l 1,2,-1
 447 853 l 1,3,4
 665 820 665 820 769 685 c 0,5,6
 857 570 857 570 823 414 c 0,7,8
 804 323 804 323 750.5 245.5 c 128,-1,9
 697 168 697 168 629 113.5 c 128,-1,10
 561 59 561 59 487 26 c 0,11,12
 378 -20 378 -20 276 -20 c 0,13,14
 172 -20 172 -20 132 15.5 c 128,-1,15
 92 51 92 51 101 92 c 0,16,17
 108 117 108 117 131 135 c 128,-1,18
 154 153 154 153 183 153 c 0,19,20
 207 153 207 153 221 146 c 128,-1,21
 235 139 235 139 271 112 c 0,22,23
 324 66 324 66 389 66 c 0,24,25
 490 66 490 66 581 142 c 128,-1,26
 672 218 672 218 695 324 c 0,27,28
 717 430 717 430 668.5 519.5 c 128,-1,29
 620 609 620 609 513 660 c 0,30,31
 429 698 429 698 269 703 c 1,32,-1
 585 1151 l 1,33,-1
 998 1151 l 1,0,-1
EndSplineSet
EndChar

StartChar: six
Encoding: 54 54 18
Width: 869
Flags: W
LayerCount: 2
Fore
SplineSet
1028 1174 m 1,0,-1
 1022 1144 l 1,1,2
 908 1132 908 1132 829.5 1099 c 128,-1,3
 751 1066 751 1066 667 996.5 c 128,-1,4
 583 927 583 927 519 843 c 128,-1,5
 455 759 455 759 402 642 c 1,6,7
 542 726 542 726 665 726 c 0,8,9
 783 726 783 726 849 631.5 c 128,-1,10
 915 537 915 537 883 387 c 0,11,12
 854 242 854 242 740 123 c 0,13,14
 604 -20 604 -20 430 -20 c 0,15,16
 312 -20 312 -20 248 57 c 0,17,18
 119 210 119 210 170 452 c 0,19,20
 202 606 202 606 294 746 c 128,-1,21
 386 886 386 886 524 993.5 c 128,-1,22
 662 1101 662 1101 775.5 1137.5 c 128,-1,23
 889 1174 889 1174 979 1174 c 2,24,-1
 1028 1174 l 1,0,-1
374 581 m 1,25,26
 334 465 334 465 319 395 c 0,27,28
 300 313 300 313 311 218 c 128,-1,29
 322 123 322 123 370 66 c 0,30,31
 405 28 405 28 465 28 c 0,32,33
 540 28 540 28 613 97.5 c 128,-1,34
 686 167 686 167 714 295 c 0,35,36
 745 441 745 441 709.5 547 c 128,-1,37
 674 653 674 653 568 653 c 0,38,39
 536 653 536 653 495.5 639.5 c 128,-1,40
 455 626 455 626 374 581 c 1,25,26
EndSplineSet
EndChar

StartChar: seven
Encoding: 55 55 19
Width: 869
Flags: W
LayerCount: 2
Fore
SplineSet
419 1151 m 1,0,-1
 1035 1151 l 1,1,-1
 1030 1119 l 1,2,-1
 404 -23 l 1,3,-1
 308 -23 l 1,4,-1
 871 1012 l 1,5,-1
 555 1012 l 2,6,7
 459 1012 459 1012 414 990 c 0,8,9
 334 950 334 950 274 869 c 1,10,-1
 251 878 l 1,11,-1
 419 1151 l 1,0,-1
EndSplineSet
EndChar

StartChar: eight
Encoding: 56 56 20
Width: 869
Flags: W
LayerCount: 2
Fore
SplineSet
455 580 m 1,0,1
 344 692 344 692 318.5 760 c 128,-1,2
 293 828 293 828 309 901 c 0,3,4
 332 1012 332 1012 436 1093 c 128,-1,5
 540 1174 540 1174 684 1174 c 0,6,7
 823 1174 823 1174 891.5 1099 c 128,-1,8
 960 1024 960 1024 939 927 c 0,9,10
 926 862 926 862 865.5 794.5 c 128,-1,11
 805 727 805 727 642 638 c 1,12,13
 766 522 766 522 801 455 c 0,14,15
 847 370 847 370 827 274 c 0,16,17
 801 152 801 152 690 66 c 128,-1,18
 579 -20 579 -20 429 -20 c 0,19,20
 265 -20 265 -20 195 82 c 0,21,22
 139 164 139 164 159 262 c 0,23,24
 176 338 176 338 243.5 414 c 128,-1,25
 311 490 311 490 455 580 c 1,0,1
608 670 m 1,26,27
 730 761 730 761 768.5 814.5 c 128,-1,28
 807 868 807 868 821 936 c 0,29,30
 840 1025 840 1025 800.5 1075.5 c 128,-1,31
 761 1126 761 1126 675 1126 c 0,32,33
 588 1126 588 1126 523.5 1075.5 c 128,-1,34
 459 1025 459 1025 443 958 c 0,35,36
 435 914 435 914 448.5 869.5 c 128,-1,37
 462 825 462 825 494 785 c 1,38,-1
 608 670 l 1,26,27
490 548 m 1,39,40
 407 488 407 488 358 418 c 128,-1,41
 309 348 309 348 291 266 c 0,42,43
 268 157 268 157 313.5 91 c 128,-1,44
 359 25 359 25 453 25 c 0,45,46
 544 25 544 25 610 77.5 c 128,-1,47
 676 130 676 130 692 202 c 0,48,49
 704 265 704 265 683 312 c 0,50,51
 642 403 642 403 490 548 c 1,39,40
EndSplineSet
EndChar

StartChar: nine
Encoding: 57 57 21
Width: 869
Flags: W
LayerCount: 2
Fore
SplineSet
86 -23 m 1,0,-1
 92 7 l 1,1,2
 202 9 202 9 308.5 59 c 128,-1,3
 415 109 415 109 530 232.5 c 128,-1,4
 645 356 645 356 713 505 c 1,5,6
 560 419 560 419 451 419 c 0,7,8
 330 419 330 419 263.5 513 c 128,-1,9
 197 607 197 607 230 761 c 0,10,11
 264 914 264 914 373 1032 c 0,12,13
 509 1174 509 1174 678 1174 c 0,14,15
 820 1174 820 1174 894 1057 c 0,16,17
 988 913 988 913 944 700 c 0,18,19
 901 507 901 507 771.5 341.5 c 128,-1,20
 642 176 642 176 452 65 c 0,21,22
 296 -23 296 -23 135 -23 c 2,23,-1
 86 -23 l 1,0,-1
737 568 m 1,24,25
 777 678 777 678 792 745 c 0,26,27
 809 827 809 827 801 922.5 c 128,-1,28
 793 1018 793 1018 753 1069 c 128,-1,29
 713 1120 713 1120 647 1120 c 0,30,31
 571 1120 571 1120 500 1052.5 c 128,-1,32
 429 985 429 985 400 850 c 0,33,34
 362 670 362 670 416 570 c 0,35,36
 454 497 454 497 537 497 c 0,37,38
 575 497 575 497 632 515 c 128,-1,39
 689 533 689 533 737 568 c 1,24,25
EndSplineSet
EndChar

StartChar: less
Encoding: 60 60 22
Width: 1016
Flags: W
LayerCount: 2
Fore
SplineSet
869 53 m 1,0,-1
 136 404 l 1,1,-1
 136 486 l 1,2,-1
 869 835 l 1,3,-1
 869 713 l 1,4,-1
 301 445 l 1,5,-1
 869 175 l 1,6,-1
 869 53 l 1,0,-1
EndSplineSet
EndChar

StartChar: equal
Encoding: 61 61 23
Width: 1016
Flags: W
LayerCount: 2
Fore
SplineSet
885 533 m 1,0,-1
 131 533 l 1,1,-1
 131 642 l 1,2,-1
 885 642 l 1,3,-1
 885 533 l 1,0,-1
885 247 m 1,4,-1
 131 247 l 1,5,-1
 131 356 l 1,6,-1
 885 356 l 1,7,-1
 885 247 l 1,4,-1
EndSplineSet
EndChar

StartChar: greater
Encoding: 62 62 24
Width: 1016
Flags: W
LayerCount: 2
Fore
SplineSet
879 404 m 1,0,-1
 146 53 l 1,1,-1
 146 175 l 1,2,-1
 715 445 l 1,3,-1
 146 713 l 1,4,-1
 146 835 l 1,5,-1
 879 486 l 1,6,-1
 879 404 l 1,0,-1
EndSplineSet
EndChar

StartChar: question
Encoding: 63 63 25
Width: 772
Flags: W
LayerCount: 2
Fore
SplineSet
442 272 m 1,0,-1
 407 272 l 1,1,2
 436 378 436 378 471.5 448.5 c 128,-1,3
 507 519 507 519 599 642 c 0,4,5
 672 739 672 739 698 791 c 128,-1,6
 724 843 724 843 736 894 c 0,7,8
 758 1003 758 1003 714 1066.5 c 128,-1,9
 670 1130 670 1130 586 1130 c 0,10,11
 513 1130 513 1130 463.5 1095 c 128,-1,12
 414 1060 414 1060 406 1020 c 0,13,14
 397 988 397 988 413.5 942.5 c 128,-1,15
 430 897 430 897 425 872 c 0,16,17
 419 843 419 843 395 821.5 c 128,-1,18
 371 800 371 800 342 800 c 0,19,20
 307 800 307 800 285.5 835.5 c 128,-1,21
 264 871 264 871 277 934 c 0,22,23
 297 1030 297 1030 394.5 1104 c 128,-1,24
 492 1178 492 1178 634 1178 c 0,25,26
 809 1178 809 1178 869 1076 c 0,27,28
 914 1000 914 1000 895 911 c 0,29,30
 881 848 881 848 840 782.5 c 128,-1,31
 799 717 799 717 703 629 c 0,32,33
 550 490 550 490 510 431.5 c 128,-1,34
 470 373 470 373 442 272 c 1,0,-1
408 167 m 0,35,36
 449 167 449 167 470.5 139.5 c 128,-1,37
 492 112 492 112 484 71 c 0,38,39
 475 32 475 32 441 4.5 c 128,-1,40
 407 -23 407 -23 369 -23 c 0,41,42
 329 -23 329 -23 307.5 4.5 c 128,-1,43
 286 32 286 32 294 71 c 0,44,45
 302 112 302 112 336 139.5 c 128,-1,46
 370 167 370 167 408 167 c 0,35,36
EndSplineSet
EndChar

StartChar: at
Encoding: 64 64 26
Width: 1601
Flags: W
LayerCount: 2
Fore
SplineSet
1366 813 m 1,0,-1
 1197 474 l 2,1,2
 1101 285 1101 285 1078 234 c 128,-1,3
 1055 183 1055 183 1048 152 c 0,4,5
 1044 124 1044 124 1057.5 105.5 c 128,-1,6
 1071 87 1071 87 1099 87 c 0,7,8
 1162 87 1162 87 1262 149 c 128,-1,9
 1362 211 1362 211 1453 350.5 c 128,-1,10
 1544 490 1544 490 1576 641 c 0,11,12
 1608 785 1608 785 1563.5 908.5 c 128,-1,13
 1519 1032 1519 1032 1405 1098 c 128,-1,14
 1291 1164 1291 1164 1138 1164 c 0,15,16
 941 1164 941 1164 751 1060 c 128,-1,17
 561 956 561 956 422 760.5 c 128,-1,18
 283 565 283 565 237 354 c 0,19,20
 195 158 195 158 247.5 -1 c 128,-1,21
 300 -160 300 -160 439.5 -242.5 c 128,-1,22
 579 -325 579 -325 758 -325 c 0,23,24
 982 -325 982 -325 1188 -204.5 c 128,-1,25
 1394 -84 1394 -84 1539 147 c 1,26,-1
 1590 147 l 1,27,28
 1463 -88 1463 -88 1231 -231.5 c 128,-1,29
 999 -375 999 -375 741 -375 c 0,30,31
 540 -375 540 -375 387 -279.5 c 128,-1,32
 234 -184 234 -184 176 -8.5 c 128,-1,33
 118 167 118 167 162 376 c 0,34,35
 210 601 210 601 356.5 795 c 128,-1,36
 503 989 503 989 715.5 1098.5 c 128,-1,37
 928 1208 928 1208 1141 1208 c 0,38,39
 1317 1208 1317 1208 1443 1135.5 c 128,-1,40
 1569 1063 1569 1063 1613 923 c 128,-1,41
 1657 783 1657 783 1625 626 c 0,42,43
 1592 470 1592 470 1489.5 318 c 128,-1,44
 1387 166 1387 166 1266 96 c 128,-1,45
 1145 26 1145 26 1028 26 c 0,46,47
 964 26 964 26 938 56.5 c 128,-1,48
 912 87 912 87 924 142 c 0,49,50
 934 190 934 190 965 267 c 1,51,52
 809 116 809 116 723 70.5 c 128,-1,53
 637 25 637 25 580 25 c 0,54,55
 519 25 519 25 483.5 79.5 c 128,-1,56
 448 134 448 134 466 222 c 0,57,58
 493 346 493 346 605.5 499 c 128,-1,59
 718 652 718 652 871 749 c 0,60,61
 985 818 985 818 1061 818 c 0,62,63
 1116 818 1116 818 1149 789 c 128,-1,64
 1182 760 1182 760 1182 702 c 1,65,-1
 1231 795 l 1,66,-1
 1366 813 l 1,0,-1
1064 779 m 0,67,68
 999 779 999 779 919 712 c 0,69,70
 802 614 802 614 700 446 c 1,71,72
 621 324 621 324 606 249 c 0,73,74
 596 195 596 195 618.5 162 c 128,-1,75
 641 129 641 129 678 129 c 0,76,77
 727 129 727 129 790 165.5 c 128,-1,78
 853 202 853 202 928.5 280.5 c 128,-1,79
 1004 359 1004 359 1048 436 c 0,80,81
 1125 571 1125 571 1143 656 c 0,82,83
 1154 713 1154 713 1130.5 746 c 128,-1,84
 1107 779 1107 779 1064 779 c 0,67,68
EndSplineSet
EndChar

StartChar: A
Encoding: 65 65 27
Width: 1256
Flags: W
LayerCount: 2
Fore
SplineSet
878 385 m 1,0,-1
 431 385 l 1,1,-1
 313 204 l 2,2,3
 272 136 272 136 265 103 c 0,4,5
 258 77 258 77 279 57 c 128,-1,6
 300 37 300 37 383 32 c 1,7,-1
 375 0 l 1,8,-1
 14 0 l 1,9,-1
 20 32 l 1,10,11
 95 44 95 44 120 65 c 0,12,13
 173 105 173 105 252 230 c 2,14,-1
 857 1178 l 1,15,-1
 888 1178 l 1,16,-1
 1083 219 l 2,17,18
 1108 103 1108 103 1140.5 69.5 c 128,-1,19
 1173 36 1173 36 1243 32 c 1,20,-1
 1236 0 l 1,21,-1
 782 0 l 1,22,-1
 789 32 l 1,23,24
 858 35 858 35 886 55 c 128,-1,25
 914 75 914 75 920 101 c 0,26,27
 927 139 927 139 911 219 c 2,28,-1
 878 385 l 1,0,-1
867 448 m 1,29,-1
 771 914 l 1,30,-1
 470 448 l 1,31,-1
 867 448 l 1,29,-1
EndSplineSet
EndChar

StartChar: B
Encoding: 66 66 28
Width: 1160
Flags: W
LayerCount: 2
Fore
SplineSet
927 587 m 1,0,1
 1043 562 1043 562 1090 506 c 0,2,3
 1154 428 1154 428 1131 315 c 0,4,5
 1112 230 1112 230 1041.5 151.5 c 128,-1,6
 971 73 971 73 868.5 36.5 c 128,-1,7
 766 0 766 0 571 0 c 2,8,-1
 29 0 l 1,9,-1
 35 32 l 1,10,-1
 78 32 l 2,11,12
 151 32 151 32 193 77 c 0,13,14
 218 108 218 108 238 204 c 2,15,-1
 395 948 l 2,16,17
 419 1055 419 1055 400 1082 c 0,18,19
 375 1120 375 1120 310 1120 c 2,20,-1
 266 1120 l 1,21,-1
 273 1151 l 1,22,-1
 771 1151 l 2,23,24
 910 1151 910 1151 989 1131 c 0,25,26
 1110 1101 1110 1101 1160.5 1023 c 128,-1,27
 1211 945 1211 945 1189 843 c 0,28,29
 1171 758 1171 758 1104 689 c 128,-1,30
 1037 620 1037 620 927 587 c 1,0,1
492 634 m 1,31,32
 522 627 522 627 562 624 c 128,-1,33
 602 621 602 621 650 621 c 0,34,35
 774 621 774 621 842.5 648 c 128,-1,36
 911 675 911 675 955.5 729.5 c 128,-1,37
 1000 784 1000 784 1014 851 c 0,38,39
 1035 952 1035 952 968 1022.5 c 128,-1,40
 901 1093 901 1093 744 1093 c 0,41,42
 659 1093 659 1093 586 1076 c 1,43,-1
 492 634 l 1,31,32
375 82 m 1,44,45
 469 61 469 61 565 61 c 0,46,47
 719 61 719 61 814.5 129.5 c 128,-1,48
 910 198 910 198 932 300 c 0,49,50
 946 367 946 367 922.5 429 c 128,-1,51
 899 491 899 491 824 526.5 c 128,-1,52
 749 562 749 562 627 562 c 0,53,54
 575 562 575 562 538 561 c 128,-1,55
 501 560 501 560 477 555 c 1,56,-1
 375 82 l 1,44,45
EndSplineSet
EndChar

StartChar: C
Encoding: 67 67 29
Width: 1160
Flags: W
LayerCount: 2
Fore
SplineSet
1296 1178 m 1,0,-1
 1240 785 l 1,1,-1
 1212 785 l 1,2,3
 1198 960 1198 960 1116.5 1037.5 c 128,-1,4
 1035 1115 1035 1115 899 1115 c 0,5,6
 783 1115 783 1115 679 1057 c 128,-1,7
 575 999 575 999 495 872 c 128,-1,8
 415 745 415 745 374 557 c 0,9,10
 342 400 342 400 367.5 286 c 128,-1,11
 393 172 393 172 480.5 111 c 128,-1,12
 568 50 568 50 696 50 c 0,13,14
 809 50 809 50 904 97 c 128,-1,15
 999 144 999 144 1133 287 c 1,16,-1
 1155 269 l 1,17,18
 1036 117 1036 117 906 45.5 c 128,-1,19
 776 -26 776 -26 617 -26 c 0,20,21
 331 -26 331 -26 219 186 c 0,22,23
 135 344 135 344 180 559 c 0,24,25
 218 730 218 730 325.5 874.5 c 128,-1,26
 433 1019 433 1019 585 1098.5 c 128,-1,27
 737 1178 737 1178 898 1178 c 0,28,29
 1023 1178 1023 1178 1131 1115 c 0,30,31
 1163 1097 1163 1097 1178 1097 c 0,32,33
 1201 1097 1201 1097 1222 1113 c 0,34,35
 1248 1136 1248 1136 1266 1178 c 1,36,-1
 1296 1178 l 1,0,-1
EndSplineSet
EndChar

StartChar: D
Encoding: 68 68 30
Width: 1256
Flags: W
LayerCount: 2
Fore
SplineSet
29 0 m 1,0,-1
 36 32 l 1,1,-1
 79 32 l 2,2,3
 153 32 153 32 193 78 c 0,4,5
 218 106 218 106 238 204 c 2,6,-1
 395 948 l 2,7,8
 419 1055 419 1055 402 1082 c 0,9,10
 375 1120 375 1120 311 1120 c 2,11,-1
 267 1120 l 1,12,-1
 274 1151 l 1,13,-1
 743 1151 l 2,14,15
 1000 1151 1000 1151 1122 1092 c 128,-1,16
 1244 1033 1244 1033 1297 896.5 c 128,-1,17
 1350 760 1350 760 1313 582 c 0,18,19
 1262 342 1262 342 1081 180 c 0,20,21
 879 0 879 0 544 0 c 2,22,-1
 29 0 l 1,0,-1
375 82 m 1,23,24
 477 59 477 59 550 59 c 0,25,26
 749 59 749 59 908 197 c 128,-1,27
 1067 335 1067 335 1115 572 c 0,28,29
 1167 812 1167 812 1067 949.5 c 128,-1,30
 967 1087 967 1087 762 1087 c 0,31,32
 686 1087 686 1087 583 1063 c 1,33,-1
 375 82 l 1,23,24
EndSplineSet
EndChar

StartChar: E
Encoding: 69 69 31
Width: 1063
Flags: W
LayerCount: 2
Fore
SplineSet
595 1089 m 1,0,-1
 497 634 l 1,1,-1
 750 634 l 2,2,3
 849 634 849 634 889 663 c 0,4,5
 939 702 939 702 967 800 c 1,6,-1
 998 800 l 1,7,-1
 914 400 l 1,8,-1
 881 400 l 1,9,10
 888 484 888 484 880 507 c 0,11,12
 871 537 871 537 840.5 554 c 128,-1,13
 810 571 810 571 737 571 c 2,14,-1
 484 571 l 1,15,-1
 404 193 l 2,16,17
 387 116 387 116 390.5 99 c 128,-1,18
 394 82 394 82 409 72.5 c 128,-1,19
 424 63 424 63 471 63 c 2,20,-1
 665 63 l 2,21,22
 763 63 763 63 810.5 76.5 c 128,-1,23
 858 90 858 90 908 130 c 0,24,25
 971 183 971 183 1048 289 c 1,26,-1
 1082 289 l 1,27,-1
 924 0 l 1,28,-1
 36 0 l 1,29,-1
 42 32 l 1,30,-1
 82 32 l 2,31,32
 123 32 123 32 164 52 c 0,33,34
 194 65 194 65 210 92 c 128,-1,35
 226 119 226 119 242 202 c 2,36,-1
 403 950 l 2,37,38
 426 1060 426 1060 408 1086 c 0,39,40
 385 1120 385 1120 313 1120 c 2,41,-1
 274 1120 l 1,42,-1
 279 1151 l 1,43,-1
 1167 1151 l 1,44,-1
 1126 899 l 1,45,-1
 1092 899 l 1,46,47
 1094 990 1094 990 1080 1023.5 c 128,-1,48
 1066 1057 1066 1057 1027 1076 c 0,49,50
 996 1089 996 1089 911 1089 c 2,51,-1
 595 1089 l 1,0,-1
EndSplineSet
EndChar

StartChar: F
Encoding: 70 70 32
Width: 967
Flags: W
LayerCount: 2
Fore
SplineSet
586 1089 m 1,0,-1
 490 636 l 1,1,-1
 701 636 l 2,2,3
 772 636 772 636 813 668 c 128,-1,4
 854 700 854 700 882 794 c 1,5,-1
 914 794 l 1,6,-1
 832 405 l 1,7,-1
 800 405 l 1,8,9
 815 471 815 471 804.5 502 c 128,-1,10
 794 533 794 533 768.5 549 c 128,-1,11
 743 565 743 565 685 565 c 2,12,-1
 475 565 l 1,13,-1
 397 204 l 2,14,15
 381 117 381 117 385 89 c 0,16,17
 389 66 389 66 413 53 c 0,18,19
 446 32 446 32 487 32 c 2,20,-1
 528 32 l 1,21,-1
 522 0 l 1,22,-1
 28 0 l 1,23,-1
 34 32 l 1,24,-1
 76 32 l 2,25,26
 147 32 147 32 187 74 c 0,27,28
 213 100 213 100 235 204 c 2,29,-1
 394 948 l 2,30,31
 413 1034 413 1034 407 1064 c 0,32,33
 404 1085 404 1085 381 1100 c 0,34,35
 348 1120 348 1120 307 1120 c 2,36,-1
 265 1120 l 1,37,-1
 272 1151 l 1,38,-1
 1129 1151 l 1,39,-1
 1086 898 l 1,40,-1
 1055 898 l 1,41,42
 1050 978 1050 978 1029.5 1016.5 c 128,-1,43
 1009 1055 1009 1055 970 1072 c 128,-1,44
 931 1089 931 1089 840 1089 c 2,45,-1
 586 1089 l 1,0,-1
EndSplineSet
EndChar

StartChar: G
Encoding: 71 71 33
Width: 1256
Flags: W
LayerCount: 2
Fore
SplineSet
1317 1178 m 1,0,-1
 1269 814 l 1,1,-1
 1241 814 l 1,2,3
 1223 949 1223 949 1167 1019 c 0,4,5
 1086 1119 1086 1119 925 1119 c 0,6,7
 704 1119 704 1119 552 945 c 0,8,9
 426 796 426 796 384 595 c 0,10,11
 348 430 348 430 382.5 294 c 128,-1,12
 417 158 417 158 506.5 95 c 128,-1,13
 596 32 596 32 704 32 c 0,14,15
 769 32 769 32 831 48 c 128,-1,16
 893 64 893 64 956 96 c 1,17,-1
 1026 428 l 2,18,19
 1045 514 1045 514 1038 541 c 128,-1,20
 1031 568 1031 568 1006.5 582 c 128,-1,21
 982 596 982 596 912 596 c 1,22,-1
 917 628 l 1,23,-1
 1363 628 l 1,24,-1
 1357 596 l 1,25,-1
 1336 596 l 2,26,27
 1269 596 1269 596 1235 551 c 0,28,29
 1211 520 1211 520 1191 428 c 2,30,-1
 1116 76 l 1,31,32
 1008 23 1008 23 908.5 -1.5 c 128,-1,33
 809 -26 809 -26 692 -26 c 0,34,35
 358 -26 358 -26 230 188 c 0,36,37
 135 348 135 348 179 559 c 0,38,39
 212 711 212 711 313 849 c 0,40,41
 436 1014 436 1014 606 1103 c 0,42,43
 749 1178 749 1178 920 1178 c 0,44,45
 983 1178 983 1178 1032 1167.5 c 128,-1,46
 1081 1157 1081 1157 1168 1123 c 0,47,48
 1212 1104 1212 1104 1229 1104 c 0,49,50
 1244 1104 1244 1104 1259.5 1119 c 128,-1,51
 1275 1134 1275 1134 1285 1178 c 1,52,-1
 1317 1178 l 1,0,-1
EndSplineSet
EndChar

StartChar: H
Encoding: 72 72 34
Width: 1256
Flags: W
LayerCount: 2
Fore
SplineSet
488 618 m 1,0,-1
 1023 618 l 1,1,-1
 1092 947 l 2,2,3
 1112 1035 1112 1035 1105 1064 c 0,4,5
 1102 1085 1102 1085 1078 1100 c 0,6,7
 1046 1120 1046 1120 1007 1120 c 2,8,-1
 966 1120 l 1,9,-1
 972 1151 l 1,10,-1
 1464 1151 l 1,11,-1
 1458 1120 l 1,12,-1
 1417 1120 l 2,13,14
 1377 1120 1377 1120 1335 1101 c 0,15,16
 1305 1086 1305 1086 1289 1058 c 0,17,18
 1274 1031 1274 1031 1256 947 c 2,19,-1
 1097 204 l 2,20,21
 1078 116 1078 116 1085 89 c 0,22,23
 1090 65 1090 65 1112 53 c 0,24,25
 1144 32 1144 32 1185 32 c 2,26,-1
 1226 32 l 1,27,-1
 1220 0 l 1,28,-1
 727 0 l 1,29,-1
 735 32 l 1,30,-1
 774 32 l 2,31,32
 845 32 845 32 887 74 c 0,33,34
 913 100 913 100 935 204 c 2,35,-1
 1009 553 l 1,36,-1
 474 553 l 1,37,-1
 400 204 l 2,38,39
 383 116 383 116 386 89 c 0,40,41
 391 66 391 66 415 53 c 0,42,43
 447 32 447 32 488 32 c 2,44,-1
 529 32 l 1,45,-1
 524 0 l 1,46,-1
 29 0 l 1,47,-1
 36 32 l 1,48,-1
 77 32 l 2,49,50
 148 32 148 32 189 74 c 0,51,52
 215 100 215 100 237 204 c 2,53,-1
 395 947 l 2,54,55
 414 1035 414 1035 408 1064 c 0,56,57
 405 1085 405 1085 383 1100 c 0,58,59
 349 1120 349 1120 308 1120 c 2,60,-1
 267 1120 l 1,61,-1
 274 1151 l 1,62,-1
 767 1151 l 1,63,-1
 760 1120 l 1,64,-1
 719 1120 l 2,65,66
 679 1120 679 1120 638 1101 c 0,67,68
 607 1087 607 1087 592 1058 c 0,69,70
 576 1032 576 1032 559 947 c 2,71,-1
 488 618 l 1,0,-1
EndSplineSet
EndChar

StartChar: I
Encoding: 73 73 35
Width: 580
Flags: W
LayerCount: 2
Fore
SplineSet
543 32 m 1,0,-1
 537 0 l 1,1,-1
 43 0 l 1,2,-1
 51 32 l 1,3,-1
 90 32 l 2,4,5
 161 32 161 32 202 74 c 0,6,7
 229 100 229 100 251 204 c 2,8,-1
 408 948 l 2,9,10
 428 1034 428 1034 422 1064 c 0,11,12
 419 1085 419 1085 395 1100 c 0,13,14
 363 1120 363 1120 322 1120 c 2,15,-1
 280 1120 l 1,16,-1
 288 1151 l 1,17,-1
 781 1151 l 1,18,-1
 774 1120 l 1,19,-1
 733 1120 l 2,20,21
 662 1120 662 1120 620 1078 c 0,22,23
 595 1050 595 1050 571 948 c 2,24,-1
 414 204 l 2,25,26
 395 117 395 117 400 89 c 0,27,28
 405 66 405 66 429 53 c 0,29,30
 461 32 461 32 502 32 c 2,31,-1
 543 32 l 1,0,-1
EndSplineSet
EndChar

StartChar: J
Encoding: 74 74 36
Width: 678
Flags: W
LayerCount: 2
Fore
SplineSet
410 1120 m 1,0,-1
 417 1151 l 1,1,-1
 911 1151 l 1,2,-1
 903 1120 l 1,3,-1
 862 1120 l 2,4,5
 792 1120 792 1120 750 1078 c 0,6,7
 725 1050 725 1050 702 948 c 2,8,-1
 583 384 l 2,9,10
 557 254 557 254 510.5 174 c 128,-1,11
 464 94 464 94 381.5 34 c 128,-1,12
 299 -26 299 -26 200 -26 c 0,13,14
 121 -26 121 -26 83.5 13.5 c 128,-1,15
 46 53 46 53 57 103 c 0,16,17
 66 145 66 145 92 167 c 0,18,19
 124 194 124 194 162 194 c 0,20,21
 190 194 190 194 208.5 175.5 c 128,-1,22
 227 157 227 157 241 79 c 0,23,24
 252 34 252 34 283 34 c 0,25,26
 306 34 306 34 332 62 c 128,-1,27
 358 90 358 90 372 161 c 2,28,-1
 539 948 l 2,29,30
 559 1034 559 1034 552 1064 c 0,31,32
 549 1085 549 1085 525 1100 c 0,33,34
 493 1120 493 1120 452 1120 c 2,35,-1
 410 1120 l 1,0,-1
EndSplineSet
EndChar

StartChar: K
Encoding: 75 75 37
Width: 1256
Flags: W
LayerCount: 2
Fore
SplineSet
654 639 m 1,0,-1
 990 217 l 2,1,2
 1071 112 1071 112 1137 74 c 128,-1,3
 1203 36 1203 36 1277 32 c 1,4,-1
 1269 0 l 1,5,-1
 723 0 l 1,6,-1
 728 32 l 1,7,8
 778 32 778 32 803 48.5 c 128,-1,9
 828 65 828 65 833 85 c 0,10,11
 837 105 837 105 832.5 121 c 128,-1,12
 828 137 828 137 792 182 c 2,13,-1
 479 575 l 1,14,-1
 399 204 l 2,15,16
 382 117 382 117 385 89 c 0,17,18
 389 66 389 66 414 53 c 0,19,20
 446 32 446 32 487 32 c 2,21,-1
 526 32 l 1,22,-1
 520 0 l 1,23,-1
 29 0 l 1,24,-1
 35 32 l 1,25,-1
 77 32 l 2,26,27
 147 32 147 32 188 74 c 0,28,29
 213 100 213 100 235 204 c 2,30,-1
 394 948 l 2,31,32
 413 1034 413 1034 407 1064 c 0,33,34
 405 1085 405 1085 382 1100 c 0,35,36
 348 1120 348 1120 308 1120 c 2,37,-1
 266 1120 l 1,38,-1
 273 1151 l 1,39,-1
 763 1151 l 1,40,-1
 758 1120 l 1,41,-1
 718 1120 l 2,42,43
 678 1120 678 1120 637 1101 c 0,44,45
 607 1087 607 1087 591 1059.5 c 128,-1,46
 575 1032 575 1032 558 948 c 2,47,-1
 483 596 l 1,48,49
 503 610 503 610 621 702 c 0,50,51
 924 934 924 934 992 1011 c 0,52,53
 1022 1045 1022 1045 1027 1070 c 0,54,55
 1032 1090 1032 1090 1017.5 1105 c 128,-1,56
 1003 1120 1003 1120 960 1120 c 2,57,-1
 934 1120 l 1,58,-1
 939 1151 l 1,59,-1
 1362 1151 l 1,60,-1
 1356 1120 l 1,61,62
 1319 1119 1319 1119 1287 1110 c 128,-1,63
 1255 1101 1255 1101 1204 1073.5 c 128,-1,64
 1153 1046 1153 1046 1077 987 c 0,65,66
 1055 970 1055 970 867 813 c 2,67,-1
 654 639 l 1,0,-1
EndSplineSet
EndChar

StartChar: L
Encoding: 76 76 38
Width: 1063
Flags: W
LayerCount: 2
Fore
SplineSet
1064 318 m 1,0,-1
 1090 312 l 1,1,-1
 926 0 l 1,2,-1
 35 0 l 1,3,-1
 41 32 l 1,4,-1
 85 32 l 2,5,6
 157 32 157 32 198 78 c 0,7,8
 222 106 222 106 244 206 c 2,9,-1
 402 948 l 2,10,11
 425 1055 425 1055 406 1082 c 0,12,13
 382 1120 382 1120 316 1120 c 2,14,-1
 273 1120 l 1,15,-1
 278 1151 l 1,16,-1
 800 1151 l 1,17,-1
 794 1120 l 1,18,19
 702 1121 702 1121 661 1103 c 128,-1,20
 620 1085 620 1085 601 1058 c 128,-1,21
 582 1031 582 1031 560 927 c 2,22,-1
 407 206 l 2,23,24
 391 134 391 134 399 109 c 0,25,26
 407 90 407 90 425.5 82 c 128,-1,27
 444 74 444 74 557 74 c 2,28,-1
 640 74 l 2,29,30
 772 74 772 74 830 93 c 128,-1,31
 888 112 888 112 942.5 161.5 c 128,-1,32
 997 211 997 211 1064 318 c 1,0,-1
EndSplineSet
EndChar

StartChar: M
Encoding: 77 77 39
Width: 1547
Flags: W
LayerCount: 2
Fore
SplineSet
712 0 m 1,0,-1
 472 969 l 1,1,-1
 308 199 l 2,2,3
 286 94 286 94 304 66 c 0,4,5
 327 32 327 32 395 32 c 2,6,-1
 436 32 l 1,7,-1
 430 0 l 1,8,-1
 29 0 l 1,9,-1
 35 32 l 1,10,-1
 77 32 l 2,11,12
 148 32 148 32 189 76 c 0,13,14
 213 102 213 102 233 199 c 2,15,-1
 394 952 l 2,16,17
 409 1028 409 1028 400 1063 c 0,18,19
 394 1087 394 1087 365.5 1103.5 c 128,-1,20
 337 1120 337 1120 266 1120 c 1,21,-1
 273 1151 l 1,22,-1
 598 1151 l 1,23,-1
 825 251 l 1,24,-1
 1427 1151 l 1,25,-1
 1752 1151 l 1,26,-1
 1747 1120 l 1,27,-1
 1707 1120 l 2,28,29
 1632 1120 1632 1120 1593 1076 c 0,30,31
 1570 1048 1570 1048 1549 952 c 2,32,-1
 1387 199 l 2,33,34
 1365 94 1365 94 1384 66 c 0,35,36
 1408 32 1408 32 1476 32 c 2,37,-1
 1515 32 l 1,38,-1
 1509 0 l 1,39,-1
 1020 0 l 1,40,-1
 1027 32 l 1,41,-1
 1067 32 l 2,42,43
 1142 32 1142 32 1181 76 c 0,44,45
 1204 102 1204 102 1224 199 c 2,46,-1
 1388 969 l 1,47,-1
 739 0 l 1,48,-1
 712 0 l 1,0,-1
EndSplineSet
EndChar

StartChar: N
Encoding: 78 78 40
Width: 1256
Flags: W
LayerCount: 2
Fore
SplineSet
220 1151 m 1,0,-1
 533 1151 l 1,1,-1
 1054 288 l 1,2,-1
 1195 952 l 2,3,4
 1218 1057 1218 1057 1200 1085 c 0,5,6
 1175 1120 1175 1120 1108 1120 c 2,7,-1
 1067 1120 l 1,8,-1
 1074 1151 l 1,9,-1
 1475 1151 l 1,10,-1
 1469 1120 l 1,11,-1
 1428 1120 l 2,12,13
 1355 1120 1355 1120 1314 1076 c 0,14,15
 1290 1048 1290 1048 1268 952 c 2,16,-1
 1064 -19 l 1,17,-1
 1033 -19 l 1,18,-1
 470 909 l 1,19,-1
 319 199 l 2,20,21
 297 94 297 94 315 66 c 0,22,23
 339 32 339 32 407 32 c 2,24,-1
 448 32 l 1,25,-1
 442 0 l 1,26,-1
 41 0 l 1,27,-1
 46 32 l 1,28,-1
 87 32 l 2,29,30
 161 32 161 32 200 76 c 0,31,32
 226 102 226 102 245 199 c 2,33,-1
 416 999 l 1,34,35
 378 1058 378 1058 356 1077 c 128,-1,36
 334 1096 334 1096 288 1112 c 0,37,38
 265 1120 265 1120 215 1120 c 1,39,-1
 220 1151 l 1,0,-1
EndSplineSet
EndChar

StartChar: O
Encoding: 79 79 41
Width: 1256
Flags: W
LayerCount: 2
Fore
SplineSet
886 1178 m 0,0,1
 1109 1178 1109 1178 1237 1007.5 c 128,-1,2
 1365 837 1365 837 1311 583 c 0,3,4
 1256 320 1256 320 1053.5 147 c 128,-1,5
 851 -26 851 -26 616 -26 c 0,6,7
 377 -26 377 -26 252.5 143 c 128,-1,8
 128 312 128 312 184 580 c 0,9,10
 242 855 242 855 465 1027 c 0,11,12
 659 1178 659 1178 886 1178 c 0,0,1
856 1114 m 0,13,14
 702 1114 702 1114 583 1000 c 0,15,16
 437 858 437 858 378 583 c 0,17,18
 319 300 319 300 407 150 c 0,19,20
 475 34 475 34 627 34 c 0,21,22
 790 34 790 34 922.5 160.5 c 128,-1,23
 1055 287 1055 287 1113 560 c 0,24,25
 1175 855 1175 855 1090 999 c 0,26,27
 1020 1114 1020 1114 856 1114 c 0,13,14
EndSplineSet
EndChar

StartChar: P
Encoding: 80 80 42
Width: 967
Flags: W
LayerCount: 2
Fore
SplineSet
470 539 m 1,0,-1
 399 204 l 2,1,2
 376 96 376 96 394 69 c 0,3,4
 419 32 419 32 484 32 c 2,5,-1
 528 32 l 1,6,-1
 522 0 l 1,7,-1
 29 0 l 1,8,-1
 35 32 l 1,9,-1
 78 32 l 2,10,11
 152 32 152 32 193 78 c 0,12,13
 216 105 216 105 235 204 c 2,14,-1
 394 948 l 2,15,16
 417 1055 417 1055 400 1082 c 0,17,18
 375 1120 375 1120 310 1120 c 2,19,-1
 266 1120 l 1,20,-1
 273 1151 l 1,21,-1
 695 1151 l 2,22,23
 849 1151 849 1151 931 1119.5 c 128,-1,24
 1013 1088 1013 1088 1058.5 1012 c 128,-1,25
 1104 936 1104 936 1082 833 c 0,26,27
 1053 692 1053 692 941 604 c 128,-1,28
 829 516 829 516 659 516 c 0,29,30
 618 516 618 516 571 521.5 c 128,-1,31
 524 527 524 527 470 539 c 1,0,-1
481 587 m 1,32,33
 525 580 525 580 558.5 575.5 c 128,-1,34
 592 571 592 571 617 571 c 0,35,36
 704 571 704 571 782.5 638.5 c 128,-1,37
 861 706 861 706 886 816 c 0,38,39
 901 890 901 890 884.5 954.5 c 128,-1,40
 868 1019 868 1019 818.5 1050.5 c 128,-1,41
 769 1082 769 1082 697 1082 c 0,42,43
 654 1082 654 1082 583 1067 c 1,44,-1
 481 587 l 1,32,33
EndSplineSet
EndChar

StartChar: Q
Encoding: 81 81 43
Width: 1256
Flags: W
LayerCount: 2
Fore
SplineSet
762 -13 m 1,0,1
 817 -162 817 -162 903 -233 c 128,-1,2
 989 -304 989 -304 1114 -312 c 1,3,-1
 1109 -341 l 1,4,5
 992 -336 992 -336 868 -293.5 c 128,-1,6
 744 -251 744 -251 641 -175 c 128,-1,7
 538 -99 538 -99 470 -13 c 1,8,9
 358 36 358 36 298 91 c 0,10,11
 212 174 212 174 180 294 c 128,-1,12
 148 414 148 414 183 579 c 0,13,14
 239 836 239 836 442 1007 c 128,-1,15
 645 1178 645 1178 882 1178 c 0,16,17
 1109 1178 1109 1178 1237.5 1006.5 c 128,-1,18
 1366 835 1366 835 1311 575 c 0,19,20
 1266 363 1266 363 1113.5 203.5 c 128,-1,21
 961 44 961 44 762 -13 c 1,0,1
858 1112 m 0,22,23
 704 1112 704 1112 586 1002 c 0,24,25
 440 864 440 864 377 579 c 0,26,27
 318 299 318 299 407 147 c 0,28,29
 475 32 475 32 629 32 c 0,30,31
 790 32 790 32 912 147 c 0,32,33
 1055 286 1055 286 1112 553 c 0,34,35
 1157 760 1157 760 1123 901 c 0,36,37
 1099 1009 1099 1009 1029 1060.5 c 128,-1,38
 959 1112 959 1112 858 1112 c 0,22,23
EndSplineSet
EndChar

StartChar: R
Encoding: 82 82 44
Width: 1160
Flags: W
LayerCount: 2
Fore
SplineSet
1174 0 m 1,0,-1
 868 0 l 1,1,-1
 591 538 l 1,2,3
 548 537 548 537 521 537 c 0,4,5
 510 537 510 537 497.5 537 c 128,-1,6
 485 537 485 537 471 538 c 1,7,-1
 400 204 l 2,8,9
 377 96 377 96 395 69 c 0,10,11
 420 32 420 32 484 32 c 2,12,-1
 529 32 l 1,13,-1
 524 0 l 1,14,-1
 29 0 l 1,15,-1
 36 32 l 1,16,-1
 79 32 l 2,17,18
 153 32 153 32 194 78 c 0,19,20
 218 105 218 105 238 204 c 2,21,-1
 395 948 l 2,22,23
 419 1055 419 1055 402 1082 c 0,24,25
 375 1120 375 1120 311 1120 c 2,26,-1
 267 1120 l 1,27,-1
 274 1151 l 1,28,-1
 693 1151 l 2,29,30
 877 1151 877 1151 957.5 1124 c 128,-1,31
 1038 1097 1038 1097 1084 1025.5 c 128,-1,32
 1130 954 1130 954 1109 855 c 0,33,34
 1087 749 1087 749 1000.5 670.5 c 128,-1,35
 914 592 914 592 762 560 c 1,36,-1
 931 230 l 2,37,38
 988 117 988 117 1038.5 79 c 128,-1,39
 1089 41 1089 41 1181 32 c 1,40,-1
 1174 0 l 1,0,-1
483 592 m 1,41,42
 499 592 499 592 510.5 591.5 c 128,-1,43
 522 591 522 591 530 591 c 0,44,45
 695 591 695 591 793 662.5 c 128,-1,46
 891 734 891 734 914 843 c 256,47,48
 937 952 937 952 884.5 1019.5 c 128,-1,49
 832 1087 832 1087 721 1087 c 0,50,51
 672 1087 672 1087 584 1070 c 1,52,-1
 483 592 l 1,41,42
EndSplineSet
EndChar

StartChar: S
Encoding: 83 83 45
Width: 967
Flags: W
LayerCount: 2
Fore
SplineSet
1046 1178 m 1,0,-1
 961 779 l 1,1,-1
 932 779 l 1,2,3
 938 893 938 893 914 961.5 c 128,-1,4
 890 1030 890 1030 825 1070 c 128,-1,5
 760 1110 760 1110 683 1110 c 0,6,7
 595 1110 595 1110 525 1056 c 128,-1,8
 455 1002 455 1002 442 933 c 0,9,10
 430 880 430 880 458 837 c 0,11,12
 497 773 497 773 672 667 c 0,13,14
 815 581 815 581 864 534.5 c 128,-1,15
 913 488 913 488 931 425.5 c 128,-1,16
 949 363 949 363 935 294 c 0,17,18
 908 163 908 163 786 68.5 c 128,-1,19
 664 -26 664 -26 505 -26 c 0,20,21
 453 -26 453 -26 413 -19 c 0,22,23
 387 -15 387 -15 309.5 12.5 c 128,-1,24
 232 40 232 40 210 40 c 0,25,26
 189 40 189 40 173.5 27 c 128,-1,27
 158 14 158 14 144 -26 c 1,28,-1
 113 -26 l 1,29,-1
 197 369 l 1,30,-1
 229 369 l 1,31,32
 224 244 224 244 249 182.5 c 128,-1,33
 274 121 274 121 341.5 81 c 128,-1,34
 409 41 409 41 502 41 c 0,35,36
 607 41 607 41 681 96.5 c 128,-1,37
 755 152 755 152 771 229 c 0,38,39
 780 271 780 271 765.5 314.5 c 128,-1,40
 751 358 751 358 711 395 c 0,41,42
 682 420 682 420 552 502.5 c 128,-1,43
 422 585 422 585 370 634.5 c 128,-1,44
 318 684 318 684 297.5 743.5 c 128,-1,45
 277 803 277 803 294 875 c 0,46,47
 320 998 320 998 434 1088 c 128,-1,48
 548 1178 548 1178 695 1178 c 0,49,50
 785 1178 785 1178 879 1132 c 0,51,52
 924 1111 924 1111 942 1111 c 0,53,54
 965 1111 965 1111 981.5 1124.5 c 128,-1,55
 998 1138 998 1138 1015 1178 c 1,56,-1
 1046 1178 l 1,0,-1
EndSplineSet
EndChar

StartChar: T
Encoding: 84 84 46
Width: 1063
Flags: W
LayerCount: 2
Fore
SplineSet
1250 1151 m 1,0,-1
 1206 880 l 1,1,-1
 1173 880 l 1,2,3
 1179 953 1179 953 1169 983 c 0,4,5
 1153 1032 1153 1032 1114.5 1055 c 128,-1,6
 1076 1078 1076 1078 1005 1078 c 2,7,-1
 843 1078 l 1,8,-1
 654 199 l 2,9,10
 632 94 632 94 650 66 c 0,11,12
 675 32 675 32 743 32 c 2,13,-1
 782 32 l 1,14,-1
 776 0 l 1,15,-1
 288 0 l 1,16,-1
 294 32 l 1,17,-1
 335 32 l 2,18,19
 407 32 407 32 448 76 c 0,20,21
 472 102 472 102 492 199 c 2,22,-1
 680 1078 l 1,23,-1
 541 1078 l 2,24,25
 461 1078 461 1078 424 1067 c 0,26,27
 376 1050 376 1050 335.5 1004.5 c 128,-1,28
 295 959 295 959 272 880 c 1,29,-1
 240 880 l 1,30,-1
 310 1151 l 1,31,-1
 1250 1151 l 1,0,-1
EndSplineSet
EndChar

StartChar: U
Encoding: 85 85 47
Width: 1256
Flags: W
LayerCount: 2
Fore
SplineSet
1067 1120 m 1,0,-1
 1074 1151 l 1,1,-1
 1481 1151 l 1,2,-1
 1475 1120 l 1,3,-1
 1432 1120 l 2,4,5
 1363 1120 1363 1120 1314 1064 c 0,6,7
 1290 1036 1290 1036 1270 939 c 2,8,-1
 1171 473 l 2,9,10
 1135 300 1135 300 1080 205 c 128,-1,11
 1025 110 1025 110 910 41 c 128,-1,12
 795 -28 795 -28 621 -28 c 0,13,14
 432 -28 432 -28 348.5 37.5 c 128,-1,15
 265 103 265 103 249 215 c 0,16,17
 238 289 238 289 280 498 c 2,18,-1
 376 948 l 2,19,20
 400 1054 400 1054 377.5 1087 c 128,-1,21
 355 1120 355 1120 290 1120 c 2,22,-1
 248 1120 l 1,23,-1
 253 1151 l 1,24,-1
 751 1151 l 1,25,-1
 745 1120 l 1,26,-1
 701 1120 l 2,27,28
 629 1120 629 1120 588 1075 c 0,29,30
 561 1044 561 1044 540 948 c 2,31,-1
 433 446 l 2,32,33
 419 378 419 378 413 292.5 c 128,-1,34
 407 207 407 207 429 158 c 128,-1,35
 451 109 451 109 505.5 77 c 128,-1,36
 560 45 560 45 648 45 c 0,37,38
 760 45 760 45 859.5 94.5 c 128,-1,39
 959 144 959 144 1008 221 c 128,-1,40
 1057 298 1057 298 1097 482 c 2,41,-1
 1197 948 l 2,42,43
 1220 1055 1220 1055 1200 1082 c 0,44,45
 1175 1120 1175 1120 1110 1120 c 2,46,-1
 1067 1120 l 1,0,-1
EndSplineSet
EndChar

StartChar: V
Encoding: 86 86 48
Width: 1256
Flags: W
LayerCount: 2
Fore
SplineSet
1478 1151 m 1,0,-1
 1472 1120 l 1,1,2
 1408 1109 1408 1109 1372 1080 c 0,3,4
 1318 1038 1318 1038 1264 953 c 2,5,-1
 654 -26 l 1,6,-1
 623 -26 l 1,7,-1
 403 966 l 2,8,9
 385 1043 385 1043 375 1058 c 0,10,11
 359 1086 359 1086 332 1100 c 128,-1,12
 305 1114 305 1114 253 1120 c 1,13,-1
 258 1151 l 1,14,-1
 730 1151 l 1,15,-1
 724 1120 l 1,16,17
 641 1112 641 1112 613 1092 c 128,-1,18
 585 1072 585 1072 580 1043 c 0,19,20
 571 999 571 999 590 911 c 2,21,-1
 739 235 l 1,22,-1
 1152 901 l 2,23,24
 1213 999 1213 999 1221 1037 c 0,25,26
 1226 1064 1226 1064 1206.5 1086 c 128,-1,27
 1187 1108 1187 1108 1130 1116 c 0,28,29
 1126 1119 1126 1119 1116 1120 c 1,30,-1
 1124 1151 l 1,31,-1
 1478 1151 l 1,0,-1
EndSplineSet
EndChar

StartChar: W
Encoding: 87 87 49
Width: 1640
Flags: W
LayerCount: 2
Fore
SplineSet
1871 1151 m 1,0,-1
 1866 1120 l 1,1,2
 1821 1120 1821 1120 1788.5 1104 c 128,-1,3
 1756 1088 1756 1088 1722 1044 c 0,4,5
 1697 1013 1697 1013 1638 901 c 2,6,-1
 1121 -26 l 1,7,-1
 1087 -26 l 1,8,-1
 980 711 l 1,9,-1
 563 -26 l 1,10,-1
 532 -26 l 1,11,-1
 395 930 l 2,12,13
 378 1036 378 1036 372 1055 c 0,14,15
 363 1089 363 1089 337 1104.5 c 128,-1,16
 311 1120 311 1120 261 1120 c 1,17,-1
 267 1151 l 1,18,-1
 693 1151 l 1,19,-1
 686 1120 l 1,20,-1
 665 1120 l 2,21,22
 621 1120 621 1120 593 1099 c 128,-1,23
 565 1078 565 1078 560 1050 c 0,24,25
 552 1020 552 1020 568 914 c 2,26,-1
 657 267 l 1,27,-1
 965 817 l 1,28,-1
 952 914 l 1,29,-1
 939 991 l 2,30,31
 932 1033 932 1033 915 1066 c 0,32,33
 909 1081 909 1081 894 1092 c 0,34,35
 877 1108 877 1108 857 1113 c 0,36,37
 843 1120 843 1120 809 1120 c 1,38,-1
 814 1151 l 1,39,-1
 1262 1151 l 1,40,-1
 1256 1120 l 1,41,-1
 1224 1120 l 2,42,43
 1178 1120 1178 1120 1151.5 1099 c 128,-1,44
 1125 1078 1125 1078 1116 1044 c 0,45,46
 1108 1000 1108 1000 1123 893 c 2,47,-1
 1210 267 l 1,48,-1
 1563 901 l 2,49,50
 1625 1008 1625 1008 1632 1047 c 0,51,52
 1637 1067 1637 1067 1628 1084.5 c 128,-1,53
 1619 1102 1619 1102 1602 1108 c 0,54,55
 1573 1120 1573 1120 1521 1120 c 1,56,-1
 1528 1151 l 1,57,-1
 1871 1151 l 1,0,-1
EndSplineSet
EndChar

StartChar: X
Encoding: 88 88 50
Width: 1256
Flags: W
LayerCount: 2
Fore
SplineSet
844 638 m 1,0,-1
 1013 269 l 2,1,2
 1083 117 1083 117 1124.5 76.5 c 128,-1,3
 1166 36 1166 36 1242 32 c 1,4,-1
 1235 0 l 1,5,-1
 740 0 l 1,6,-1
 747 32 l 1,7,8
 796 32 796 32 822 41 c 0,9,10
 842 50 842 50 857 65 c 128,-1,11
 872 80 872 80 876 97 c 0,12,13
 879 117 879 117 876 135 c 0,14,15
 873 151 873 151 844 210 c 2,16,-1
 713 506 l 1,17,-1
 406 197 l 2,18,19
 356 147 356 147 345 130.5 c 128,-1,20
 334 114 334 114 331 97 c 0,21,22
 326 70 326 70 344.5 52 c 128,-1,23
 363 34 363 34 428 32 c 1,24,-1
 421 0 l 1,25,-1
 13 0 l 1,26,-1
 19 32 l 1,27,28
 64 36 64 36 97 50 c 0,29,30
 155 71 155 71 210.5 109 c 128,-1,31
 266 147 266 147 343 222 c 2,32,-1
 687 566 l 1,33,-1
 531 898 l 2,34,35
 468 1033 468 1033 412 1074.5 c 128,-1,36
 356 1116 356 1116 274 1120 c 1,37,-1
 279 1151 l 1,38,-1
 812 1151 l 1,39,-1
 805 1120 l 1,40,41
 737 1116 737 1116 707.5 1097 c 128,-1,42
 678 1078 678 1078 674 1055 c 0,43,44
 665 1023 665 1023 694 961 c 2,45,-1
 815 698 l 1,46,-1
 1075 957 l 2,47,48
 1121 1004 1121 1004 1132 1020.5 c 128,-1,49
 1143 1037 1143 1037 1147 1055 c 0,50,51
 1149 1072 1149 1072 1144 1087 c 0,52,53
 1135 1104 1135 1104 1117.5 1111.5 c 128,-1,54
 1100 1119 1100 1119 1037 1120 c 1,55,-1
 1044 1151 l 1,56,-1
 1453 1151 l 1,57,-1
 1445 1120 l 1,58,59
 1397 1116 1397 1116 1364 1104 c 0,60,61
 1314 1085 1314 1085 1269 1052 c 128,-1,62
 1224 1019 1224 1019 1135 930 c 2,63,-1
 844 638 l 1,0,-1
EndSplineSet
EndChar

StartChar: Y
Encoding: 89 89 51
Width: 1256
Flags: W
LayerCount: 2
Fore
SplineSet
1072 1151 m 1,0,-1
 1474 1151 l 1,1,-1
 1469 1120 l 1,2,-1
 1444 1120 l 2,3,4
 1423 1120 1423 1120 1376.5 1100 c 128,-1,5
 1330 1080 1330 1080 1287 1044 c 128,-1,6
 1244 1008 1244 1008 1177 926 c 2,7,-1
 805 488 l 1,8,-1
 744 199 l 2,9,10
 722 94 722 94 740 66 c 0,11,12
 765 32 765 32 835 32 c 2,13,-1
 872 32 l 1,14,-1
 867 0 l 1,15,-1
 376 0 l 1,16,-1
 384 32 l 1,17,-1
 425 32 l 2,18,19
 497 32 497 32 537 76 c 0,20,21
 561 102 561 102 582 199 c 2,22,-1
 640 472 l 1,23,-1
 427 954 l 2,24,25
 388 1038 388 1038 373 1059.5 c 128,-1,26
 358 1081 358 1081 300 1111 c 0,27,28
 287 1120 287 1120 253 1120 c 1,29,-1
 260 1151 l 1,30,-1
 752 1151 l 1,31,-1
 746 1120 l 1,32,-1
 721 1120 l 2,33,34
 681 1120 681 1120 643 1101 c 128,-1,35
 605 1082 605 1082 597 1045 c 0,36,37
 591 1014 591 1014 626 935 c 2,38,-1
 787 563 l 1,39,-1
 1089 919 l 2,40,41
 1157 998 1157 998 1164 1037 c 0,42,43
 1169 1061 1169 1061 1160.5 1080 c 128,-1,44
 1152 1099 1152 1099 1132 1109.5 c 128,-1,45
 1112 1120 1112 1120 1067 1120 c 1,46,-1
 1072 1151 l 1,0,-1
EndSplineSet
EndChar

StartChar: Z
Encoding: 90 90 52
Width: 1063
Flags: W
LayerCount: 2
Fore
SplineSet
1244 1151 m 1,0,-1
 258 70 l 1,1,-1
 730 70 l 2,2,3
 839 70 839 70 906.5 117 c 128,-1,4
 974 164 974 164 1052 310 c 1,5,-1
 1078 305 l 1,6,-1
 959 0 l 1,7,-1
 22 0 l 1,8,-1
 29 32 l 1,9,-1
 990 1082 l 1,10,-1
 621 1082 l 2,11,12
 529 1082 529 1082 484.5 1062.5 c 128,-1,13
 440 1043 440 1043 410.5 1005 c 128,-1,14
 381 967 381 967 341 864 c 1,15,-1
 309 864 l 1,16,-1
 393 1151 l 1,17,-1
 1244 1151 l 1,0,-1
EndSplineSet
EndChar

StartChar: bracketleft
Encoding: 91 91 53
Width: 649
Flags: W
LayerCount: 2
Fore
SplineSet
514 -233 m 1,0,-1
 141 -233 l 1,1,-1
 550 1694 l 1,2,-1
 925 1694 l 1,3,-1
 902 1597 l 1,4,-1
 669 1597 l 1,5,-1
 300 -136 l 1,6,-1
 536 -136 l 1,7,-1
 514 -233 l 1,0,-1
EndSplineSet
EndChar

StartChar: backslash
Encoding: 92 92 54
Width: 609
Flags: W
LayerCount: 2
Fore
SplineSet
504 -381 m 1,0,-1
 384 -381 l 1,1,-1
 256 938 l 1,2,-1
 378 938 l 1,3,-1
 504 -381 l 1,0,-1
EndSplineSet
EndChar

StartChar: bracketright
Encoding: 93 93 55
Width: 649
Flags: W
LayerCount: 2
Fore
SplineSet
183 -136 m 1,0,-1
 416 -136 l 1,1,-1
 783 1597 l 1,2,-1
 550 1597 l 1,3,-1
 571 1694 l 1,4,-1
 946 1694 l 1,5,-1
 537 -233 l 1,6,-1
 162 -233 l 1,7,-1
 183 -136 l 1,0,-1
EndSplineSet
EndChar

StartChar: asciicircum
Encoding: 94 94 56
Width: 987
Flags: W
LayerCount: 2
Fore
SplineSet
993 453 m 1,0,-1
 862 453 l 1,1,-1
 678 867 l 1,2,-1
 313 452 l 1,3,-1
 183 452 l 1,4,-1
 661 985 l 1,5,-1
 744 985 l 1,6,-1
 993 453 l 1,0,-1
EndSplineSet
EndChar

StartChar: underscore
Encoding: 95 95 57
Width: 926
Flags: W
LayerCount: 2
Fore
SplineSet
886 -249 m 1,0,-1
 -65 -249 l 1,1,-1
 -42 -141 l 1,2,-1
 908 -141 l 1,3,-1
 886 -249 l 1,0,-1
EndSplineSet
EndChar

StartChar: grave
Encoding: 96 96 58
Width: 248
Flags: W
LayerCount: 2
Fore
SplineSet
140 1168 m 1,0,1
 180 1075 180 1075 206 992 c 1,2,3
 213 932 213 932 200 938 c 1,4,5
 175 976 175 976 119.5 1081 c 128,-1,6
 64 1186 64 1186 54 1223 c 1,7,8
 51 1266 51 1266 140 1168 c 1,0,1
EndSplineSet
EndChar

StartChar: a
Encoding: 97 97 59
Width: 772
Flags: W
LayerCount: 2
Fore
SplineSet
518 112 m 1,0,1
 378 19 378 19 346 5 c 0,2,3
 295 -17 295 -17 242 -17 c 0,4,5
 162 -17 162 -17 121 39 c 128,-1,6
 80 95 80 95 100 184 c 0,7,8
 112 241 112 241 147 283 c 0,9,10
 195 341 195 341 291.5 391.5 c 128,-1,11
 388 442 388 442 604 516 c 1,12,-1
 609 546 l 1,13,14
 635 662 635 662 608 705.5 c 128,-1,15
 581 749 581 749 509 749 c 0,16,17
 455 749 455 749 419 719 c 0,18,19
 381 691 381 691 371 654 c 1,20,-1
 364 605 l 2,21,22
 355 565 355 565 330.5 544.5 c 128,-1,23
 306 524 306 524 274 524 c 0,24,25
 241 524 241 524 226 545 c 128,-1,26
 211 566 211 566 219 605 c 0,27,28
 234 678 234 678 322 739 c 128,-1,29
 410 800 410 800 546 800 c 0,30,31
 649 800 649 800 707 766 c 0,32,33
 754 739 754 739 763 683 c 0,34,35
 772 647 772 647 747 533 c 2,36,-1
 691 269 l 2,37,38
 667 158 667 158 666 133.5 c 128,-1,39
 665 109 665 109 673.5 100 c 128,-1,40
 682 91 682 91 695 91 c 256,41,42
 708 91 708 91 719 98 c 0,43,44
 739 109 739 109 801 158 c 1,45,-1
 792 112 l 1,46,47
 669 -15 669 -15 583 -15 c 0,48,49
 542 -15 542 -15 523 13.5 c 128,-1,50
 504 42 504 42 518 112 c 1,0,1
529 168 m 1,51,-1
 592 464 l 1,52,53
 453 413 453 413 411 392 c 0,54,55
 335 354 335 354 298.5 313.5 c 128,-1,56
 262 273 262 273 252 224 c 0,57,58
 239 163 239 163 267 122.5 c 128,-1,59
 295 82 295 82 342 82 c 0,60,61
 407 82 407 82 529 168 c 1,51,-1
EndSplineSet
EndChar

StartChar: b
Encoding: 98 98 60
Width: 869
Flags: W
LayerCount: 2
Fore
SplineSet
404 642 m 1,0,1
 549 800 549 800 681 800 c 0,2,3
 800 800 800 800 867.5 698 c 128,-1,4
 935 596 935 596 897 419 c 0,5,6
 854 211 854 211 689 85 c 0,7,8
 548 -23 548 -23 404 -23 c 0,9,10
 335 -23 335 -23 271 1 c 128,-1,11
 207 25 207 25 142 75 c 1,12,-1
 313 880 l 2,13,14
 342 1012 342 1012 342.5 1043 c 128,-1,15
 343 1074 343 1074 331 1085 c 128,-1,16
 319 1096 319 1096 299 1096 c 0,17,18
 276 1096 276 1096 237 1082 c 1,19,-1
 231 1112 l 1,20,-1
 485 1208 l 1,21,-1
 524 1208 l 1,22,-1
 404 642 l 1,0,1
392 588 m 1,23,-1
 293 123 l 1,24,25
 328 81 328 81 369 59.5 c 128,-1,26
 410 38 410 38 460 38 c 0,27,28
 537 38 537 38 621 123 c 128,-1,29
 705 208 705 208 740 371 c 0,30,31
 772 520 772 520 722.5 600 c 128,-1,32
 673 680 673 680 587 680 c 0,33,34
 543 680 543 680 493 657 c 0,35,36
 455 640 455 640 392 588 c 1,23,-1
EndSplineSet
EndChar

StartChar: c
Encoding: 99 99 61
Width: 772
Flags: W
LayerCount: 2
Fore
SplineSet
778 295 m 1,0,1
 714 142 714 142 604 59.5 c 128,-1,2
 494 -23 494 -23 384 -23 c 0,3,4
 252 -23 252 -23 176 87.5 c 128,-1,5
 100 198 100 198 141 388 c 0,6,7
 180 571 180 571 314 685.5 c 128,-1,8
 448 800 448 800 601 800 c 0,9,10
 715 800 715 800 776 739.5 c 128,-1,11
 837 679 837 679 822 614 c 0,12,13
 816 582 816 582 791 561.5 c 128,-1,14
 766 541 766 541 727 541 c 0,15,16
 678 541 678 541 659 574 c 0,17,18
 649 592 649 592 655 642 c 128,-1,19
 661 692 661 692 637 718 c 0,20,21
 614 744 614 744 560 744 c 0,22,23
 475 744 475 744 409 681 c 0,24,25
 324 597 324 597 295 461 c 0,26,27
 265 322 265 322 310 215.5 c 128,-1,28
 355 109 355 109 472 109 c 0,29,30
 555 109 555 109 635 166 c 0,31,32
 689 206 689 206 755 308 c 1,33,-1
 778 295 l 1,0,1
EndSplineSet
EndChar

StartChar: d
Encoding: 100 100 62
Width: 869
Flags: W
LayerCount: 2
Fore
SplineSet
621 87 m 1,0,1
 551 28 551 28 491.5 2.5 c 128,-1,2
 432 -23 432 -23 371 -23 c 0,3,4
 242 -23 242 -23 169.5 83 c 128,-1,5
 97 189 97 189 133 356 c 0,6,7
 169 525 169 525 304 663 c 128,-1,8
 439 801 439 801 604 801 c 0,9,10
 706 801 706 801 760 737 c 1,11,-1
 791 879 l 2,12,13
 818 1012 818 1012 819 1043 c 128,-1,14
 820 1074 820 1074 807.5 1085 c 128,-1,15
 795 1096 795 1096 776 1096 c 0,16,17
 754 1096 754 1096 714 1082 c 1,18,-1
 708 1112 l 1,19,-1
 960 1208 l 1,20,-1
 999 1208 l 1,21,-1
 809 308 l 2,22,23
 780 172 780 172 780 142 c 128,-1,24
 780 112 780 112 791 99.5 c 128,-1,25
 802 87 802 87 821 87 c 0,26,27
 843 87 843 87 886 101 c 1,28,-1
 889 73 l 1,29,-1
 638 -23 l 1,30,-1
 598 -23 l 1,31,-1
 621 87 l 1,0,1
635 147 m 1,32,-1
 719 548 l 1,33,34
 726 605 726 605 711 653 c 128,-1,35
 696 701 696 701 659.5 725 c 128,-1,36
 623 749 623 749 583 749 c 0,37,38
 508 749 508 749 435 681 c 0,39,40
 338 594 338 594 302 424 c 0,41,42
 266 253 266 253 321.5 161.5 c 128,-1,43
 377 70 377 70 469 70 c 0,44,45
 547 70 547 70 635 147 c 1,32,-1
EndSplineSet
EndChar

StartChar: e
Encoding: 101 101 63
Width: 772
Flags: W
LayerCount: 2
Fore
SplineSet
288 485 m 1,0,1
 251 312 251 312 313 213 c 0,2,3
 377 114 377 114 492 114 c 0,4,5
 569 114 569 114 634.5 156 c 128,-1,6
 700 198 700 198 760 300 c 1,7,-1
 782 284 l 1,8,9
 739 168 739 168 633 72.5 c 128,-1,10
 527 -23 527 -23 399 -23 c 0,11,12
 258 -23 258 -23 181.5 86 c 128,-1,13
 105 195 105 195 144 378 c 0,14,15
 187 579 187 579 313.5 690 c 128,-1,16
 440 801 440 801 594 801 c 0,17,18
 724 801 724 801 790 715 c 128,-1,19
 856 629 856 629 825 485 c 1,20,-1
 288 485 l 1,0,1
297 533 m 1,21,-1
 658 533 l 1,22,23
 670 608 670 608 662 639 c 0,24,25
 652 686 652 686 616 713 c 128,-1,26
 580 740 580 740 532 740 c 0,27,28
 463 740 463 740 395.5 685 c 128,-1,29
 328 630 328 630 297 533 c 1,21,-1
EndSplineSet
EndChar

StartChar: f
Encoding: 102 102 64
Width: 580
Flags: W
LayerCount: 2
Fore
SplineSet
510 716 m 1,0,-1
 403 207 l 2,1,2
 378 97 378 97 395 67 c 0,3,4
 420 31 420 31 472 31 c 2,5,-1
 543 31 l 1,6,-1
 537 0 l 1,7,-1
 73 0 l 1,8,-1
 78 31 l 1,9,-1
 113 31 l 2,10,11
 147 31 147 31 178.5 48 c 128,-1,12
 210 65 210 65 227 93.5 c 128,-1,13
 244 122 244 122 262 207 c 2,14,-1
 371 716 l 1,15,-1
 218 716 l 1,16,-1
 231 778 l 1,17,-1
 384 778 l 1,18,-1
 395 829 l 2,19,20
 419 945 419 945 473 1025 c 128,-1,21
 527 1105 527 1105 614.5 1155.5 c 128,-1,22
 702 1206 702 1206 798 1206 c 0,23,24
 888 1206 888 1206 949 1148 c 0,25,26
 991 1110 991 1110 980 1063 c 0,27,28
 975 1036 975 1036 948 1013.5 c 128,-1,29
 921 991 921 991 895 991 c 0,30,31
 877 991 877 991 858 1005.5 c 128,-1,32
 839 1020 839 1020 817 1066 c 128,-1,33
 795 1112 795 1112 772 1127 c 0,34,35
 750 1144 750 1144 718 1144 c 0,36,37
 679 1144 679 1144 647.5 1123 c 128,-1,38
 616 1102 616 1102 595 1058.5 c 128,-1,39
 574 1015 574 1015 537 834 c 1,40,-1
 524 778 l 1,41,-1
 723 778 l 1,42,-1
 711 716 l 1,43,-1
 510 716 l 1,0,-1
EndSplineSet
EndChar

StartChar: g
Encoding: 103 103 65
Width: 869
Flags: W
LayerCount: 2
Fore
SplineSet
322 284 m 1,0,1
 257 318 257 318 232.5 380.5 c 128,-1,2
 208 443 208 443 224 519 c 0,3,4
 250 635 250 635 354.5 717.5 c 128,-1,5
 459 800 459 800 595 800 c 0,6,7
 705 800 705 800 776 746 c 1,8,-1
 939 746 l 2,9,10
 976 746 976 746 981.5 743.5 c 128,-1,11
 987 741 987 741 989 737 c 0,12,13
 993 728 993 728 989 711 c 0,14,15
 985 687 985 687 978 679 c 0,16,17
 974 675 974 675 967 672 c 128,-1,18
 960 669 960 669 925 669 c 2,19,-1
 823 669 l 1,20,21
 857 608 857 608 836 513 c 0,22,23
 814 406 814 406 715 328.5 c 128,-1,24
 616 251 616 251 475 251 c 0,25,26
 417 251 417 251 359 267 c 1,27,28
 316 235 316 235 297 211 c 128,-1,29
 278 187 278 187 276 170 c 0,30,31
 273 155 273 155 284 142 c 128,-1,32
 295 129 295 129 334 122 c 0,33,34
 358 119 358 119 452 117 c 0,35,36
 626 112 626 112 676 103 c 0,37,38
 752 94 752 94 789.5 46 c 128,-1,39
 827 -2 827 -2 812 -72 c 0,40,41
 792 -168 792 -168 683 -252 c 0,42,43
 525 -375 525 -375 312 -375 c 0,44,45
 147 -375 147 -375 52 -300 c 0,46,47
 -2 -259 -2 -259 5 -213 c 0,48,49
 11 -194 11 -194 24 -172 c 0,50,51
 44 -141 44 -141 101 -85 c 0,52,53
 110 -77 110 -77 208 5 c 1,54,55
 170 33 170 33 155.5 54 c 128,-1,56
 141 75 141 75 147 100 c 0,57,58
 154 131 154 131 186.5 170.5 c 128,-1,59
 219 210 219 210 322 284 c 1,0,1
571 760 m 0,60,61
 508 760 508 760 455.5 710 c 128,-1,62
 403 660 403 660 381 557 c 0,63,64
 351 422 351 422 394 348 c 0,65,66
 426 291 426 291 493 291 c 0,67,68
 559 291 559 291 610 339.5 c 128,-1,69
 661 388 661 388 683 492 c 0,70,71
 713 627 713 627 669 703 c 0,72,73
 639 760 639 760 571 760 c 0,60,61
253 0 m 1,74,75
 206 -43 206 -43 176.5 -80.5 c 128,-1,76
 147 -118 147 -118 141 -150 c 0,77,78
 132 -190 132 -190 175 -220 c 0,79,80
 250 -274 250 -274 409 -274 c 0,81,82
 562 -274 562 -274 646 -220 c 128,-1,83
 730 -166 730 -166 744 -103 c 0,84,85
 752 -61 752 -61 714 -41 c 0,86,87
 673 -23 673 -23 543 -19 c 0,88,89
 353 -15 353 -15 253 0 c 1,74,75
EndSplineSet
EndChar

StartChar: h
Encoding: 104 104 66
Width: 869
Flags: W
LayerCount: 2
Fore
SplineSet
538 1208 m 1,0,-1
 417 639 l 1,1,2
 533 741 533 741 595 770.5 c 128,-1,3
 657 800 657 800 713 800 c 0,4,5
 779 800 779 800 818 763.5 c 128,-1,6
 857 727 857 727 866 649 c 0,7,8
 869 596 869 596 838 451 c 2,9,-1
 780 176 l 2,10,11
 763 101 763 101 770 75 c 0,12,13
 773 54 773 54 792 42.5 c 128,-1,14
 811 31 811 31 866 31 c 1,15,-1
 858 0 l 1,16,-1
 477 0 l 1,17,-1
 483 31 l 1,18,-1
 502 31 l 2,19,20
 555 31 555 31 579.5 47.5 c 128,-1,21
 604 64 604 64 619 96 c 0,22,23
 624 110 624 110 639 176 c 2,24,-1
 697 451 l 2,25,26
 724 579 724 579 719 618.5 c 128,-1,27
 714 658 714 658 689.5 678 c 128,-1,28
 665 698 665 698 625 698 c 0,29,30
 583 698 583 698 533.5 676 c 128,-1,31
 484 654 484 654 407 586 c 1,32,-1
 319 176 l 2,33,34
 302 96 302 96 307 76.5 c 128,-1,35
 312 57 312 57 333.5 44 c 128,-1,36
 355 31 355 31 415 31 c 1,37,-1
 408 0 l 1,38,-1
 23 0 l 1,39,-1
 29 31 l 1,40,41
 80 31 80 31 113 46 c 0,42,43
 133 55 133 55 148 78.5 c 128,-1,44
 163 102 163 102 179 176 c 2,45,-1
 329 879 l 2,46,47
 356 1012 356 1012 357 1043 c 128,-1,48
 358 1074 358 1074 346.5 1085 c 128,-1,49
 335 1096 335 1096 312 1096 c 0,50,51
 295 1096 295 1096 253 1082 c 1,52,-1
 246 1112 l 1,53,-1
 501 1208 l 1,54,-1
 538 1208 l 1,0,-1
EndSplineSet
EndChar

StartChar: i
Encoding: 105 105 67
Width: 483
Flags: W
LayerCount: 2
Fore
SplineSet
508 1208 m 0,0,1
 543 1208 543 1208 563 1182.5 c 128,-1,2
 583 1157 583 1157 575 1122 c 0,3,4
 568 1086 568 1086 537.5 1060 c 128,-1,5
 507 1034 507 1034 472 1034 c 0,6,7
 436 1034 436 1034 415.5 1060 c 128,-1,8
 395 1086 395 1086 404 1122 c 0,9,10
 410 1157 410 1157 440.5 1182.5 c 128,-1,11
 471 1208 471 1208 508 1208 c 0,0,1
492 800 m 1,12,-1
 359 176 l 2,13,14
 344 102 344 102 349 78 c 128,-1,15
 354 54 354 54 373 42.5 c 128,-1,16
 392 31 392 31 447 31 c 1,17,-1
 441 0 l 1,18,-1
 63 0 l 1,19,-1
 69 31 l 1,20,21
 125 31 125 31 147.5 42 c 128,-1,22
 170 53 170 53 186 78 c 128,-1,23
 202 103 202 103 218 176 c 2,24,-1
 283 475 l 2,25,26
 309 602 309 602 309 639 c 0,27,28
 309 665 309 665 298.5 676 c 128,-1,29
 288 687 288 687 266 687 c 0,30,31
 241 687 241 687 207 675 c 1,32,-1
 200 705 l 1,33,-1
 454 800 l 1,34,-1
 492 800 l 1,12,-1
EndSplineSet
EndChar

StartChar: j
Encoding: 106 106 68
Width: 483
Flags: W
LayerCount: 2
Fore
SplineSet
507 1208 m 256,0,1
 543 1208 543 1208 563 1182.5 c 128,-1,2
 583 1157 583 1157 576 1121 c 256,3,4
 569 1085 569 1085 538 1059 c 128,-1,5
 507 1033 507 1033 471 1033 c 256,6,7
 435 1033 435 1033 415 1059 c 128,-1,8
 395 1085 395 1085 403 1121 c 0,9,10
 409 1157 409 1157 440 1182.5 c 128,-1,11
 471 1208 471 1208 507 1208 c 256,0,1
494 800 m 1,12,-1
 328 18 l 2,13,14
 286 -182 286 -182 180.5 -278.5 c 128,-1,15
 75 -375 75 -375 -61 -375 c 0,16,17
 -138 -375 -138 -375 -169 -347 c 128,-1,18
 -200 -319 -200 -319 -195 -289 c 0,19,20
 -189 -260 -189 -260 -162.5 -239 c 128,-1,21
 -136 -218 -136 -218 -110 -218 c 0,22,23
 -88 -218 -88 -218 -66 -229 c 0,24,25
 -54 -234 -54 -234 -20.5 -271 c 128,-1,26
 13 -308 13 -308 41 -308 c 0,27,28
 61 -308 61 -308 83.5 -292.5 c 128,-1,29
 106 -277 106 -277 123.5 -239.5 c 128,-1,30
 141 -202 141 -202 168 -79 c 2,31,-1
 285 473 l 2,32,33
 312 602 312 602 311 639 c 0,34,35
 312 665 312 665 301 676 c 128,-1,36
 290 687 290 687 268 687 c 0,37,38
 245 687 245 687 209 675 c 1,39,-1
 202 705 l 1,40,-1
 458 800 l 1,41,-1
 494 800 l 1,12,-1
EndSplineSet
EndChar

StartChar: k
Encoding: 107 107 69
Width: 869
Flags: W
LayerCount: 2
Fore
SplineSet
540 1208 m 1,0,-1
 375 432 l 1,1,-1
 610 614 l 2,2,3
 687 672 687 672 701 686 c 0,4,5
 711 697 711 697 713 706 c 0,6,7
 715 724 715 724 704 736.5 c 128,-1,8
 693 749 693 749 661 750 c 1,9,-1
 665 778 l 1,10,-1
 1004 778 l 1,11,-1
 998 750 l 1,12,13
 930 749 930 749 879 730 c 128,-1,14
 828 711 828 711 761 660 c 2,15,-1
 524 475 l 1,16,-1
 668 222 l 2,17,18
 730 119 730 119 754 91 c 0,19,20
 784 52 784 52 813 40 c 0,21,22
 833 31 833 31 887 31 c 1,23,-1
 879 0 l 1,24,-1
 502 0 l 1,25,-1
 508 31 l 1,26,27
 540 32 540 32 553 41 c 128,-1,28
 566 50 566 50 571 65 c 0,29,30
 575 85 575 85 549 129 c 2,31,-1
 375 432 l 1,32,-1
 322 175 l 2,33,34
 305 100 305 100 310.5 76.5 c 128,-1,35
 316 53 316 53 333.5 42.5 c 128,-1,36
 351 32 351 32 416 31 c 1,37,-1
 409 0 l 1,38,-1
 15 0 l 1,39,-1
 21 31 l 1,40,41
 80 31 80 31 112 44 c 0,42,43
 132 54 132 54 145 75 c 0,44,45
 164 101 164 101 179 172 c 2,46,-1
 329 878 l 2,47,48
 358 1013 358 1013 358.5 1043.5 c 128,-1,49
 359 1074 359 1074 347 1085.5 c 128,-1,50
 335 1097 335 1097 315 1097 c 0,51,52
 297 1097 297 1097 257 1082 c 1,53,-1
 251 1112 l 1,54,-1
 502 1208 l 1,55,-1
 540 1208 l 1,0,-1
EndSplineSet
EndChar

StartChar: l
Encoding: 108 108 70
Width: 483
Flags: W
LayerCount: 2
Fore
SplineSet
577 1208 m 1,0,-1
 359 176 l 2,1,2
 343 102 343 102 348.5 78.5 c 128,-1,3
 354 55 354 55 374 43 c 128,-1,4
 394 31 394 31 453 31 c 1,5,-1
 448 0 l 1,6,-1
 65 0 l 1,7,-1
 73 31 l 1,8,9
 125 31 125 31 147.5 42 c 128,-1,10
 170 53 170 53 185.5 78 c 128,-1,11
 201 103 201 103 218 176 c 2,12,-1
 367 881 l 2,13,14
 395 1013 395 1013 395.5 1043.5 c 128,-1,15
 396 1074 396 1074 385 1085 c 128,-1,16
 374 1096 374 1096 354 1096 c 0,17,18
 332 1096 332 1096 295 1082 c 1,19,-1
 288 1112 l 1,20,-1
 539 1208 l 1,21,-1
 577 1208 l 1,0,-1
EndSplineSet
EndChar

StartChar: m
Encoding: 109 109 71
Width: 1352
Flags: W
LayerCount: 2
Fore
SplineSet
420 635 m 1,0,1
 524 719 524 719 540 733 c 0,2,3
 585 765 585 765 633 782.5 c 128,-1,4
 681 800 681 800 725 800 c 0,5,6
 798 800 798 800 842 757.5 c 128,-1,7
 886 715 886 715 887 635 c 1,8,9
 994 737 994 737 1061.5 768.5 c 128,-1,10
 1129 800 1129 800 1192 800 c 256,11,12
 1255 800 1255 800 1296.5 768.5 c 128,-1,13
 1338 737 1338 737 1350 664 c 0,14,15
 1358 616 1358 616 1336 510 c 2,16,-1
 1265 176 l 2,17,18
 1248 102 1248 102 1255 76 c 0,19,20
 1258 57 1258 57 1278.5 44 c 128,-1,21
 1299 31 1299 31 1350 31 c 1,22,-1
 1344 0 l 1,23,-1
 960 0 l 1,24,-1
 968 31 l 1,25,-1
 985 31 l 2,26,27
 1033 31 1033 31 1065 51 c 0,28,29
 1088 64 1088 64 1102 94 c 0,30,31
 1109 109 1109 109 1124 176 c 2,32,-1
 1195 510 l 2,33,34
 1215 605 1215 605 1200 643 c 0,35,36
 1178 698 1178 698 1104 698 c 0,37,38
 1060 698 1060 698 1009.5 676 c 128,-1,39
 959 654 959 654 882 592 c 1,40,-1
 878 583 l 1,41,-1
 873 547 l 1,42,-1
 795 176 l 2,43,44
 778 96 778 96 781.5 76.5 c 128,-1,45
 785 57 785 57 808.5 44 c 128,-1,46
 832 31 832 31 890 31 c 1,47,-1
 883 0 l 1,48,-1
 490 0 l 1,49,-1
 497 31 l 1,50,51
 561 31 561 31 589 46.5 c 128,-1,52
 617 62 617 62 632 91 c 0,53,54
 640 106 640 106 654 176 c 2,55,-1
 725 510 l 2,56,57
 746 605 746 605 725 647 c 0,58,59
 701 702 701 702 634 702 c 0,60,61
 587 702 587 702 537 678 c 0,62,63
 459 639 459 639 410 592 c 1,64,-1
 323 176 l 2,65,66
 306 100 306 100 311.5 76.5 c 128,-1,67
 317 53 317 53 335.5 42 c 128,-1,68
 354 31 354 31 419 31 c 1,69,-1
 411 0 l 1,70,-1
 28 0 l 1,71,-1
 34 31 l 1,72,73
 87 31 87 31 110.5 42 c 128,-1,74
 134 53 134 53 150.5 78 c 128,-1,75
 167 103 167 103 183 176 c 2,76,-1
 245 473 l 2,77,78
 273 601 273 601 273 639 c 0,79,80
 273 665 273 665 262.5 676 c 128,-1,81
 252 687 252 687 230 687 c 0,82,83
 207 687 207 687 172 675 c 1,84,-1
 164 705 l 1,85,-1
 419 800 l 1,86,-1
 454 800 l 1,87,-1
 420 635 l 1,0,1
EndSplineSet
EndChar

StartChar: n
Encoding: 110 110 72
Width: 869
Flags: W
LayerCount: 2
Fore
SplineSet
416 636 m 1,0,1
 587 800 587 800 712 800 c 0,2,3
 774 800 774 800 814 768.5 c 128,-1,4
 854 737 854 737 866 664 c 0,5,6
 872 614 872 614 850 507 c 2,7,-1
 780 176 l 2,8,9
 763 101 763 101 771 76 c 0,10,11
 774 54 774 54 793 42.5 c 128,-1,12
 812 31 812 31 868 31 c 1,13,-1
 861 0 l 1,14,-1
 477 0 l 1,15,-1
 484 31 l 1,16,-1
 501 31 l 2,17,18
 553 31 553 31 578.5 47.5 c 128,-1,19
 604 64 604 64 619 96 c 0,20,21
 625 109 625 109 640 176 c 2,22,-1
 707 494 l 2,23,24
 730 601 730 601 712.5 648.5 c 128,-1,25
 695 696 695 696 629 696 c 0,26,27
 528 696 528 696 406 585 c 1,28,-1
 318 176 l 2,29,30
 300 97 300 97 307 78 c 0,31,32
 312 53 312 53 331 42 c 128,-1,33
 350 31 350 31 414 31 c 1,34,-1
 407 0 l 1,35,-1
 23 0 l 1,36,-1
 29 31 l 1,37,-1
 46 31 l 2,38,39
 106 31 106 31 132.5 61 c 128,-1,40
 159 91 159 91 178 176 c 2,41,-1
 240 465 l 2,42,43
 269 605 269 605 269 635 c 128,-1,44
 269 665 269 665 258.5 676 c 128,-1,45
 248 687 248 687 226 687 c 0,46,47
 201 687 201 687 167 675 c 1,48,-1
 159 705 l 1,49,-1
 414 800 l 1,50,-1
 451 800 l 1,51,-1
 416 636 l 1,0,1
EndSplineSet
EndChar

StartChar: o
Encoding: 111 111 73
Width: 869
Flags: W
LayerCount: 2
Fore
SplineSet
605 800 m 0,0,1
 781 800 781 800 859 665 c 0,2,3
 926 551 926 551 893 404 c 0,4,5
 871 299 871 299 798.5 192 c 128,-1,6
 726 85 726 85 626.5 31 c 128,-1,7
 527 -23 527 -23 420 -23 c 0,8,9
 244 -23 244 -23 172 117 c 0,10,11
 108 234 108 234 139 382 c 0,12,13
 161 488 161 488 236.5 594 c 128,-1,14
 312 700 312 700 409.5 750 c 128,-1,15
 507 800 507 800 605 800 c 0,0,1
566 745 m 0,16,17
 521 745 521 745 470 718.5 c 128,-1,18
 419 692 419 692 376.5 625.5 c 128,-1,19
 334 559 334 559 312 452 c 0,20,21
 276 283 276 283 317.5 159.5 c 128,-1,22
 359 36 359 36 469 36 c 0,23,24
 551 36 551 36 619 104 c 128,-1,25
 687 172 687 172 723 337 c 0,26,27
 767 546 767 546 703 664 c 0,28,29
 660 745 660 745 566 745 c 0,16,17
EndSplineSet
EndChar

StartChar: p
Encoding: 112 112 74
Width: 869
Flags: W
LayerCount: 2
Fore
SplineSet
147 701 m 1,0,-1
 407 796 l 1,1,-1
 439 796 l 1,2,-1
 400 616 l 1,3,4
 482 718 482 718 551.5 759 c 128,-1,5
 621 800 621 800 689 800 c 0,6,7
 805 800 805 800 864 708 c 0,8,9
 936 596 936 596 898 417 c 0,10,11
 855 216 855 216 712 84 c 0,12,13
 595 -23 595 -23 450 -23 c 0,14,15
 387 -23 387 -23 344 -6 c 0,16,17
 312 5 312 5 277 44 c 1,18,-1
 229 -193 l 2,19,20
 211 -272 211 -272 216 -293.5 c 128,-1,21
 221 -315 221 -315 243 -328 c 128,-1,22
 265 -341 265 -341 328 -341 c 1,23,-1
 322 -372 l 1,24,-1
 -85 -372 l 1,25,-1
 -78 -341 l 1,26,-1
 -57 -341 l 2,27,28
 -11 -342 -11 -342 26 -323 c 0,29,30
 44 -312 44 -312 57.5 -292 c 128,-1,31
 71 -272 71 -272 89 -187 c 2,32,-1
 245 548 l 2,33,34
 261 624 261 624 258.5 644 c 128,-1,35
 256 664 256 664 243.5 674.5 c 128,-1,36
 231 685 231 685 207 685 c 0,37,38
 186 685 186 685 151 673 c 1,39,-1
 147 701 l 1,0,-1
389 565 m 1,40,-1
 328 275 l 2,41,42
 308 180 308 180 310 151 c 0,43,44
 311 101 311 101 349 64.5 c 128,-1,45
 387 28 387 28 458 28 c 0,46,47
 542 28 542 28 608 94 c 0,48,49
 697 180 697 180 730 337 c 0,50,51
 769 516 769 516 711 610 c 0,52,53
 669 678 669 678 596 678 c 0,54,55
 553 678 553 678 510 657 c 0,56,57
 477 642 477 642 389 565 c 1,40,-1
EndSplineSet
EndChar

StartChar: q
Encoding: 113 113 75
Width: 869
Flags: W
LayerCount: 2
Fore
SplineSet
913 800 m 1,0,-1
 701 -199 l 2,1,2
 684 -274 684 -274 689.5 -295 c 128,-1,3
 695 -316 695 -316 714.5 -328.5 c 128,-1,4
 734 -341 734 -341 795 -341 c 1,5,-1
 790 -372 l 1,6,-1
 397 -372 l 1,7,-1
 405 -341 l 1,8,-1
 420 -341 l 2,9,10
 468 -341 468 -341 495 -327 c 0,11,12
 514 -317 514 -317 530 -293.5 c 128,-1,13
 546 -270 546 -270 560 -199 c 2,14,-1
 630 135 l 1,15,16
 533 43 533 43 469 10 c 128,-1,17
 405 -23 405 -23 343 -23 c 0,18,19
 230 -23 230 -23 163 79.5 c 128,-1,20
 96 182 96 182 132 354 c 0,21,22
 174 551 174 551 318 675.5 c 128,-1,23
 462 800 462 800 627 800 c 0,24,25
 676 800 676 800 713.5 786.5 c 128,-1,26
 751 773 751 773 778 746 c 1,27,28
 832 771 832 771 883 800 c 1,29,-1
 913 800 l 1,0,-1
642 189 m 1,30,-1
 719 553 l 2,31,32
 734 618 734 618 725 653.5 c 128,-1,33
 716 689 716 689 679 714.5 c 128,-1,34
 642 740 642 740 587 740 c 0,35,36
 493 740 493 740 408.5 660 c 128,-1,37
 324 580 324 580 289 416 c 0,38,39
 254 258 254 258 306.5 177 c 128,-1,40
 359 96 359 96 455 96 c 0,41,42
 506 96 506 96 550 117.5 c 128,-1,43
 594 139 594 139 642 189 c 1,30,-1
EndSplineSet
EndChar

StartChar: r
Encoding: 114 114 76
Width: 638
Flags: W
LayerCount: 2
Fore
SplineSet
452 800 m 1,0,-1
 408 596 l 1,1,2
 581 787 581 787 682 787 c 0,3,4
 728 787 728 787 753.5 759.5 c 128,-1,5
 779 732 779 732 772 694 c 0,6,7
 763 660 763 660 737 637.5 c 128,-1,8
 711 615 711 615 680 615 c 0,9,10
 650 615 650 615 618.5 644 c 128,-1,11
 587 673 587 673 570 673 c 0,12,13
 555 673 555 673 533 656 c 0,14,15
 488 621 488 621 394 525 c 1,16,-1
 320 182 l 2,17,18
 307 117 307 117 315 84 c 0,19,20
 322 62 322 62 346.5 46.5 c 128,-1,21
 371 31 371 31 425 31 c 1,22,-1
 419 0 l 1,23,-1
 19 0 l 1,24,-1
 25 31 l 1,25,26
 85 31 85 31 118 50 c 0,27,28
 142 63 142 63 157 92 c 0,29,30
 164 108 164 108 179 175 c 2,31,-1
 242 477 l 2,32,33
 272 612 272 612 272 638 c 128,-1,34
 272 664 272 664 259 675.5 c 128,-1,35
 246 687 246 687 224 687 c 0,36,37
 198 687 198 687 162 675 c 1,38,-1
 159 705 l 1,39,-1
 416 800 l 1,40,-1
 452 800 l 1,0,-1
EndSplineSet
EndChar

StartChar: s
Encoding: 115 115 77
Width: 678
Flags: W
LayerCount: 2
Fore
SplineSet
726 800 m 1,0,-1
 670 537 l 1,1,-1
 642 537 l 1,2,3
 637 660 637 660 596 705 c 128,-1,4
 555 750 555 750 477 750 c 0,5,6
 417 750 417 750 373.5 718.5 c 128,-1,7
 330 687 330 687 323 649 c 0,8,9
 312 602 312 602 332 568 c 0,10,11
 351 532 351 532 425 494 c 2,12,-1
 536 433 l 2,13,14
 689 350 689 350 660 212 c 0,15,16
 638 106 638 106 544 41.5 c 128,-1,17
 450 -23 450 -23 350 -23 c 0,18,19
 278 -23 278 -23 194 2 c 0,20,21
 167 11 167 11 148 11 c 0,22,23
 130 11 130 11 113 -12 c 1,24,-1
 85 -12 l 1,25,-1
 144 265 l 1,26,-1
 173 265 l 1,27,28
 172 147 172 147 225 86.5 c 128,-1,29
 278 26 278 26 363 26 c 0,30,31
 421 26 421 26 465.5 61 c 128,-1,32
 510 96 510 96 520 143 c 0,33,34
 532 201 532 201 499 242 c 128,-1,35
 466 283 466 283 356 344 c 128,-1,36
 246 405 246 405 218 453 c 0,37,38
 191 502 191 502 207 575 c 0,39,40
 228 672 228 672 307 736 c 128,-1,41
 386 800 386 800 490 800 c 0,42,43
 537 800 537 800 597 781 c 0,44,45
 638 769 638 769 653 769 c 0,46,47
 665 769 665 769 674.5 774.5 c 128,-1,48
 684 780 684 780 698 800 c 1,49,-1
 726 800 l 1,0,-1
EndSplineSet
EndChar

StartChar: t
Encoding: 116 116 78
Width: 483
Flags: W
LayerCount: 2
Fore
SplineSet
501 1033 m 1,0,-1
 444 778 l 1,1,-1
 626 778 l 1,2,-1
 614 718 l 1,3,-1
 431 718 l 1,4,-1
 324 215 l 2,5,6
 309 137 309 137 325.5 111.5 c 128,-1,7
 342 86 342 86 375 86 c 0,8,9
 404 86 404 86 434 103.5 c 128,-1,10
 464 121 464 121 485 155 c 1,11,-1
 519 155 l 1,12,13
 471 71 471 71 407.5 29 c 128,-1,14
 344 -13 344 -13 287 -13 c 0,15,16
 248 -13 248 -13 215.5 9 c 128,-1,17
 183 31 183 31 173 71.5 c 128,-1,18
 163 112 163 112 182 195 c 2,19,-1
 291 718 l 1,20,-1
 169 718 l 1,21,-1
 175 746 l 1,22,23
 227 765 227 765 285 810 c 128,-1,24
 343 855 343 855 394 914 c 0,25,26
 419 948 419 948 473 1033 c 1,27,-1
 501 1033 l 1,0,-1
EndSplineSet
EndChar

StartChar: u
Encoding: 117 117 79
Width: 869
Flags: W
LayerCount: 2
Fore
SplineSet
901 778 m 1,0,-1
 801 307 l 2,1,2
 772 172 772 172 772 142 c 128,-1,3
 772 112 772 112 783.5 99.5 c 128,-1,4
 795 87 795 87 814 87 c 0,5,6
 839 87 839 87 877 101 c 1,7,-1
 881 73 l 1,8,-1
 629 -23 l 1,9,-1
 591 -23 l 1,10,-1
 626 141 l 1,11,12
 502 32 502 32 443.5 4.5 c 128,-1,13
 385 -23 385 -23 327 -23 c 0,14,15
 261 -23 261 -23 221.5 15 c 128,-1,16
 182 53 182 53 176 112.5 c 128,-1,17
 170 172 170 172 193 278 c 2,18,-1
 266 626 l 2,19,20
 277 681 277 681 269.5 702.5 c 128,-1,21
 262 724 262 724 241 735.5 c 128,-1,22
 220 747 220 747 159 746 c 1,23,-1
 167 778 l 1,24,-1
 439 778 l 1,25,-1
 328 256 l 2,26,27
 305 148 305 148 336 114 c 128,-1,28
 367 80 367 80 420 80 c 0,29,30
 455 80 455 80 507.5 102.5 c 128,-1,31
 560 125 560 125 637 191 c 1,32,-1
 730 630 l 2,33,34
 744 698 744 698 724.5 721.5 c 128,-1,35
 705 745 705 745 629 746 c 1,36,-1
 636 778 l 1,37,-1
 901 778 l 1,0,-1
EndSplineSet
EndChar

StartChar: v
Encoding: 118 118 80
Width: 869
Flags: W
LayerCount: 2
Fore
SplineSet
179 778 m 1,0,-1
 544 778 l 1,1,-1
 538 746 l 1,2,-1
 514 746 l 2,3,4
 482 746 482 746 461.5 730 c 128,-1,5
 441 714 441 714 433 686 c 0,6,7
 428 657 428 657 437 617 c 2,8,-1
 526 187 l 1,9,-1
 802 632 l 2,10,11
 833 680 833 680 838 704 c 0,12,13
 840 716 840 716 834 724 c 0,14,15
 829 737 829 737 815 741.5 c 128,-1,16
 801 746 801 746 758 746 c 1,17,-1
 763 778 l 1,18,-1
 1018 778 l 1,19,-1
 1011 746 l 1,20,21
 966 743 966 743 946 727 c 0,22,23
 911 702 911 702 875 642 c 2,24,-1
 458 -23 l 1,25,-1
 422 -23 l 1,26,-1
 285 632 l 2,27,28
 275 678 275 678 262.5 698 c 128,-1,29
 250 718 250 718 227 733 c 0,30,31
 215 739 215 739 173 746 c 1,32,-1
 179 778 l 1,0,-1
EndSplineSet
EndChar

StartChar: w
Encoding: 119 119 81
Width: 1256
Flags: W
LayerCount: 2
Fore
SplineSet
175 778 m 1,0,-1
 502 778 l 1,1,-1
 495 746 l 1,2,3
 449 743 449 743 432.5 730 c 128,-1,4
 416 717 416 717 411 694 c 0,5,6
 406 667 406 667 411 630 c 2,7,-1
 483 183 l 1,8,-1
 727 547 l 1,9,-1
 707 661 l 2,10,11
 698 713 698 713 669 733 c 0,12,13
 654 744 654 744 603 746 c 1,14,-1
 608 778 l 1,15,-1
 979 778 l 1,16,-1
 972 746 l 1,17,18
 912 744 912 744 880 724 c 0,19,20
 861 712 861 712 855 681 c 0,21,22
 853 664 853 664 855 646 c 2,23,-1
 936 199 l 1,24,-1
 1192 630 l 2,25,26
 1220 676 1220 676 1224 702 c 0,27,28
 1229 719 1229 719 1214.5 732 c 128,-1,29
 1200 745 1200 745 1152 746 c 1,30,-1
 1159 778 l 1,31,-1
 1404 778 l 1,32,-1
 1397 746 l 1,33,34
 1321 736 1321 736 1267 646 c 2,35,-1
 867 -23 l 1,36,-1
 832 -23 l 1,37,-1
 741 473 l 1,38,-1
 409 -23 l 1,39,-1
 378 -23 l 1,40,-1
 267 630 l 2,41,42
 255 692 255 692 236.5 714 c 128,-1,43
 218 736 218 736 169 746 c 1,44,-1
 175 778 l 1,0,-1
EndSplineSet
EndChar

StartChar: x
Encoding: 120 120 82
Width: 869
Flags: W
LayerCount: 2
Fore
SplineSet
188 778 m 1,0,-1
 552 778 l 1,1,-1
 547 746 l 1,2,3
 513 746 513 746 496 734.5 c 128,-1,4
 479 723 479 723 474 702 c 0,5,6
 470 682 470 682 491 640 c 0,7,8
 498 626 498 626 510 597 c 2,9,-1
 548 509 l 1,10,-1
 629 597 l 2,11,12
 707 681 707 681 713 703 c 0,13,14
 716 722 716 722 704.5 734 c 128,-1,15
 693 746 693 746 661 746 c 1,16,-1
 667 778 l 1,17,-1
 931 778 l 1,18,-1
 925 746 l 1,19,20
 881 744 881 744 847 724 c 0,21,22
 799 694 799 694 705 597 c 2,23,-1
 570 455 l 1,24,-1
 704 177 l 2,25,26
 754 75 754 75 780.5 54 c 128,-1,27
 807 33 807 33 855 31 c 1,28,-1
 848 0 l 1,29,-1
 482 0 l 1,30,-1
 488 31 l 1,31,32
 526 31 526 31 550 47 c 0,33,34
 569 59 569 59 572 78 c 0,35,36
 577 99 577 99 540 177 c 2,37,-1
 461 344 l 1,38,-1
 300 177 l 2,39,40
 227 100 227 100 224 86 c 0,41,42
 219 65 219 65 235 48.5 c 128,-1,43
 251 32 251 32 289 31 c 1,44,-1
 283 0 l 1,45,-1
 29 0 l 1,46,-1
 35 31 l 1,47,48
 66 35 66 35 94 53 c 0,49,50
 131 77 131 77 229 177 c 2,51,-1
 437 394 l 1,52,-1
 334 607 l 2,53,54
 291 700 291 700 261.5 723 c 128,-1,55
 232 746 232 746 182 746 c 1,56,-1
 188 778 l 1,0,-1
EndSplineSet
EndChar

StartChar: y
Encoding: 121 121 83
Width: 869
Flags: W
LayerCount: 2
Fore
SplineSet
175 778 m 1,0,-1
 537 778 l 1,1,-1
 530 746 l 1,2,-1
 513 746 l 2,3,4
 474 746 474 746 451.5 730 c 128,-1,5
 429 714 429 714 424 689 c 0,6,7
 417 656 417 656 432 596 c 2,8,-1
 539 206 l 1,9,-1
 804 635 l 2,10,11
 825 668 825 668 833 702 c 0,12,13
 836 718 836 718 832 725 c 0,14,15
 828 736 828 736 814.5 741 c 128,-1,16
 801 746 801 746 763 746 c 1,17,-1
 771 778 l 1,18,-1
 1024 778 l 1,19,-1
 1018 746 l 1,20,21
 985 743 985 743 966 733 c 128,-1,22
 947 723 947 723 921 694 c 0,23,24
 911 682 911 682 878 629 c 2,25,-1
 395 -147 l 2,26,27
 326 -260 326 -260 239.5 -317.5 c 128,-1,28
 153 -375 153 -375 84 -375 c 0,29,30
 34 -375 34 -375 8 -346 c 128,-1,31
 -18 -317 -18 -317 -9 -279 c 0,32,33
 -1 -244 -1 -244 26 -222.5 c 128,-1,34
 53 -201 53 -201 95 -201 c 0,35,36
 122 -201 122 -201 168 -219 c 0,37,38
 198 -232 198 -232 207 -232 c 0,39,40
 232 -232 232 -232 267 -206 c 128,-1,41
 302 -180 302 -180 350 -103 c 2,42,-1
 433 31 l 1,43,-1
 278 618 l 2,44,45
 272 642 272 642 253 682 c 0,46,47
 238 713 238 713 227 723 c 0,48,49
 209 737 209 737 169 746 c 1,50,-1
 175 778 l 1,0,-1
EndSplineSet
EndChar

StartChar: z
Encoding: 122 122 84
Width: 772
Flags: W
LayerCount: 2
Fore
SplineSet
780 239 m 1,0,-1
 721 0 l 1,1,-1
 35 0 l 1,2,-1
 41 31 l 1,3,-1
 702 718 l 1,4,-1
 448 718 l 2,5,6
 366 718 366 718 338.5 707.5 c 128,-1,7
 311 697 311 697 288 667 c 0,8,9
 256 625 256 625 240 562 c 1,10,-1
 207 562 l 1,11,-1
 255 778 l 1,12,-1
 909 778 l 1,13,-1
 901 746 l 1,14,-1
 234 57 l 1,15,-1
 518 57 l 2,16,17
 607 57 607 57 642.5 72 c 128,-1,18
 678 87 678 87 703 123 c 0,19,20
 724 151 724 151 751 239 c 1,21,-1
 780 239 l 1,0,-1
EndSplineSet
EndChar

StartChar: braceleft
Encoding: 123 123 85
Width: 834
Flags: W
LayerCount: 2
Fore
SplineSet
640 -347 m 1,0,-1
 634 -375 l 1,1,2
 495 -355 495 -355 427 -259.5 c 128,-1,3
 359 -164 359 -164 384 -50 c 0,4,5
 396 13 396 13 433.5 94 c 128,-1,6
 471 175 471 175 480 219 c 0,7,8
 493 280 493 280 453 333.5 c 128,-1,9
 413 387 413 387 324 399 c 1,10,-1
 331 433 l 1,11,12
 426 446 426 446 488 498 c 128,-1,13
 550 550 550 550 563 614 c 0,14,15
 572 658 572 658 570.5 739 c 128,-1,16
 569 820 569 820 582 880 c 0,17,18
 606 996 606 996 715 1092 c 128,-1,19
 824 1188 824 1188 970 1208 c 1,20,-1
 964 1178 l 1,21,22
 859 1153 859 1153 801.5 1099.5 c 128,-1,23
 744 1046 744 1046 730 982 c 0,24,25
 719 932 719 932 721 849.5 c 128,-1,26
 723 767 723 767 712 711 c 0,27,28
 692 624 692 624 612 543.5 c 128,-1,29
 532 463 532 463 397 419 c 1,30,31
 510 373 510 373 557 291 c 128,-1,32
 604 209 604 209 585 123 c 0,33,34
 574 65 574 65 538 -17 c 128,-1,35
 502 -99 502 -99 490 -149 c 0,36,37
 477 -213 477 -213 511.5 -267 c 128,-1,38
 546 -321 546 -321 640 -347 c 1,0,-1
EndSplineSet
EndChar

StartChar: bar
Encoding: 124 124 86
Width: 348
Flags: W
LayerCount: 2
Fore
SplineSet
463 1208 m 1,0,-1
 125 -375 l 1,1,-1
 56 -375 l 1,2,-1
 393 1208 l 1,3,-1
 463 1208 l 1,0,-1
EndSplineSet
EndChar

StartChar: asciitilde
Encoding: 126 126 87
Width: 939
Flags: W
LayerCount: 2
Fore
SplineSet
1007 572 m 1,0,-1
 1044 572 l 1,1,2
 1016 463 1016 463 943.5 400 c 128,-1,3
 871 337 871 337 785 337 c 0,4,5
 747 337 747 337 704.5 350.5 c 128,-1,6
 662 364 662 364 491 441 c 0,7,8
 372 494 372 494 317 494 c 0,9,10
 257 494 257 494 208 458 c 128,-1,11
 159 422 159 422 125 339 c 1,12,-1
 89 339 l 1,13,14
 118 453 118 453 189 514 c 128,-1,15
 260 575 260 575 337 575 c 0,16,17
 374 575 374 575 410 563 c 0,18,19
 493 538 493 538 625 476.5 c 128,-1,20
 757 415 757 415 815 415 c 0,21,22
 878 415 878 415 930 456 c 128,-1,23
 982 497 982 497 1007 572 c 1,0,-1
EndSplineSet
EndChar

StartChar: ccedilla
Encoding: 231 231 90
Width: 805
Flags: W
LayerCount: 2
Fore
SplineSet
775 198 m 1,0,-1
 764 142 l 1,1,2
 616 37 616 37 445 -9 c 1,3,-1
 408 -65 l 1,4,5
 481 -86 481 -86 481 -146 c 0,6,7
 481 -197 481 -197 424.5 -240.5 c 128,-1,8
 368 -284 368 -284 301 -284 c 0,9,10
 272 -284 272 -284 232 -277 c 1,11,-1
 287 -201 l 1,12,13
 322 -223 322 -223 348 -223 c 0,14,15
 412 -223 412 -223 412 -172 c 0,16,17
 412 -117 412 -117 311 -111 c 1,18,-1
 376 -19 l 1,19,20
 145 5 145 5 145 228 c 0,21,22
 145 445 145 445 302 622 c 128,-1,23
 459 799 459 799 652 799 c 0,24,25
 736 799 736 799 819 762 c 1,26,-1
 770 578 l 1,27,-1
 725 578 l 1,28,-1
 728 589 l 2,29,30
 735 622 735 622 735 638 c 0,31,32
 735 737 735 737 599 737 c 0,33,34
 475 737 475 737 382.5 595 c 128,-1,35
 290 453 290 453 290 263 c 0,36,37
 290 62 290 62 446 62 c 0,38,39
 563 62 563 62 775 198 c 1,0,-1
EndSplineSet
EndChar

StartChar: icircumflex
Encoding: 238 238 95
Width: 468
Flags: W
LayerCount: 2
Fore
SplineSet
328 0 m 1,0,-1
 140 0 l 1,1,-1
 140 1117 l 1,2,-1
 328 1117 l 1,3,-1
 328 0 l 1,0,-1
521 1297 m 1,4,-1
 370 1297 l 1,5,-1
 231 1560 l 1,6,-1
 93 1297 l 1,7,-1
 -54 1297 l 1,8,-1
 120 1676 l 1,9,-1
 347 1676 l 1,10,-1
 521 1297 l 1,4,-1
EndSplineSet
EndChar

StartChar: idieresis
Encoding: 239 239 96
Width: 468
Flags: W
LayerCount: 2
Fore
SplineSet
328 0 m 1,0,-1
 140 0 l 1,1,-1
 140 1117 l 1,2,-1
 328 1117 l 1,3,-1
 328 0 l 1,0,-1
506 1304 m 1,4,-1
 317 1304 l 1,5,-1
 317 1499 l 1,6,-1
 506 1499 l 1,7,-1
 506 1304 l 1,4,-1
151 1304 m 1,8,-1
 -38 1304 l 1,9,-1
 -38 1499 l 1,10,-1
 151 1499 l 1,11,-1
 151 1304 l 1,8,-1
EndSplineSet
EndChar

StartChar: dagger
Encoding: 8224 8224 101
Width: 932
Flags: W
LayerCount: 2
Fore
SplineSet
347 -231 m 1,0,-1
 567 622 l 1,1,-1
 248 592 l 1,2,-1
 297 700 l 1,3,-1
 576 668 l 1,4,-1
 607 1066 l 1,5,-1
 755 1093 l 1,6,-1
 621 668 l 1,7,-1
 941 700 l 1,8,-1
 895 592 l 1,9,-1
 612 622 l 1,10,-1
 496 -213 l 1,11,-1
 347 -231 l 1,0,-1
EndSplineSet
EndChar

StartChar: degree
Encoding: 176 176 102
Width: 409
Flags: W
LayerCount: 2
Fore
SplineSet
395 844 m 0,0,1
 344 844 344 844 307.5 880 c 128,-1,2
 271 916 271 916 271 968 c 0,3,4
 271 1021 271 1021 307.5 1057 c 128,-1,5
 344 1093 344 1093 395 1093 c 0,6,7
 447 1093 447 1093 483 1057 c 128,-1,8
 519 1021 519 1021 519 968 c 0,9,10
 519 916 519 916 483 880 c 128,-1,11
 447 844 447 844 395 844 c 0,0,1
395 888 m 256,12,13
 427 888 427 888 450.5 912 c 128,-1,14
 474 936 474 936 474 968 c 256,15,16
 474 1000 474 1000 450.5 1024 c 128,-1,17
 427 1048 427 1048 395 1048 c 256,18,19
 363 1048 363 1048 339 1024 c 128,-1,20
 315 1000 315 1000 315 968 c 256,21,22
 315 936 315 936 339 912 c 128,-1,23
 363 888 363 888 395 888 c 256,12,13
EndSplineSet
EndChar

StartChar: cent
Encoding: 162 162 103
Width: 693
Flags: W
LayerCount: 2
Fore
SplineSet
365 -18 m 1,0,-1
 404 176 l 1,1,2
 142 195 142 195 142 355 c 0,3,4
 142 459 142 459 242 534.5 c 128,-1,5
 342 610 342 610 492 622 c 1,6,-1
 527 799 l 1,7,-1
 572 799 l 1,8,-1
 537 622 l 1,9,10
 637 617 637 617 715 601 c 1,11,-1
 689 471 l 1,12,-1
 644 471 l 1,13,14
 644 477 644 477 645 488 c 0,15,16
 648 509 648 509 648 517 c 0,17,18
 648 572 648 572 528 578 c 1,19,-1
 459 229 l 1,20,21
 567 229 567 229 661 280 c 1,22,-1
 650 229 l 1,23,24
 544 176 544 176 448 176 c 1,25,-1
 409 -18 l 1,26,-1
 365 -18 l 1,0,-1
415 232 m 1,27,-1
 484 578 l 1,28,29
 272 547 272 547 272 383 c 0,30,31
 272 255 272 255 415 232 c 1,27,-1
EndSplineSet
EndChar

StartChar: sterling
Encoding: 163 163 104
Width: 874
Flags: W
LayerCount: 2
Fore
SplineSet
17 0 m 1,0,-1
 109 88 l 1,1,-1
 122 88 l 2,2,3
 229 88 229 88 272.5 136.5 c 128,-1,4
 316 185 316 185 347 343 c 2,5,-1
 356 391 l 1,6,-1
 196 391 l 1,7,-1
 205 436 l 1,8,-1
 365 436 l 1,9,-1
 378 499 l 2,10,11
 407 642 407 642 496.5 721 c 128,-1,12
 586 800 586 800 718 800 c 0,13,14
 797 800 797 800 892 765 c 1,15,-1
 858 586 l 1,16,-1
 808 586 l 1,17,-1
 810 598 l 2,18,19
 812 608 812 608 812 620 c 0,20,21
 812 746 812 746 679 746 c 0,22,23
 614 746 614 746 584.5 710 c 128,-1,24
 555 674 555 674 535 569 c 2,25,-1
 508 436 l 1,26,-1
 748 436 l 1,27,-1
 739 391 l 1,28,-1
 499 391 l 1,29,-1
 492 359 l 2,30,31
 473 265 473 265 427.5 208 c 128,-1,32
 382 151 382 151 275 88 c 1,33,-1
 480 88 l 2,34,35
 617 88 617 88 679 102.5 c 128,-1,36
 741 117 741 117 819 167 c 1,37,-1
 808 113 l 1,38,39
 735 35 735 35 665.5 7.5 c 128,-1,40
 596 -20 596 -20 470 -20 c 1,41,-1
 442 -19 l 1,42,-1
 17 0 l 1,0,-1
EndSplineSet
EndChar

StartChar: section
Encoding: 167 167 105
Width: 932
Flags: W
LayerCount: 2
Fore
SplineSet
107 -153 m 1,0,-1
 232 -80 l 1,1,2
 348 -178 348 -178 481 -178 c 0,3,4
 564 -178 564 -178 621.5 -127.5 c 128,-1,5
 679 -77 679 -77 679 -5 c 0,6,7
 679 48 679 48 645.5 80.5 c 128,-1,8
 612 113 612 113 513 160 c 2,9,-1
 440 193 l 2,10,11
 247 283 247 283 247 409 c 0,12,13
 247 528 247 528 409 652 c 1,14,15
 328 717 328 717 328 815 c 0,16,17
 328 938 328 938 440 1015.5 c 128,-1,18
 552 1093 552 1093 727 1093 c 0,19,20
 814 1093 814 1093 933 1060 c 1,21,-1
 897 879 l 1,22,-1
 853 879 l 1,23,24
 857 904 857 904 857 916 c 0,25,26
 857 1039 857 1039 652 1039 c 0,27,28
 560 1039 560 1039 500.5 987 c 128,-1,29
 441 935 441 935 441 853 c 0,30,31
 441 798 441 798 466 774.5 c 128,-1,32
 491 751 491 751 613 686 c 2,33,-1
 674 652 l 2,34,35
 854 553 854 553 854 444 c 0,36,37
 854 319 854 319 703 200 c 1,38,39
 801 136 801 136 801 40 c 0,40,41
 801 -75 801 -75 684.5 -153 c 128,-1,42
 568 -231 568 -231 397 -231 c 0,43,44
 244 -231 244 -231 107 -153 c 1,0,-1
667 229 m 1,45,46
 747 319 747 319 747 394 c 0,47,48
 747 470 747 470 628 527 c 2,49,-1
 558 562 l 2,50,51
 495 593 495 593 445 625 c 1,52,53
 355 545 355 545 355 456 c 0,54,55
 355 382 355 382 474 326 c 2,56,-1
 571 279 l 2,57,58
 607 263 607 263 667 229 c 1,45,46
EndSplineSet
EndChar

StartChar: bullet
Encoding: 8226 8226 106
Width: 931
Flags: W
LayerCount: 2
Fore
SplineSet
817 662 m 256,0,1
 817 517 817 517 713.5 414 c 128,-1,2
 610 311 610 311 465 311 c 256,3,4
 320 311 320 311 217 414 c 128,-1,5
 114 517 114 517 114 662 c 256,6,7
 114 807 114 807 217 910 c 128,-1,8
 320 1013 320 1013 465 1013 c 256,9,10
 610 1013 610 1013 713.5 910 c 128,-1,11
 817 807 817 807 817 662 c 256,0,1
EndSplineSet
EndChar

StartChar: paragraph
Encoding: 182 182 107
Width: 932
Flags: W
LayerCount: 2
Fore
SplineSet
365 -239 m 1,0,-1
 511 496 l 1,1,2
 241 542 241 542 241 747 c 0,3,4
 241 876 241 876 346.5 968 c 128,-1,5
 452 1060 452 1060 628 1085 c 1,6,-1
 660 1244 l 1,7,-1
 704 1244 l 1,8,-1
 673 1085 l 1,9,-1
 703 1086 l 2,10,11
 744 1086 744 1086 796 1080 c 1,12,-1
 828 1244 l 1,13,-1
 873 1244 l 1,14,-1
 839 1071 l 1,15,16
 891 1057 891 1057 948 1036 c 1,17,-1
 938 988 l 1,18,19
 898 1005 898 1005 830 1024 c 1,20,-1
 742 586 l 1,21,22
 794 603 794 603 869 643 c 1,23,-1
 859 586 l 1,24,25
 794 549 794 549 732 530 c 1,26,-1
 578 -239 l 1,27,-1
 534 -239 l 1,28,-1
 684 514 l 1,29,30
 597 496 597 496 556 496 c 1,31,-1
 409 -239 l 1,32,-1
 365 -239 l 1,0,-1
695 568 m 1,33,-1
 787 1031 l 1,34,35
 738 1040 738 1040 704 1040 c 0,36,37
 691 1040 691 1040 664 1039 c 1,38,-1
 567 553 l 1,39,40
 625 553 625 553 695 568 c 1,33,-1
EndSplineSet
EndChar

StartChar: registered
Encoding: 174 174 108
Width: 897
Flags: W
LayerCount: 2
Fore
SplineSet
580 445 m 0,0,1
 448 445 448 445 354.5 538.5 c 128,-1,2
 261 632 261 632 261 764 c 256,3,4
 261 896 261 896 354.5 990 c 128,-1,5
 448 1084 448 1084 580 1084 c 0,6,7
 714 1084 714 1084 807 990 c 128,-1,8
 900 896 900 896 900 764 c 256,9,10
 900 632 900 632 806.5 538.5 c 128,-1,11
 713 445 713 445 580 445 c 0,0,1
580 484 m 0,12,13
 695 484 695 484 777.5 567 c 128,-1,14
 860 650 860 650 860 764 c 256,15,16
 860 878 860 878 777.5 961 c 128,-1,17
 695 1044 695 1044 580 1044 c 0,18,19
 466 1044 466 1044 383.5 961 c 128,-1,20
 301 878 301 878 301 764 c 256,21,22
 301 650 301 650 383.5 567 c 128,-1,23
 466 484 466 484 580 484 c 0,12,13
529 737 m 1,24,-1
 501 596 l 1,25,-1
 394 596 l 1,26,-1
 403 639 l 1,27,-1
 456 639 l 1,28,-1
 511 915 l 1,29,-1
 458 915 l 1,30,-1
 466 959 l 1,31,-1
 598 959 l 2,32,33
 751 959 751 959 751 875 c 0,34,35
 751 800 751 800 650 750 c 1,36,-1
 685 639 l 1,37,-1
 747 639 l 1,38,-1
 738 596 l 1,39,-1
 641 596 l 1,40,-1
 591 737 l 1,41,-1
 529 737 l 1,24,-1
538 782 m 1,42,-1
 574 782 l 2,43,44
 697 782 697 782 697 866 c 0,45,46
 697 915 697 915 607 915 c 2,47,-1
 564 915 l 1,48,-1
 538 782 l 1,42,-1
EndSplineSet
EndChar

StartChar: copyright
Encoding: 169 169 109
Width: 1244
Flags: W
LayerCount: 2
Fore
SplineSet
725 -27 m 0,0,1
 495 -27 495 -27 330.5 137 c 128,-1,2
 166 301 166 301 166 533 c 256,3,4
 166 765 166 765 330.5 929 c 128,-1,5
 495 1093 495 1093 725 1093 c 0,6,7
 958 1093 958 1093 1122 929 c 128,-1,8
 1286 765 1286 765 1286 533 c 256,9,10
 1286 301 1286 301 1122 137 c 128,-1,11
 958 -27 958 -27 725 -27 c 0,0,1
725 18 m 0,12,13
 939 18 939 18 1090 169 c 128,-1,14
 1241 320 1241 320 1241 533 c 256,15,16
 1241 746 1241 746 1090 897 c 128,-1,17
 939 1048 939 1048 725 1048 c 0,18,19
 513 1048 513 1048 362 897 c 128,-1,20
 211 746 211 746 211 533 c 256,21,22
 211 320 211 320 362 169 c 128,-1,23
 513 18 513 18 725 18 c 0,12,13
890 246 m 1,24,25
 785 213 785 213 704 213 c 0,26,27
 580 213 580 213 508 279.5 c 128,-1,28
 436 346 436 346 436 462 c 0,29,30
 436 625 436 625 541 734.5 c 128,-1,31
 646 844 646 844 805 844 c 0,32,33
 896 844 896 844 1003 814 c 1,34,-1
 967 675 l 1,35,-1
 915 684 l 1,36,-1
 923 766 l 1,37,38
 854 798 854 798 792 798 c 0,39,40
 688 798 688 798 616 700 c 128,-1,41
 544 602 544 602 544 462 c 0,42,43
 544 271 544 271 722 271 c 0,44,45
 823 271 823 271 902 307 c 1,46,-1
 890 246 l 1,24,25
EndSplineSet
EndChar

StartChar: trademark
Encoding: 8482 8482 110
Width: 1333
Flags: W
LayerCount: 2
Fore
SplineSet
440 1021 m 1,0,-1
 307 1021 l 1,1,-1
 288 923 l 1,2,-1
 225 923 l 1,3,-1
 254 1066 l 1,4,-1
 751 1066 l 1,5,-1
 723 923 l 1,6,-1
 661 923 l 1,7,-1
 679 1021 l 1,8,-1
 546 1021 l 1,9,-1
 456 569 l 1,10,-1
 554 569 l 1,11,-1
 545 524 l 1,12,-1
 243 524 l 1,13,-1
 253 569 l 1,14,-1
 350 569 l 1,15,-1
 440 1021 l 1,0,-1
1011 569 m 1,16,-1
 942 956 l 1,17,-1
 857 524 l 1,18,-1
 688 524 l 1,19,-1
 697 569 l 1,20,-1
 794 569 l 1,21,-1
 884 1021 l 1,22,-1
 787 1021 l 1,23,-1
 796 1066 l 1,24,-1
 1036 1066 l 1,25,-1
 1092 747 l 1,26,-1
 1265 1066 l 1,27,-1
 1481 1066 l 1,28,-1
 1473 1021 l 1,29,-1
 1375 1021 l 1,30,-1
 1285 569 l 1,31,-1
 1383 569 l 1,32,-1
 1373 524 l 1,33,-1
 1178 524 l 1,34,-1
 1270 985 l 1,35,-1
 1041 569 l 1,36,-1
 1011 569 l 1,16,-1
EndSplineSet
EndChar

StartChar: acute
Encoding: 180 180 111
Width: 256
Flags: W
LayerCount: 2
Fore
SplineSet
118 999 m 1,0,1
 195 1083 195 1083 192 1046 c 1,2,3
 183 1014 183 1014 135.5 924 c 128,-1,4
 88 834 88 834 66 802 c 1,5,6
 55 796 55 796 62 848 c 1,7,8
 83 919 83 919 118 999 c 1,0,1
EndSplineSet
EndChar

StartChar: dieresis
Encoding: 168 168 112
Width: 862
Flags: W
LayerCount: 2
Fore
SplineSet
495 923 m 1,0,-1
 408 1033 l 1,1,-1
 520 1119 l 1,2,-1
 607 1003 l 1,3,-1
 495 923 l 1,0,-1
841 923 m 1,4,-1
 752 1035 l 1,5,-1
 866 1119 l 1,6,-1
 951 1004 l 1,7,-1
 841 923 l 1,4,-1
EndSplineSet
EndChar

StartChar: plusminus
Encoding: 177 177 113
Width: 932
Flags: W
LayerCount: 2
Fore
SplineSet
76 0 m 1,0,-1
 92 80 l 1,1,-1
 873 80 l 1,2,-1
 858 0 l 1,3,-1
 76 0 l 1,0,-1
469 213 m 1,4,-1
 525 493 l 1,5,-1
 174 493 l 1,6,-1
 189 573 l 1,7,-1
 541 573 l 1,8,-1
 596 852 l 1,9,-1
 676 852 l 1,10,-1
 621 573 l 1,11,-1
 971 573 l 1,12,-1
 956 493 l 1,13,-1
 605 493 l 1,14,-1
 549 213 l 1,15,-1
 469 213 l 1,4,-1
EndSplineSet
EndChar

StartChar: yen
Encoding: 165 165 114
Width: 965
Flags: W
LayerCount: 2
Fore
SplineSet
156 0 m 1,0,-1
 247 99 l 1,1,2
 269 97 269 97 279 97 c 0,3,4
 415 97 415 97 477 257 c 1,5,-1
 272 257 l 1,6,-1
 280 301 l 1,7,-1
 489 301 l 1,8,9
 495 346 495 346 499 409 c 1,10,-1
 301 409 l 1,11,-1
 310 453 l 1,12,-1
 499 453 l 1,13,14
 499 465 499 465 499 470 c 0,15,16
 499 567 499 567 463.5 631 c 128,-1,17
 428 695 428 695 375 695 c 256,18,19
 322 695 322 695 250 638 c 128,-1,20
 178 581 178 581 139 509 c 1,21,-1
 106 534 l 1,22,23
 172 650 172 650 268.5 724.5 c 128,-1,24
 365 799 365 799 452 799 c 0,25,26
 612 799 612 799 612 518 c 1,27,-1
 611 472 l 1,28,29
 736 799 736 799 971 799 c 0,30,31
 1045 799 1045 799 1100 765 c 1,32,-1
 1016 653 l 1,33,34
 967 684 967 684 915 684 c 0,35,36
 742 684 742 684 651 453 c 1,37,-1
 835 453 l 1,38,-1
 826 409 l 1,39,-1
 643 409 l 1,40,-1
 634 369 l 2,41,42
 627 335 627 335 609 301 c 1,43,-1
 805 301 l 1,44,-1
 796 257 l 1,45,-1
 585 257 l 1,46,47
 519 138 519 138 389 91 c 1,48,-1
 624 77 l 1,49,-1
 534 -18 l 1,50,-1
 156 0 l 1,0,-1
EndSplineSet
EndChar

StartChar: mu1
Encoding: 181 181 115
Width: 992
Flags: W
LayerCount: 2
Fore
SplineSet
100 -302 m 1,0,-1
 155 -76 l 1,1,-1
 270 500 l 2,2,3
 282 560 282 560 282 611 c 0,4,5
 282 693 282 693 206 782 c 1,6,-1
 368 790 l 1,7,8
 427 740 427 740 427 623 c 0,9,10
 427 576 427 576 409 481 c 2,11,-1
 355 213 l 2,12,13
 347 176 347 176 347 161 c 0,14,15
 347 106 347 106 391 106 c 0,16,17
 446 106 446 106 553.5 229 c 128,-1,18
 661 352 661 352 753 519 c 1,19,-1
 805 782 l 1,20,-1
 958 790 l 1,21,-1
 905 569 l 1,22,-1
 834 213 l 2,23,24
 818 132 818 132 818 106 c 0,25,26
 818 53 818 53 861 53 c 0,27,28
 931 53 931 53 1075 218 c 1,29,-1
 1062 151 l 1,30,31
 905 -18 905 -18 779 -18 c 0,32,33
 675 -18 675 -18 675 91 c 0,34,35
 675 128 675 128 692 213 c 2,36,-1
 727 391 l 1,37,-1
 717 391 l 1,38,39
 517 0 517 0 312 0 c 1,40,-1
 255 -284 l 1,41,-1
 100 -302 l 1,0,-1
EndSplineSet
EndChar

StartChar: logicalnot
Encoding: 172 172 116
Width: 932
Flags: W
LayerCount: 2
Fore
SplineSet
177 510 m 1,0,-1
 193 590 l 1,1,-1
 975 590 l 1,2,-1
 906 248 l 1,3,-1
 814 248 l 1,4,-1
 866 510 l 1,5,-1
 177 510 l 1,0,-1
EndSplineSet
EndChar

StartChar: florin
Encoding: 402 402 117
Width: 679
Flags: W
LayerCount: 2
Fore
SplineSet
158 -231 m 1,0,-1
 210 -18 l 1,1,-1
 286 364 l 1,2,-1
 108 364 l 1,3,-1
 117 409 l 1,4,-1
 294 409 l 1,5,-1
 298 427 l 2,6,7
 330 586 330 586 463 692.5 c 128,-1,8
 596 799 596 799 761 799 c 0,9,10
 818 799 818 799 860 784 c 1,11,-1
 764 678 l 1,12,13
 712 729 712 729 643 729 c 0,14,15
 500 729 500 729 457 512 c 2,16,-1
 436 409 l 1,17,-1
 623 409 l 1,18,-1
 614 364 l 1,19,-1
 427 364 l 1,20,-1
 313 -213 l 1,21,-1
 158 -231 l 1,0,-1
EndSplineSet
EndChar

StartChar: ellipsis
Encoding: 8230 8230 118
Width: 1474
Flags: W
LayerCount: 2
Fore
SplineSet
178 0 m 1,0,-1
 206 142 l 1,1,-1
 348 142 l 1,2,-1
 319 0 l 1,3,-1
 178 0 l 1,0,-1
667 0 m 1,4,-1
 695 142 l 1,5,-1
 837 142 l 1,6,-1
 808 0 l 1,7,-1
 667 0 l 1,4,-1
1155 0 m 1,8,-1
 1183 142 l 1,9,-1
 1326 142 l 1,10,-1
 1297 0 l 1,11,-1
 1155 0 l 1,8,-1
EndSplineSet
EndChar

StartChar: OE
Encoding: 338 338 119
Width: 1477
Flags: W
LayerCount: 2
Fore
SplineSet
816 0 m 1,0,-1
 831 70 l 1,1,2
 711 -27 711 -27 549 -27 c 0,3,4
 371 -27 371 -27 269 81 c 128,-1,5
 167 189 167 189 167 378 c 0,6,7
 167 661 167 661 358 877 c 128,-1,8
 549 1093 549 1093 799 1093 c 0,9,10
 931 1093 931 1093 1017 1007 c 1,11,-1
 1029 1066 l 1,12,-1
 1593 1066 l 1,13,-1
 1529 862 l 1,14,-1
 1484 862 l 1,15,16
 1490 891 1490 891 1490 913 c 0,17,18
 1490 969 1490 969 1424.5 990.5 c 128,-1,19
 1359 1012 1359 1012 1187 1012 c 2,20,-1
 1165 1012 l 1,21,-1
 1082 586 l 1,22,-1
 1402 586 l 1,23,-1
 1329 512 l 1,24,25
 1165 533 1165 533 1107 533 c 2,26,-1
 1071 533 l 1,27,-1
 1012 218 l 2,28,29
 1002 167 1002 167 1002 156 c 0,30,31
 1002 80 1002 80 1228 80 c 0,32,33
 1348 80 1348 80 1453 160 c 1,34,-1
 1442 103 l 1,35,36
 1318 -23 1318 -23 1203 -23 c 0,37,38
 1183 -23 1183 -23 1161 -21 c 2,39,-1
 816 0 l 1,0,-1
888 361 m 2,40,-1
 961 723 l 2,41,42
 974 786 974 786 974 841 c 0,43,44
 974 933 974 933 916.5 990.5 c 128,-1,45
 859 1048 859 1048 769 1048 c 0,46,47
 604 1048 604 1048 466.5 844 c 128,-1,48
 329 640 329 640 329 395 c 0,49,50
 329 218 329 218 396.5 117.5 c 128,-1,51
 464 17 464 17 585 17 c 0,52,53
 818 17 818 17 888 361 c 2,40,-1
EndSplineSet
EndChar

StartChar: oe
Encoding: 339 339 120
Width: 1350
Flags: W
LayerCount: 2
Fore
SplineSet
706 145 m 1,0,1
 535 -18 535 -18 370 -18 c 0,2,3
 273 -18 273 -18 209 55 c 128,-1,4
 145 128 145 128 145 237 c 0,5,6
 145 448 145 448 302.5 623.5 c 128,-1,7
 460 799 460 799 650 799 c 0,8,9
 794 799 794 799 859 630 c 1,10,11
 1025 799 1025 799 1183 799 c 0,12,13
 1246 799 1246 799 1286.5 758 c 128,-1,14
 1327 717 1327 717 1327 651 c 0,15,16
 1327 508 1327 508 1192.5 414 c 128,-1,17
 1058 320 1058 320 841 311 c 1,18,-1
 840 278 l 1,19,20
 840 66 840 66 998 66 c 0,21,22
 1113 66 1113 66 1327 200 c 1,23,-1
 1316 146 l 1,24,25
 1083 -18 1083 -18 917 -18 c 0,26,27
 758 -18 758 -18 706 145 c 1,0,1
431 35 m 0,28,29
 544 35 544 35 636 178.5 c 128,-1,30
 728 322 728 322 728 499 c 0,31,32
 728 607 728 607 689 672 c 128,-1,33
 650 737 650 737 584 737 c 0,34,35
 472 737 472 737 382 594 c 128,-1,36
 292 451 292 451 292 272 c 0,37,38
 292 35 292 35 431 35 c 0,28,29
844 355 m 1,39,40
 1004 368 1004 368 1097.5 438.5 c 128,-1,41
 1191 509 1191 509 1191 620 c 0,42,43
 1191 733 1191 733 1110 733 c 0,44,45
 1024 733 1024 733 941.5 616 c 128,-1,46
 859 499 859 499 844 355 c 1,39,40
EndSplineSet
EndChar

StartChar: endash
Encoding: 8211 8211 121
Width: 434
Flags: W
LayerCount: 2
Fore
SplineSet
434 154 m 1,0,-1
 0 154 l 1,1,-1
 0 234 l 1,2,-1
 434 234 l 1,3,-1
 434 154 l 1,0,-1
EndSplineSet
EndChar

StartChar: emdash
Encoding: 8212 8212 122
Width: 1862
Flags: W
LayerCount: 2
Fore
SplineSet
1866 572 m 1,0,-1
 -4 572 l 1,1,-1
 -4 732 l 1,2,-1
 1866 732 l 1,3,-1
 1866 572 l 1,0,-1
EndSplineSet
EndChar

StartChar: quotedblleft
Encoding: 8220 8220 123
Width: 602
Flags: W
LayerCount: 2
Fore
SplineSet
32 1076 m 1,0,1
 4 1047 4 1047 -13.5 1014 c 128,-1,2
 -31 981 -31 981 -21 935 c 0,3,4
 -16 909 -16 909 -1.5 878.5 c 128,-1,5
 13 848 13 848 21 813 c 0,6,7
 26 786 26 786 14 764.5 c 128,-1,8
 2 743 2 743 -24 743 c 0,9,10
 -45 743 -45 743 -61 751 c 128,-1,11
 -77 759 -77 759 -88.5 772.5 c 128,-1,12
 -100 786 -100 786 -107 803.5 c 128,-1,13
 -114 821 -114 821 -118 841 c 0,14,15
 -127 881 -127 881 -118.5 919 c 128,-1,16
 -110 957 -110 957 -91 989.5 c 128,-1,17
 -72 1022 -72 1022 -44.5 1048.5 c 128,-1,18
 -17 1075 -17 1075 13 1092 c 1,19,-1
 32 1076 l 1,0,1
288 1076 m 1,20,21
 261 1047 261 1047 245 1014.5 c 128,-1,22
 229 982 229 982 238 935 c 0,23,24
 244 909 244 909 258 878.5 c 128,-1,25
 272 848 272 848 280 813 c 0,26,27
 286 786 286 786 273.5 764.5 c 128,-1,28
 261 743 261 743 235 743 c 0,29,30
 213 743 213 743 196.5 751 c 128,-1,31
 180 759 180 759 168 772.5 c 128,-1,32
 156 786 156 786 148.5 803.5 c 128,-1,33
 141 821 141 821 137 841 c 0,34,35
 129 880 129 880 137.5 918.5 c 128,-1,36
 146 957 146 957 165.5 990 c 128,-1,37
 185 1023 185 1023 213 1049.5 c 128,-1,38
 241 1076 241 1076 272 1092 c 1,39,-1
 288 1076 l 1,20,21
EndSplineSet
EndChar

StartChar: quotedblright
Encoding: 8221 8221 124
Width: 602
Flags: W
LayerCount: 2
Fore
SplineSet
184 745 m 1,0,1
 198 759 198 759 210 774 c 128,-1,2
 222 789 222 789 229.5 805.5 c 128,-1,3
 237 822 237 822 239.5 841.5 c 128,-1,4
 242 861 242 861 237 884 c 0,5,6
 231 910 231 910 216.5 940 c 128,-1,7
 202 970 202 970 194 1008 c 0,8,9
 189 1035 189 1035 201 1056 c 128,-1,10
 213 1077 213 1077 237 1077 c 0,11,12
 282 1077 282 1077 304.5 1048.5 c 128,-1,13
 327 1020 327 1020 336 980 c 0,14,15
 345 939 345 939 336 901 c 128,-1,16
 327 863 327 863 306.5 830.5 c 128,-1,17
 286 798 286 798 258 771.5 c 128,-1,18
 230 745 230 745 200 729 c 1,19,-1
 184 745 l 1,0,1
-75 745 m 1,20,21
 -61 759 -61 759 -49 774 c 128,-1,22
 -37 789 -37 789 -30 805.5 c 128,-1,23
 -23 822 -23 822 -21 841.5 c 128,-1,24
 -19 861 -19 861 -24 884 c 0,25,26
 -29 910 -29 910 -43 940 c 128,-1,27
 -57 970 -57 970 -65 1008 c 0,28,29
 -70 1035 -70 1035 -58.5 1056 c 128,-1,30
 -47 1077 -47 1077 -20 1077 c 0,31,32
 24 1077 24 1077 46 1048.5 c 128,-1,33
 68 1020 68 1020 76 980 c 0,34,35
 85 939 85 939 76 901 c 128,-1,36
 67 863 67 863 47.5 830 c 128,-1,37
 28 797 28 797 0 771 c 128,-1,38
 -28 745 -28 745 -58 729 c 1,39,-1
 -75 745 l 1,20,21
EndSplineSet
EndChar

StartChar: divide
Encoding: 247 247 125
Width: 995
Flags: W
LayerCount: 2
Fore
SplineSet
568 613 m 1,0,-1
 424 613 l 1,1,-1
 424 778 l 1,2,-1
 568 778 l 1,3,-1
 568 613 l 1,0,-1
849 349 m 1,4,-1
 143 349 l 1,5,-1
 143 445 l 1,6,-1
 849 445 l 1,7,-1
 849 349 l 1,4,-1
568 15 m 1,8,-1
 424 15 l 1,9,-1
 424 180 l 1,10,-1
 568 180 l 1,11,-1
 568 15 l 1,8,-1
EndSplineSet
EndChar

StartChar: lozenge
Encoding: 9674 9674 126
Width: 1118
Flags: W
LayerCount: 2
Fore
SplineSet
854 699 m 1,0,-1
 518 197 l 1,1,-1
 -31 699 l 1,2,-1
 304 1202 l 1,3,-1
 854 699 l 1,0,-1
699 699 m 1,4,-1
 339 1036 l 1,5,-1
 122 699 l 1,6,-1
 482 364 l 1,7,-1
 699 699 l 1,4,-1
EndSplineSet
EndChar

StartChar: Euro
Encoding: 8364 8364 128
Width: 812
Flags: W
LayerCount: 2
Fore
SplineSet
210 464 m 1,0,1
 252 596 252 596 371.5 697.5 c 128,-1,2
 491 799 491 799 674 799 c 0,3,4
 773 799 773 799 885 769 c 1,5,-1
 845 624 l 1,6,-1
 795 624 l 1,7,8
 801 653 801 653 801 665 c 0,9,10
 801 701 801 701 757 726 c 128,-1,11
 713 751 713 751 649 751 c 0,12,13
 445 751 445 751 349 464 c 1,14,-1
 686 464 l 1,15,-1
 677 420 l 1,16,-1
 337 420 l 2,17,18
 335 418 335 418 332 404 c 2,19,-1
 325 365 l 1,20,-1
 325 360 l 1,21,-1
 665 360 l 1,22,-1
 656 315 l 1,23,-1
 319 315 l 1,24,-1
 319 289 l 2,25,26
 319 178 319 178 370 115.5 c 128,-1,27
 421 53 421 53 512 53 c 0,28,29
 636 53 636 53 765 135 c 1,30,-1
 755 72 l 1,31,32
 604 -18 604 -18 459 -18 c 0,33,34
 324 -18 324 -18 249.5 59 c 128,-1,35
 175 136 175 136 175 274 c 0,36,37
 175 300 175 300 175 315 c 1,38,-1
 111 315 l 1,39,-1
 120 360 l 1,40,-1
 182 360 l 1,41,-1
 182 364 l 1,42,43
 189 401 189 401 194 420 c 1,44,-1
 118 420 l 1,45,-1
 127 464 l 1,46,-1
 210 464 l 1,0,1
EndSplineSet
EndChar

StartChar: guilsinglleft
Encoding: 8249 8249 129
Width: 560
Flags: W
LayerCount: 2
Fore
SplineSet
375 71 m 1,0,1
 304 237 304 237 167 391 c 1,2,3
 358 507 358 507 437 653 c 1,4,-1
 587 711 l 1,5,6
 536 589 536 589 315 441 c 1,7,8
 423 310 423 310 499 138 c 1,9,-1
 375 71 l 1,0,1
EndSplineSet
EndChar

StartChar: guilsinglright
Encoding: 8250 8250 130
Width: 560
Flags: W
LayerCount: 2
Fore
SplineSet
339 711 m 1,0,1
 410 545 410 545 546 391 c 1,2,3
 356 275 356 275 276 128 c 1,4,-1
 128 71 l 1,5,6
 178 193 178 193 400 341 c 1,7,8
 293 470 293 470 215 643 c 1,9,-1
 339 711 l 1,0,1
EndSplineSet
EndChar

StartChar: daggerdbl
Encoding: 8225 8225 133
Width: 932
Flags: W
LayerCount: 2
Fore
SplineSet
349 -231 m 1,0,-1
 481 185 l 1,1,-1
 161 154 l 1,2,-1
 211 261 l 1,3,-1
 490 229 l 1,4,-1
 567 616 l 1,5,-1
 247 586 l 1,6,-1
 297 693 l 1,7,-1
 575 661 l 1,8,-1
 608 1066 l 1,9,-1
 758 1093 l 1,10,-1
 620 661 l 1,11,-1
 940 693 l 1,12,-1
 889 586 l 1,13,-1
 611 616 l 1,14,-1
 535 229 l 1,15,-1
 855 261 l 1,16,-1
 804 154 l 1,17,-1
 525 185 l 1,18,-1
 499 -213 l 1,19,-1
 349 -231 l 1,0,-1
EndSplineSet
EndChar

StartChar: middot.001
Encoding: 8729 8729 134
Width: 620
Flags: W
LayerCount: 2
Fore
SplineSet
319 516 m 1,0,-1
 80 516 l 1,1,-1
 22 789 l 1,2,-1
 261 789 l 1,3,-1
 319 516 l 1,0,-1
EndSplineSet
EndChar

StartChar: quotesinglbase
Encoding: 8218 8218 135
Width: 380
Flags: W
LayerCount: 2
Fore
SplineSet
94 116 m 1,0,-1
 225 210 l 1,1,-1
 321 82 l 1,2,3
 314 -51 314 -51 239 -122.5 c 128,-1,4
 164 -194 164 -194 33 -194 c 1,5,-1
 69 -153 l 1,6,7
 172 -144 172 -144 192 -16 c 1,8,-1
 94 116 l 1,0,-1
EndSplineSet
EndChar

StartChar: quotedblbase
Encoding: 8222 8222 136
Width: 684
Flags: W
LayerCount: 2
Fore
SplineSet
91 92 m 1,0,-1
 204 178 l 1,1,-1
 292 64 l 1,2,3
 270 -213 270 -213 31 -213 c 1,4,-1
 60 -168 l 1,5,6
 166 -148 166 -148 179 -16 c 1,7,-1
 91 92 l 1,0,-1
401 92 m 1,8,-1
 516 178 l 1,9,-1
 602 64 l 1,10,11
 581 -213 581 -213 341 -213 c 1,12,-1
 372 -168 l 1,13,14
 476 -148 476 -148 490 -16 c 1,15,-1
 401 92 l 1,8,-1
EndSplineSet
EndChar

StartChar: perthousand
Encoding: 8240 8240 137
Width: 1571
Flags: W
LayerCount: 2
Fore
SplineSet
385 533 m 0,0,1
 304 533 304 533 254.5 584.5 c 128,-1,2
 205 636 205 636 205 722 c 0,3,4
 205 865 205 865 286.5 965.5 c 128,-1,5
 368 1066 368 1066 483 1066 c 0,6,7
 567 1066 567 1066 617.5 1014.5 c 128,-1,8
 668 963 668 963 668 877 c 0,9,10
 668 733 668 733 585.5 633 c 128,-1,11
 503 533 503 533 385 533 c 0,0,1
311 715 m 0,12,13
 311 578 311 578 398 578 c 0,14,15
 463 578 463 578 517 671.5 c 128,-1,16
 571 765 571 765 571 881 c 0,17,18
 571 1022 571 1022 483 1022 c 0,19,20
 416 1022 416 1022 363.5 928 c 128,-1,21
 311 834 311 834 311 715 c 0,12,13
850 0 m 0,22,23
 769 0 769 0 719.5 51.5 c 128,-1,24
 670 103 670 103 670 189 c 0,25,26
 670 331 670 331 751 432 c 128,-1,27
 832 533 832 533 947 533 c 0,28,29
 1031 533 1031 533 1081.5 481.5 c 128,-1,30
 1132 430 1132 430 1132 344 c 0,31,32
 1132 200 1132 200 1049.5 100 c 128,-1,33
 967 0 967 0 850 0 c 0,22,23
776 182 m 0,34,35
 776 44 776 44 862 44 c 0,36,37
 929 44 929 44 982 138 c 128,-1,38
 1035 232 1035 232 1035 348 c 0,39,40
 1035 490 1035 490 948 490 c 0,41,42
 880 490 880 490 828 395.5 c 128,-1,43
 776 301 776 301 776 182 c 0,34,35
131 -27 m 1,44,-1
 1111 1093 l 1,45,-1
 1206 1093 l 1,46,-1
 225 -27 l 1,47,-1
 131 -27 l 1,44,-1
1376 0 m 0,48,49
 1294 0 1294 0 1244.5 51.5 c 128,-1,50
 1195 103 1195 103 1195 189 c 0,51,52
 1195 331 1195 331 1276.5 432 c 128,-1,53
 1358 533 1358 533 1473 533 c 0,54,55
 1557 533 1557 533 1607.5 481.5 c 128,-1,56
 1658 430 1658 430 1658 344 c 0,57,58
 1658 200 1658 200 1575.5 100 c 128,-1,59
 1493 0 1493 0 1376 0 c 0,48,49
1301 183 m 0,60,61
 1301 44 1301 44 1389 44 c 0,62,63
 1453 44 1453 44 1507 138 c 128,-1,64
 1561 232 1561 232 1561 347 c 0,65,66
 1561 490 1561 490 1473 490 c 0,67,68
 1406 490 1406 490 1353.5 395.5 c 128,-1,69
 1301 301 1301 301 1301 183 c 0,60,61
EndSplineSet
EndChar

StartChar: circumflex
Encoding: 710 710 139
Width: 862
Flags: W
LayerCount: 2
Fore
SplineSet
870 976 m 1,0,-1
 783 923 l 1,1,2
 729 984 729 984 693 1082 c 1,3,4
 652 1032 652 1032 574 953 c 0,5,6
 571 949 571 949 553 931 c 1,7,-1
 452 923 l 1,8,9
 607 1037 607 1037 674 1120 c 1,10,-1
 772 1182 l 1,11,12
 805 1069 805 1069 870 976 c 1,0,-1
EndSplineSet
EndChar

StartChar: cedilla
Encoding: 184 184 140
Width: 862
Flags: W
LayerCount: 2
Fore
SplineSet
456 0 m 1,0,-1
 414 -64 l 1,1,2
 485 -86 485 -86 485 -147 c 0,3,4
 485 -198 485 -198 428.5 -241 c 128,-1,5
 372 -284 372 -284 303 -284 c 0,6,7
 272 -284 272 -284 237 -277 c 1,8,-1
 292 -201 l 1,9,10
 326 -223 326 -223 352 -223 c 0,11,12
 416 -223 416 -223 416 -171 c 0,13,14
 416 -112 416 -112 318 -112 c 1,15,-1
 394 0 l 1,16,-1
 456 0 l 1,0,-1
EndSplineSet
EndChar

StartChar: brokenbar
Encoding: 166 166 141
Width: 355
Flags: W
LayerCount: 2
Fore
SplineSet
86 -213 m 1,0,-1
 203 373 l 1,1,-1
 301 373 l 1,2,-1
 184 -213 l 1,3,-1
 86 -213 l 1,0,-1
238 551 m 1,4,-1
 355 1137 l 1,5,-1
 453 1137 l 1,6,-1
 337 551 l 1,7,-1
 238 551 l 1,4,-1
EndSplineSet
EndChar

StartChar: minus
Encoding: 8722 8722 142
Width: 1490
Flags: W
LayerCount: 2
Fore
SplineSet
1308 572 m 1,0,-1
 182 572 l 1,1,-1
 182 732 l 1,2,-1
 1308 732 l 1,3,-1
 1308 572 l 1,0,-1
EndSplineSet
EndChar

StartChar: multiply
Encoding: 215 215 143
Width: 832
Flags: W
LayerCount: 2
Fore
SplineSet
671 250 m 1,0,-1
 597 156 l 1,1,-1
 351 359 l 1,2,-1
 192 157 l 1,3,-1
 78 251 l 1,4,-1
 237 453 l 1,5,-1
 -7 655 l 1,6,-1
 66 749 l 1,7,-1
 311 547 l 1,8,-1
 471 750 l 1,9,-1
 585 656 l 1,10,-1
 425 453 l 1,11,-1
 671 250 l 1,0,-1
EndSplineSet
EndChar

StartChar: onesuperior
Encoding: 185 185 144
Width: 596
Flags: W
LayerCount: 2
Fore
SplineSet
573 1093 m 1,0,-1
 487 657 l 2,1,2
 476 607 476 607 476 589 c 0,3,4
 476 570 476 570 532 563 c 1,5,-1
 591 560 l 1,6,-1
 582 516 l 1,7,-1
 210 516 l 1,8,-1
 218 560 l 1,9,-1
 279 563 l 2,10,11
 328 567 328 567 337.5 578 c 128,-1,12
 347 589 347 589 362 657 c 2,13,-1
 418 938 l 2,14,15
 423 960 423 960 423 978 c 0,16,17
 423 1004 423 1004 355 1013 c 2,18,-1
 310 1021 l 1,19,-1
 319 1066 l 1,20,-1
 573 1093 l 1,0,-1
EndSplineSet
EndChar

StartChar: twosuperior
Encoding: 178 178 145
Width: 596
Flags: W
LayerCount: 2
Fore
SplineSet
187 516 m 1,0,-1
 207 617 l 1,1,2
 362 712 362 712 454.5 803.5 c 128,-1,3
 547 895 547 895 547 952 c 0,4,5
 547 1046 547 1046 463 1046 c 0,6,7
 352 1046 352 1046 331 928 c 1,8,-1
 278 928 l 1,9,-1
 304 1059 l 1,10,11
 400 1093 400 1093 484 1093 c 0,12,13
 674 1093 674 1093 674 959 c 0,14,15
 674 887 674 887 624.5 842 c 128,-1,16
 575 797 575 797 297 617 c 1,17,-1
 607 617 l 1,18,-1
 587 516 l 1,19,-1
 187 516 l 1,0,-1
EndSplineSet
EndChar

StartChar: threesuperior
Encoding: 179 179 146
Width: 596
Flags: W
LayerCount: 2
Fore
SplineSet
185 545 m 1,0,-1
 257 620 l 1,1,2
 337 556 337 556 418 556 c 0,3,4
 460 556 460 556 490.5 587 c 128,-1,5
 521 618 521 618 521 661 c 0,6,7
 521 776 521 776 345 776 c 0,8,9
 323 776 323 776 301 773 c 1,10,-1
 331 859 l 1,11,12
 350 860 350 860 365 860 c 0,13,14
 412 860 412 860 466 849 c 1,15,16
 547 886 547 886 547 961 c 0,17,18
 547 1046 547 1046 454 1046 c 0,19,20
 365 1046 365 1046 342 941 c 1,21,-1
 289 941 l 1,22,-1
 311 1057 l 1,23,24
 398 1093 398 1093 484 1093 c 0,25,26
 662 1093 662 1093 662 984 c 0,27,28
 662 893 662 893 520 829 c 1,29,30
 625 790 625 790 625 693 c 0,31,32
 625 616 625 616 554.5 563 c 128,-1,33
 484 510 484 510 378 510 c 0,34,35
 289 510 289 510 185 545 c 1,0,-1
EndSplineSet
EndChar

StartChar: onehalf
Encoding: 189 189 147
Width: 1262
Flags: W
LayerCount: 2
Fore
SplineSet
528 1093 m 1,0,-1
 442 657 l 2,1,2
 432 606 432 606 432 589 c 0,3,4
 432 570 432 570 488 563 c 1,5,-1
 547 560 l 1,6,-1
 538 516 l 1,7,-1
 165 516 l 1,8,-1
 174 560 l 1,9,-1
 235 563 l 2,10,11
 283 567 283 567 293 578 c 128,-1,12
 303 589 303 589 318 657 c 2,13,-1
 373 938 l 2,14,15
 378 960 378 960 378 978 c 0,16,17
 378 1004 378 1004 310 1013 c 2,18,-1
 265 1021 l 1,19,-1
 274 1066 l 1,20,-1
 528 1093 l 1,0,-1
160 -27 m 1,21,-1
 1180 1093 l 1,22,-1
 1280 1093 l 1,23,-1
 257 -27 l 1,24,-1
 160 -27 l 1,21,-1
778 0 m 1,25,-1
 797 103 l 1,26,27
 952 197 952 197 1045 288 c 128,-1,28
 1138 379 1138 379 1138 436 c 0,29,30
 1138 530 1138 530 1053 530 c 0,31,32
 942 530 942 530 922 413 c 1,33,-1
 868 413 l 1,34,-1
 895 544 l 1,35,36
 989 578 989 578 1075 578 c 0,37,38
 1264 578 1264 578 1264 445 c 0,39,40
 1264 373 1264 373 1214.5 328 c 128,-1,41
 1165 283 1165 283 887 103 c 1,42,-1
 1197 103 l 1,43,-1
 1177 0 l 1,44,-1
 778 0 l 1,25,-1
EndSplineSet
EndChar

StartChar: onequarter
Encoding: 188 188 148
Width: 1262
Flags: W
LayerCount: 2
Fore
SplineSet
546 1093 m 1,0,-1
 460 657 l 2,1,2
 450 606 450 606 450 589 c 0,3,4
 450 570 450 570 506 563 c 1,5,-1
 565 560 l 1,6,-1
 556 516 l 1,7,-1
 183 516 l 1,8,-1
 192 560 l 1,9,-1
 253 563 l 2,10,11
 301 567 301 567 311 578 c 128,-1,12
 321 589 321 589 336 657 c 2,13,-1
 391 938 l 2,14,15
 396 960 396 960 396 978 c 0,16,17
 396 1004 396 1004 328 1013 c 2,18,-1
 283 1021 l 1,19,-1
 292 1066 l 1,20,-1
 546 1093 l 1,0,-1
178 -27 m 1,21,-1
 1198 1093 l 1,22,-1
 1298 1093 l 1,23,-1
 275 -27 l 1,24,-1
 178 -27 l 1,21,-1
981 164 m 1,25,-1
 732 182 l 1,26,-1
 747 261 l 1,27,-1
 1102 578 l 1,28,-1
 1170 578 l 1,29,-1
 1102 236 l 1,30,-1
 1212 229 l 1,31,-1
 1168 149 l 1,32,-1
 1086 157 l 1,33,34
 1076 102 1076 102 1076 74 c 0,35,36
 1076 52 1076 52 1129 49 c 2,37,-1
 1189 45 l 1,38,-1
 1180 0 l 1,39,-1
 820 0 l 1,40,-1
 829 45 l 1,41,-1
 886 49 l 2,42,43
 937 52 937 52 952 64 c 128,-1,44
 967 76 967 76 973 117 c 0,45,46
 976 134 976 134 981 164 c 1,25,-1
997 244 m 1,47,-1
 1038 446 l 1,48,-1
 823 255 l 1,49,-1
 997 244 l 1,47,-1
EndSplineSet
EndChar

StartChar: threequarters
Encoding: 190 190 149
Width: 1262
Flags: W
LayerCount: 2
Fore
SplineSet
174 545 m 1,0,-1
 247 620 l 1,1,2
 326 556 326 556 407 556 c 0,3,4
 448 556 448 556 478.5 587 c 128,-1,5
 509 618 509 618 509 661 c 0,6,7
 509 776 509 776 333 776 c 0,8,9
 311 776 311 776 289 773 c 1,10,-1
 319 859 l 1,11,12
 338 860 338 860 355 860 c 0,13,14
 401 860 401 860 455 849 c 1,15,16
 535 886 535 886 535 961 c 0,17,18
 535 1046 535 1046 442 1046 c 0,19,20
 354 1046 354 1046 330 941 c 1,21,-1
 277 941 l 1,22,-1
 301 1057 l 1,23,24
 387 1093 387 1093 472 1093 c 0,25,26
 651 1093 651 1093 651 984 c 0,27,28
 651 893 651 893 508 829 c 1,29,30
 614 790 614 790 614 693 c 0,31,32
 614 616 614 616 543 563 c 128,-1,33
 472 510 472 510 366 510 c 0,34,35
 277 510 277 510 174 545 c 1,0,-1
178 -27 m 1,36,-1
 1198 1093 l 1,37,-1
 1298 1093 l 1,38,-1
 275 -27 l 1,39,-1
 178 -27 l 1,36,-1
981 164 m 1,40,-1
 732 182 l 1,41,-1
 747 261 l 1,42,-1
 1102 578 l 1,43,-1
 1170 578 l 1,44,-1
 1102 236 l 1,45,-1
 1212 229 l 1,46,-1
 1168 149 l 1,47,-1
 1086 157 l 1,48,49
 1076 102 1076 102 1076 74 c 0,50,51
 1076 52 1076 52 1129 49 c 2,52,-1
 1189 45 l 1,53,-1
 1180 0 l 1,54,-1
 820 0 l 1,55,-1
 829 45 l 1,56,-1
 886 49 l 2,57,58
 938 52 938 52 952.5 64 c 128,-1,59
 967 76 967 76 973 117 c 0,60,61
 976 134 976 134 981 164 c 1,40,-1
997 244 m 1,62,-1
 1038 446 l 1,63,-1
 823 255 l 1,64,-1
 997 244 l 1,62,-1
EndSplineSet
EndChar

StartChar: macron
Encoding: 175 175 150
Width: 1118
Flags: W
LayerCount: 2
Fore
SplineSet
1134 1659 m 1,0,-1
 -16 1659 l 1,1,-1
 -16 1789 l 1,2,-1
 1134 1789 l 1,3,-1
 1134 1659 l 1,0,-1
EndSplineSet
EndChar

StartChar: periodcentered
Encoding: 183 183 151
Width: 724
Flags: W
LayerCount: 2
Fore
SplineSet
482 832 m 1,0,-1
 243 832 l 1,1,-1
 243 1117 l 1,2,-1
 482 1117 l 1,3,-1
 482 832 l 1,0,-1
EndSplineSet
EndChar

StartChar: H22073
Encoding: 9633 9633 152
Width: 1237
Flags: W
LayerCount: 2
Fore
SplineSet
-54 944 m 1,0,-1
 889 944 l 1,1,-1
 1090 0 l 1,2,-1
 146 0 l 1,3,-1
 -54 944 l 1,0,-1
37 868 m 1,4,-1
 205 76 l 1,5,-1
 997 76 l 1,6,-1
 829 868 l 1,7,-1
 37 868 l 1,4,-1
EndSplineSet
EndChar

StartChar: H18543
Encoding: 9642 9642 153
Width: 1089
Flags: W
LayerCount: 2
Fore
SplineSet
674 994 m 1,0,-1
 822 300 l 1,1,-1
 128 300 l 1,2,-1
 -19 994 l 1,3,-1
 674 994 l 1,0,-1
EndSplineSet
EndChar

StartChar: H18551
Encoding: 9643 9643 154
Width: 1089
Flags: W
LayerCount: 2
Fore
SplineSet
676 996 m 1,0,-1
 824 301 l 1,1,-1
 129 301 l 1,2,-1
 -18 996 l 1,3,-1
 676 996 l 1,0,-1
586 882 m 1,4,-1
 119 882 l 1,5,-1
 218 415 l 1,6,-1
 685 415 l 1,7,-1
 586 882 l 1,4,-1
EndSplineSet
EndChar

StartChar: H18533
Encoding: 9679 9679 155
Width: 1339
Flags: W
LayerCount: 2
Fore
SplineSet
51 719 m 0,0,1
 8 920 8 920 119 1061 c 128,-1,2
 230 1202 230 1202 429 1202 c 0,3,4
 629 1202 629 1202 800 1061 c 128,-1,5
 971 920 971 920 1014 719 c 0,6,7
 1056 521 1056 521 945 380 c 128,-1,8
 834 239 834 239 634 239 c 0,9,10
 435 239 435 239 264 380 c 128,-1,11
 93 521 93 521 51 719 c 0,0,1
EndSplineSet
EndChar

StartChar: openbullet
Encoding: 9702 9702 156
Width: 1089
Flags: W
LayerCount: 2
Fore
SplineSet
295 1171 m 0,0,1
 451 1171 451 1171 585 1060.5 c 128,-1,2
 719 950 719 950 752 794 c 256,3,4
 785 638 785 638 698 528 c 128,-1,5
 611 418 611 418 455 418 c 256,6,7
 299 418 299 418 165.5 528 c 128,-1,8
 32 638 32 638 0 794 c 0,9,10
 -33 950 -33 950 52.5 1060.5 c 128,-1,11
 138 1171 138 1171 295 1171 c 0,0,1
319 1057 m 0,12,13
 210 1057 210 1057 150 979.5 c 128,-1,14
 90 902 90 902 113 794 c 0,15,16
 136 685 136 685 229 608.5 c 128,-1,17
 322 532 322 532 430 532 c 256,18,19
 538 532 538 532 599.5 608.5 c 128,-1,20
 661 685 661 685 638 794 c 0,21,22
 615 902 615 902 522 979.5 c 128,-1,23
 429 1057 429 1057 319 1057 c 0,12,13
EndSplineSet
EndChar

StartChar: currency
Encoding: 164 164 157
Width: 932
Flags: W
LayerCount: 2
Fore
SplineSet
769 322 m 1,0,-1
 879 184 l 1,1,-1
 841 153 l 1,2,-1
 732 292 l 1,3,4
 616 214 616 214 504 214 c 0,5,6
 394 214 394 214 310 292 c 1,7,-1
 145 153 l 1,8,-1
 120 184 l 1,9,-1
 286 322 l 1,10,11
 243 397 243 397 243 470 c 0,12,13
 243 613 243 613 369 743 c 1,14,-1
 259 882 l 1,15,-1
 297 913 l 1,16,-1
 407 775 l 1,17,18
 521 852 521 852 634 852 c 0,19,20
 744 852 744 852 828 775 c 1,21,-1
 994 913 l 1,22,-1
 1019 882 l 1,23,-1
 852 743 l 1,24,25
 895 668 895 668 895 596 c 0,26,27
 895 455 895 455 769 322 c 1,0,-1
818 579 m 0,28,29
 818 666 818 666 762 721.5 c 128,-1,30
 706 777 706 777 620 777 c 0,31,32
 502 777 502 777 411 688 c 128,-1,33
 320 599 320 599 320 485 c 0,34,35
 320 400 320 400 376.5 344.5 c 128,-1,36
 433 289 433 289 519 289 c 0,37,38
 635 289 635 289 726.5 377.5 c 128,-1,39
 818 466 818 466 818 579 c 0,28,29
EndSplineSet
EndChar

StartChar: uniFFFC
Encoding: 65532 65532 158
Width: 2048
Flags: W
LayerCount: 2
Fore
SplineSet
2048 1150 m 1,0,-1
 1948 1150 l 1,1,-1
 1948 1373 l 1,2,-1
 1725 1373 l 1,3,-1
 1725 1473 l 1,4,-1
 2048 1473 l 1,5,-1
 2048 1150 l 1,0,-1
1473 1373 m 1,6,-1
 1150 1373 l 1,7,-1
 1150 1473 l 1,8,-1
 1473 1473 l 1,9,-1
 1473 1373 l 1,6,-1
2048 575 m 1,10,-1
 1948 575 l 1,11,-1
 1948 898 l 1,12,-1
 2048 898 l 1,13,-1
 2048 575 l 1,10,-1
1782 611 m 2,14,15
 1782 370 1782 370 1571 370 c 0,16,17
 1485 370 1485 370 1433 415 c 1,18,-1
 1506 494 l 1,19,20
 1531 468 1531 468 1571 468 c 0,21,22
 1666 468 1666 468 1666 606 c 2,23,-1
 1666 1090 l 1,24,-1
 1782 1090 l 1,25,-1
 1782 611 l 2,14,15
898 1373 m 1,26,-1
 575 1373 l 1,27,-1
 575 1473 l 1,28,-1
 898 1473 l 1,29,-1
 898 1373 l 1,26,-1
2048 0 m 1,30,-1
 1725 0 l 1,31,-1
 1725 100 l 1,32,-1
 1948 100 l 1,33,-1
 1948 323 l 1,34,-1
 2048 323 l 1,35,-1
 2048 0 l 1,30,-1
1423 591 m 0,36,37
 1423 382 1423 382 1149 382 c 2,38,-1
 909 382 l 1,39,-1
 909 1090 l 1,40,-1
 1144 1090 l 2,41,42
 1393 1090 1393 1090 1393 904 c 0,43,44
 1393 813 1393 813 1304 759 c 1,45,46
 1423 713 1423 713 1423 591 c 0,36,37
323 1373 m 1,47,-1
 100 1373 l 1,48,-1
 100 1150 l 1,49,-1
 0 1150 l 1,50,-1
 0 1473 l 1,51,-1
 323 1473 l 1,52,-1
 323 1373 l 1,47,-1
1473 0 m 1,53,-1
 1150 0 l 1,54,-1
 1150 100 l 1,55,-1
 1473 100 l 1,56,-1
 1473 0 l 1,53,-1
854 735 m 0,57,58
 854 562 854 562 772 466 c 128,-1,59
 690 370 690 370 537 370 c 256,60,61
 384 370 384 370 303.5 466 c 128,-1,62
 223 562 223 562 223 735 c 0,63,64
 223 910 223 910 303.5 1006 c 128,-1,65
 384 1102 384 1102 537 1102 c 256,66,67
 690 1102 690 1102 772 1006 c 128,-1,68
 854 910 854 910 854 735 c 0,57,58
100 575 m 1,69,-1
 0 575 l 1,70,-1
 0 898 l 1,71,-1
 100 898 l 1,72,-1
 100 575 l 1,69,-1
898 0 m 1,73,-1
 575 0 l 1,74,-1
 575 100 l 1,75,-1
 898 100 l 1,76,-1
 898 0 l 1,73,-1
323 0 m 1,77,-1
 0 0 l 1,78,-1
 0 323 l 1,79,-1
 100 323 l 1,80,-1
 100 100 l 1,81,-1
 323 100 l 1,82,-1
 323 0 l 1,77,-1
1277 893 m 0,83,84
 1277 992 1277 992 1114 992 c 2,85,-1
 1025 992 l 1,86,-1
 1025 798 l 1,87,-1
 1126 798 l 2,88,89
 1277 798 1277 798 1277 893 c 0,83,84
1307 591 m 0,90,91
 1307 700 1307 700 1136 700 c 2,92,-1
 1025 700 l 1,93,-1
 1025 480 l 1,94,-1
 1149 480 l 2,95,96
 1307 480 1307 480 1307 591 c 0,90,91
738 735 m 0,97,98
 738 1004 738 1004 537 1004 c 0,99,100
 339 1004 339 1004 339 735 c 0,101,102
 339 468 339 468 537 468 c 0,103,104
 738 468 738 468 738 735 c 0,97,98
EndSplineSet
EndChar

StartChar: dotbelowcomb
Encoding: 65538 -1 160
Width: 0
Flags: W
LayerCount: 2
Fore
SplineSet
680 -348 m 1,0,-1
 485 -348 l 1,1,-1
 447 -170 l 1,2,-1
 642 -170 l 1,3,-1
 680 -348 l 1,0,-1
EndSplineSet
EndChar

StartChar: zerowidthnonjoiner
Encoding: 8204 8204 175
Width: 0
GlyphClass: 2
Flags: W
LayerCount: 2
Fore
SplineSet
36 1289 m 1,0,-1
 36 -275 l 1,1,-1
 -36 -275 l 1,2,-1
 -36 1289 l 1,3,-1
 36 1289 l 1,0,-1
EndSplineSet
EndChar

StartChar: zerowidthjoiner
Encoding: 8205 8205 176
Width: 0
GlyphClass: 2
Flags: W
LayerCount: 2
Fore
SplineSet
36 -275 m 1,0,-1
 -36 -275 l 1,1,-1
 -36 1114 l 1,2,-1
 -170 978 l 1,3,-1
 -219 1027 l 1,4,-1
 -48 1196 l 1,5,-1
 -219 1364 l 1,6,-1
 -170 1413 l 1,7,-1
 0 1242 l 1,8,-1
 170 1413 l 1,9,-1
 219 1364 l 1,10,-1
 48 1196 l 1,11,-1
 219 1027 l 1,12,-1
 170 978 l 1,13,-1
 36 1114 l 1,14,-1
 36 -275 l 1,0,-1
EndSplineSet
EndChar

StartChar: lefttorightmark
Encoding: 8206 8206 177
Width: 0
GlyphClass: 2
Flags: W
LayerCount: 2
Fore
SplineSet
430 1198 m 1,0,-1
 213 984 l 1,1,-1
 164 1033 l 1,2,-1
 301 1163 l 1,3,-1
 35 1163 l 1,4,-1
 35 -275 l 1,5,-1
 -36 -275 l 1,6,-1
 -36 1234 l 1,7,-1
 301 1234 l 1,8,-1
 164 1364 l 1,9,-1
 213 1413 l 1,10,-1
 430 1198 l 1,0,-1
EndSplineSet
EndChar

StartChar: righttoleftmark
Encoding: 8207 8207 178
Width: 0
GlyphClass: 2
Flags: W
LayerCount: 2
Fore
SplineSet
35 -275 m 1,0,-1
 -36 -275 l 1,1,-1
 -36 1163 l 1,2,-1
 -302 1163 l 1,3,-1
 -165 1033 l 1,4,-1
 -214 984 l 1,5,-1
 -431 1198 l 1,6,-1
 -214 1413 l 1,7,-1
 -165 1364 l 1,8,-1
 -302 1234 l 1,9,-1
 35 1234 l 1,10,-1
 35 -275 l 1,0,-1
EndSplineSet
EndChar

StartChar: afii57388.001
Encoding: 1644 1644 179
Width: 321
GlyphClass: 2
Flags: W
LayerCount: 2
Fore
SplineSet
191 595 m 0,0,1
 186 583 186 583 180.5 571 c 128,-1,2
 175 559 175 559 168 549 c 0,3,4
 159 537 159 537 147.5 536.5 c 128,-1,5
 136 536 136 536 141 549 c 0,6,7
 170 600 170 600 184 649 c 128,-1,8
 198 698 198 698 198 728 c 1,9,10
 176 733 176 733 162.5 742.5 c 128,-1,11
 149 752 149 752 141 762.5 c 128,-1,12
 133 773 133 773 130 782 c 128,-1,13
 127 791 127 791 127 795 c 0,14,15
 127 810 127 810 132 825 c 128,-1,16
 137 840 137 840 146 852.5 c 128,-1,17
 155 865 155 865 167.5 873 c 128,-1,18
 180 881 180 881 194 881 c 0,19,20
 248 881 248 881 248 795 c 0,21,22
 248 781 248 781 244 759.5 c 128,-1,23
 240 738 240 738 233 711 c 128,-1,24
 226 684 226 684 215 654.5 c 128,-1,25
 204 625 204 625 191 595 c 0,0,1
EndSplineSet
EndChar

StartChar: afii57409
Encoding: 1569 1569 180
Width: 621
GlyphClass: 2
Flags: W
AnchorPoint: "Anchor-3" 270 -390 basechar 0
AnchorPoint: "Anchor-2" 165 525 basechar 0
LayerCount: 2
Fore
SplineSet
482 298 m 1,0,-1
 467 176 l 1,1,2
 359 154 359 154 269 125 c 0,3,4
 143 84 143 84 93 16 c 1,5,6
 82 39 82 39 77 64 c 0,7,8
 65 122 65 122 145 185 c 1,9,10
 67 232 67 232 56 290 c 0,11,12
 36 378 36 378 94.5 456.5 c 128,-1,13
 153 535 153 535 242 535 c 0,14,15
 304 535 304 535 345 501 c 0,16,17
 381 472 381 472 390 429 c 0,18,19
 397 400 397 400 379 386 c 1,20,21
 330 432 330 432 249 432 c 0,22,23
 185 432 185 432 148 409 c 0,24,25
 116 389 116 389 123 359 c 0,26,27
 129 327 129 327 177 288 c 0,28,29
 229 246 229 246 285 246 c 0,30,31
 395 246 395 246 482 298 c 1,0,-1
EndSplineSet
EndChar

StartChar: afii57440
Encoding: 1600 1600 181
Width: 425
GlyphClass: 2
Flags: W
LayerCount: 2
Fore
SplineSet
440 35 m 1,0,1
 447 0 447 0 429 0 c 2,2,-1
 -5 0 l 2,3,4
 -41 0 -41 0 -48 35 c 2,5,-1
 -65 114 l 2,6,7
 -72 149 -72 149 -36 149 c 2,8,-1
 397 149 l 2,9,10
 416 149 416 149 423 114 c 2,11,-1
 440 35 l 1,12,-1
 440 35 l 1,0,1
EndSplineSet
EndChar

StartChar: afii57453
Encoding: 1613 1613 182
Width: 0
GlyphClass: 4
Flags: W
AnchorPoint: "Anchor-3" 0 0 mark 0
AnchorPoint: "Anchor-1" 0 0 mark 0
LayerCount: 2
Fore
SplineSet
95 176 m 1,0,-1
 -215 -2 l 1,1,-1
 -208 67 l 1,2,-1
 101 245 l 1,3,-1
 95 176 l 1,0,-1
122 47 m 1,4,-1
 -187 -130 l 1,5,-1
 -181 -61 l 1,6,-1
 129 116 l 1,7,-1
 122 47 l 1,4,-1
EndSplineSet
EndChar

StartChar: afii57455.001
Encoding: 65539 -1 183
Width: 451
GlyphClass: 4
Flags: W
LayerCount: 2
Fore
SplineSet
132 1466 m 1,0,1
 116 1416 116 1416 95 1400 c 1,2,-1
 27 1421 l 1,3,4
 -3 1365 -3 1365 -58 1337 c 128,-1,5
 -113 1309 -113 1309 -197 1309 c 0,6,7
 -246 1309 -246 1309 -265 1340 c 1,8,9
 -243 1341 -243 1341 -211.5 1349.5 c 128,-1,10
 -180 1358 -180 1358 -138 1377 c 0,11,12
 -54 1414 -54 1414 -25 1444 c 1,13,14
 -85 1470 -85 1470 -117 1498 c 128,-1,15
 -149 1526 -149 1526 -157 1558 c 0,16,17
 -162 1584 -162 1584 -152 1609.5 c 128,-1,18
 -142 1635 -142 1635 -119 1662 c 0,19,20
 -68 1716 -68 1716 -16 1716 c 0,21,22
 52 1716 52 1716 75 1617 c 0,23,24
 83 1576 83 1576 80 1544.5 c 128,-1,25
 77 1513 77 1513 65 1489 c 1,26,27
 86 1477 86 1477 103 1471.5 c 128,-1,28
 120 1466 120 1466 132 1466 c 1,0,1
23 1576 m 0,29,30
 10 1640 10 1640 -31 1640 c 0,31,32
 -55 1640 -55 1640 -72 1626 c 1,33,34
 -98 1612 -98 1612 -93 1592 c 0,35,36
 -84 1550 -84 1550 24 1507 c 1,37,38
 28 1518 28 1518 28 1535 c 128,-1,39
 28 1552 28 1552 23 1576 c 0,29,30
EndSplineSet
EndChar

StartChar: afii57458.001
Encoding: 65540 -1 184
Width: 0
GlyphClass: 4
Flags: W
LayerCount: 2
Fore
SplineSet
-5 1497 m 0,0,1
 2 1463 2 1463 -5 1433 c 128,-1,2
 -12 1403 -12 1403 -30 1381 c 128,-1,3
 -48 1359 -48 1359 -75 1346 c 128,-1,4
 -102 1333 -102 1333 -135 1333 c 0,5,6
 -243 1333 -243 1333 -267 1443 c 0,7,8
 -283 1528 -283 1528 -249 1589 c 1,9,10
 -224 1652 -224 1652 -168 1652 c 0,11,12
 -142 1652 -142 1652 -116 1640 c 128,-1,13
 -90 1628 -90 1628 -68 1607.5 c 128,-1,14
 -46 1587 -46 1587 -29.5 1558.5 c 128,-1,15
 -13 1530 -13 1530 -5 1497 c 0,0,1
-46 1464 m 1,16,17
 -54 1507 -54 1507 -96 1536 c 0,18,19
 -133 1564 -133 1564 -169 1564 c 0,20,21
 -184 1564 -184 1564 -196.5 1557 c 128,-1,22
 -209 1550 -209 1550 -217 1534 c 0,23,24
 -230 1511 -230 1511 -225 1482 c 0,25,26
 -212 1421 -212 1421 -134 1421 c 0,27,28
 -68 1421 -68 1421 -46 1464 c 1,16,17
EndSplineSet
EndChar

StartChar: afii57381
Encoding: 1642 1642 185
Width: 932
GlyphClass: 2
Flags: W
LayerCount: 2
Fore
SplineSet
226 -120 m 1,0,-1
 452 1215 l 1,1,-1
 537 1184 l 1,2,-1
 311 -151 l 1,3,-1
 226 -120 l 1,0,-1
844 47 m 0,4,5
 852 10 852 10 831 -17 c 128,-1,6
 810 -44 810 -44 773 -44 c 0,7,8
 734 -44 734 -44 701.5 -17 c 128,-1,9
 669 10 669 10 661 48 c 256,10,11
 653 86 653 86 674 112.5 c 128,-1,12
 695 139 695 139 733 139 c 0,13,14
 772 139 772 139 804 112.5 c 128,-1,15
 836 86 836 86 844 47 c 0,4,5
72 1033 m 0,16,17
 80 996 80 996 58.5 969.5 c 128,-1,18
 37 943 37 943 0 943 c 256,19,20
 -37 943 -37 943 -69.5 969.5 c 128,-1,21
 -102 996 -102 996 -110 1035 c 0,22,23
 -118 1072 -118 1072 -97 1099 c 128,-1,24
 -76 1126 -76 1126 -38 1126 c 256,25,26
 0 1126 0 1126 32 1099 c 128,-1,27
 64 1072 64 1072 72 1033 c 0,16,17
EndSplineSet
EndChar

StartChar: afii57461
Encoding: 1643 1643 186
Width: 896
GlyphClass: 2
Flags: W
LayerCount: 2
Fore
SplineSet
207 -474 m 1,0,-1
 604 457 l 1,1,-1
 708 457 l 1,2,-1
 311 -474 l 1,3,-1
 207 -474 l 1,0,-1
EndSplineSet
EndChar

StartChar: afii63167
Encoding: 1645 1645 187
Width: 1017
GlyphClass: 2
Flags: W
LayerCount: 2
Fore
SplineSet
632 663 m 1,0,-1
 962 667 l 1,1,-1
 962 555 l 1,2,-1
 639 557 l 1,3,-1
 884 320 l 1,4,-1
 804 240 l 1,5,-1
 561 490 l 1,6,-1
 567 153 l 1,7,-1
 453 153 l 1,8,-1
 457 490 l 1,9,-1
 215 240 l 1,10,-1
 134 320 l 1,11,-1
 384 559 l 1,12,-1
 57 555 l 1,13,-1
 57 667 l 1,14,-1
 382 663 l 1,15,-1
 155 887 l 1,16,-1
 235 969 l 1,17,-1
 457 743 l 1,18,-1
 453 1070 l 1,19,-1
 567 1070 l 1,20,-1
 561 740 l 1,21,-1
 783 969 l 1,22,-1
 863 887 l 1,23,-1
 632 663 l 1,0,-1
EndSplineSet
EndChar

StartChar: afii57459
Encoding: 65541 -1 188
Width: 589
GlyphClass: 2
Flags: W
LayerCount: 2
Fore
SplineSet
481 334 m 0,0,1
 521 152 521 152 414 76 c 0,2,3
 305 0 305 0 18 0 c 2,4,-1
 -5 0 l 2,5,6
 -41 0 -41 0 -48 35 c 2,7,-1
 -65 114 l 2,8,9
 -72 149 -72 149 -36 149 c 2,10,-1
 75 149 l 2,11,12
 267 149 267 149 355.5 184 c 128,-1,13
 444 219 444 219 429 290 c 0,14,15
 424 307 424 307 419 319.5 c 128,-1,16
 414 332 414 332 405 343 c 1,17,18
 368 317 368 317 231 317 c 0,19,20
 44 317 44 317 14 460 c 0,21,22
 -7 565 -7 565 15 667 c 0,23,24
 43 805 43 805 139 805 c 0,25,26
 260 805 260 805 355 663 c 0,27,28
 439 539 439 539 481 334 c 0,0,1
349 487 m 1,29,30
 339 516 339 516 320 543.5 c 128,-1,31
 301 571 301 571 273 598 c 0,32,33
 244 627 244 627 213 641.5 c 128,-1,34
 182 656 182 656 153 656 c 0,35,36
 132 656 132 656 115.5 648 c 128,-1,37
 99 640 99 640 87.5 626 c 128,-1,38
 76 612 76 612 71.5 594 c 128,-1,39
 67 576 67 576 72 555 c 0,40,41
 92 466 92 466 225 466 c 0,42,43
 311 466 311 466 349 487 c 1,29,30
EndSplineSet
EndChar

StartChar: afii57543
Encoding: 65542 -1 189
Width: 621
Flags: W
LayerCount: 2
Fore
SplineSet
635 35 m 1,0,1
 644 0 644 0 626 0 c 2,2,-1
 602 0 l 2,3,4
 550 0 550 0 509.5 5.5 c 128,-1,5
 469 11 469 11 440 25 c 0,6,7
 373 52 373 52 323 128 c 1,8,9
 301 55 301 55 222 25 c 0,10,11
 188 11 188 11 137.5 5.5 c 128,-1,12
 87 0 87 0 18 0 c 2,13,-1
 -5 0 l 2,14,15
 -41 0 -41 0 -48 35 c 2,16,-1
 -65 114 l 2,17,18
 -72 149 -72 149 -36 149 c 2,19,-1
 102 149 l 2,20,21
 271 149 271 149 248 352 c 0,22,23
 243 379 243 379 268 379 c 0,24,25
 292 379 292 379 298 352 c 0,26,27
 363 149 363 149 531 149 c 2,28,-1
 594 149 l 2,29,30
 610 149 610 149 619 114 c 2,31,-1
 635 35 l 1,32,-1
 635 35 l 1,0,1
EndSplineSet
EndChar

StartChar: afii57534
Encoding: 1749 1749 190
Width: 753
GlyphClass: 2
Flags: W
LayerCount: 2
Fore
SplineSet
632 263 m 0,0,1
 659 136 659 136 592 60 c 0,2,3
 531 -13 531 -13 402 -13 c 0,4,5
 310 -13 310 -13 248 34 c 0,6,7
 177 85 177 85 158 173 c 0,8,9
 111 391 111 391 294 608 c 1,10,11
 467 515 467 515 543 430 c 0,12,13
 612 357 612 357 632 263 c 0,0,1
577 222 m 0,14,15
 565 275 565 275 454 361 c 256,16,17
 343 447 343 447 282 460 c 1,18,19
 212 338 212 338 232 246 c 0,20,21
 243 197 243 197 289.5 166.5 c 128,-1,22
 336 136 336 136 403 136 c 0,23,24
 430 136 430 136 457.5 143 c 128,-1,25
 485 150 485 150 517 162 c 0,26,27
 582 193 582 193 577 222 c 0,14,15
EndSplineSet
EndChar

StartChar: afii64240
Encoding: 65543 -1 191
Width: 295
Flags: W
LayerCount: 2
Fore
SplineSet
154 2 m 1,0,-1
 26 108 l 1,1,-1
 108 215 l 1,2,-1
 233 108 l 1,3,-1
 154 2 l 1,0,-1
EndSplineSet
EndChar

StartChar: afii64241
Encoding: 65544 -1 192
Width: 499
Flags: W
LayerCount: 2
Fore
SplineSet
376 3 m 1,0,-1
 250 107 l 1,1,-1
 330 207 l 1,2,-1
 454 107 l 1,3,-1
 376 3 l 1,0,-1
134 3 m 1,4,-1
 8 107 l 1,5,-1
 88 207 l 1,6,-1
 211 107 l 1,7,-1
 134 3 l 1,4,-1
EndSplineSet
EndChar

StartChar: afii63954
Encoding: 65545 -1 193
Width: 509
Flags: W
LayerCount: 2
Fore
SplineSet
205 226 m 1,0,-1
 79 332 l 1,1,-1
 161 439 l 1,2,-1
 287 332 l 1,3,-1
 205 226 l 1,0,-1
373 10 m 1,4,-1
 246 116 l 1,5,-1
 329 222 l 1,6,-1
 453 116 l 1,7,-1
 373 10 l 1,4,-1
131 10 m 1,8,-1
 4 116 l 1,9,-1
 86 222 l 1,10,-1
 211 116 l 1,11,-1
 131 10 l 1,8,-1
EndSplineSet
EndChar

StartChar: afii57382
Encoding: 65546 -1 194
Width: 492
Flags: W
LayerCount: 2
Fore
SplineSet
285 -215 m 1,0,-1
 410 -321 l 1,1,-1
 329 -428 l 1,2,-1
 203 -321 l 1,3,-1
 285 -215 l 1,0,-1
363 1 m 1,4,-1
 489 -106 l 1,5,-1
 409 -211 l 1,6,-1
 281 -106 l 1,7,-1
 363 1 l 1,4,-1
121 1 m 1,8,-1
 247 -106 l 1,9,-1
 167 -211 l 1,10,-1
 39 -106 l 1,11,-1
 121 1 l 1,8,-1
EndSplineSet
EndChar

StartChar: afii64242
Encoding: 65547 -1 195
Width: 413
Flags: W
LayerCount: 2
Fore
SplineSet
322 272 m 0,0,1
 355 116 355 116 283 56 c 0,2,3
 217 0 217 0 35 0 c 2,4,-1
 -5 0 l 2,5,6
 -41 0 -41 0 -48 35 c 2,7,-1
 -65 114 l 2,8,9
 -72 149 -72 149 -36 149 c 2,10,-1
 -13 149 l 2,11,12
 271 149 271 149 255 218 c 0,13,14
 240 290 240 290 132 397 c 1,15,-1
 168 548 l 1,16,17
 292 412 292 412 322 272 c 0,0,1
EndSplineSet
EndChar

StartChar: afii62881
Encoding: 59416 59416 196
Width: 0
GlyphClass: 4
Flags: W
AnchorPoint: "Anchor-2" 0 0 mark 0
AnchorPoint: "Anchor-0" 0 0 mark 0
LayerCount: 2
Fore
SplineSet
25 541 m 1,0,-1
 -286 364 l 1,1,-1
 -283 432 l 1,2,-1
 26 610 l 1,3,-1
 25 541 l 1,0,-1
52 412 m 1,4,-1
 -258 235 l 1,5,-1
 -256 304 l 1,6,-1
 54 481 l 1,7,-1
 52 412 l 1,4,-1
93 261 m 2,8,9
 96 241 96 241 99 212 c 128,-1,10
 102 183 102 183 104 144 c 1,11,12
 93 67 93 67 25 67 c 0,13,14
 0 67 0 67 -29 80 c 1,15,16
 -58 -2 -58 -2 -111 -2 c 0,17,18
 -178 -2 -178 -2 -197 89 c 0,19,20
 -212 158 -212 158 -190 187 c 0,21,22
 -173 210 -173 210 -157 201 c 1,23,24
 -168 176 -168 176 -158 136 c 0,25,26
 -151 97 -151 97 -120 97 c 0,27,28
 -84 97 -84 97 -76 153 c 1,29,-1
 -71 240 l 1,30,-1
 -38 261 l 1,31,32
 -19 166 -19 166 30 166 c 0,33,34
 67 166 67 166 61 196 c 0,35,36
 52 235 52 235 48.5 257.5 c 128,-1,37
 45 280 45 280 46 288 c 0,38,39
 57 325 57 325 84 332 c 1,40,-1
 93 261 l 2,8,9
EndSplineSet
Ligature2: "'ccmp' Glyph Composition/Decomposition in Arabic lookup 6 subtable" afii57457 afii57451
EndChar

StartChar: afii57373
Encoding: 65548 -1 200
Width: 395
Flags: W
LayerCount: 2
Fore
SplineSet
254 408 m 1,0,1
 239 406 239 406 215.5 400.5 c 128,-1,2
 192 395 192 395 161 387 c 0,3,4
 100 370 100 370 63.5 347 c 128,-1,5
 27 324 27 324 12 297 c 1,6,7
 1 315 1 315 -2 332 c 0,8,9
 -12 380 -12 380 40 414 c 1,10,11
 -8 441 -8 441 -19 495 c 0,12,13
 -29 544 -29 544 9 596 c 0,14,15
 29 622 29 622 54 634 c 128,-1,16
 79 646 79 646 108 646 c 0,17,18
 189 646 189 646 204 576 c 0,19,20
 206 568 206 568 204.5 562 c 128,-1,21
 203 556 203 556 198 550 c 1,22,23
 180 563 180 563 158.5 570 c 128,-1,24
 137 577 137 577 110 577 c 0,25,26
 18 577 18 577 27 531 c 0,27,28
 30 517 30 517 41 503 c 128,-1,29
 52 489 52 489 66 478.5 c 128,-1,30
 80 468 80 468 96 461.5 c 128,-1,31
 112 455 112 455 126 455 c 0,32,33
 202 455 202 455 266 489 c 1,34,-1
 254 408 l 1,0,1
EndSplineSet
EndChar

StartChar: afii57374
Encoding: 65549 -1 201
Width: 723
GlyphClass: 2
Flags: W
LayerCount: 2
Fore
SplineSet
737 35 m 2,0,1
 746 0 746 0 729 0 c 2,2,-1
 704 0 l 2,3,4
 614 0 614 0 530 22 c 128,-1,5
 446 44 446 44 369 87 c 1,6,7
 319 61 319 61 279 44 c 128,-1,8
 239 27 239 27 206 18 c 0,9,10
 170 8 170 8 123 4 c 128,-1,11
 76 0 76 0 18 0 c 2,12,-1
 -5 0 l 2,13,14
 -41 0 -41 0 -48 35 c 2,15,-1
 -65 114 l 2,16,17
 -72 149 -72 149 -36 149 c 2,18,-1
 -13 149 l 2,19,20
 167 149 167 149 214 173 c 1,21,22
 122 250 122 250 107 318 c 0,23,24
 94 381 94 381 100 438.5 c 128,-1,25
 106 496 106 496 133 548 c 0,26,27
 185 651 185 651 276 651 c 0,28,29
 357 651 357 651 430 551 c 0,30,31
 491 470 491 470 511 371 c 0,32,33
 522 320 522 320 513 272.5 c 128,-1,34
 504 225 504 225 476 179 c 1,35,36
 502 163 502 163 551 156 c 128,-1,37
 600 149 600 149 672 149 c 2,38,-1
 697 149 l 2,39,40
 712 149 712 149 721 114 c 2,41,-1
 737 35 l 2,0,1
456 336 m 0,42,43
 445 389 445 389 388 445 c 0,44,45
 334 501 334 501 286 501 c 0,46,47
 234 501 234 501 192 451 c 0,48,49
 154 400 154 400 164 349 c 0,50,51
 169 327 169 327 189 304 c 128,-1,52
 209 281 209 281 247 258 c 0,53,54
 314 212 314 212 353 212 c 0,55,56
 365 212 365 212 380.5 222 c 128,-1,57
 396 232 396 232 416 249 c 0,58,59
 442 271 442 271 451.5 293 c 128,-1,60
 461 315 461 315 456 336 c 0,42,43
EndSplineSet
EndChar

StartChar: afii57375
Encoding: 1619 1619 202
Width: 596
GlyphClass: 2
Flags: W
LayerCount: 2
Fore
SplineSet
284 1033 m 0,0,1
 215 965 215 965 92 965 c 0,2,3
 74 965 74 965 37 969.5 c 128,-1,4
 0 974 0 974 -17 974 c 0,5,6
 -29 974 -29 974 -45.5 946 c 128,-1,7
 -62 918 -62 918 -71 918 c 0,8,9
 -88 918 -88 918 -93 942 c 0,10,11
 -96 958 -96 958 -85 1007 c 0,12,13
 -72 1061 -72 1061 -54 1061 c 0,14,15
 -29 1061 -29 1061 22 1052.5 c 128,-1,16
 73 1044 73 1044 98 1044 c 0,17,18
 208 1044 208 1044 258 1059 c 0,19,20
 286 1067 286 1067 295 1067 c 0,21,22
 303 1067 303 1067 304 1062 c 0,23,24
 305 1054 305 1054 284 1033 c 0,0,1
EndSplineSet
EndChar

StartChar: afii57471
Encoding: 65550 -1 203
Width: 1499
Flags: W
LayerCount: 2
Fore
SplineSet
1512 35 m 1,0,1
 1521 0 1521 0 1504 0 c 2,2,-1
 1472 0 l 2,3,4
 1290 0 1290 0 1220 181 c 1,5,6
 1058 -13 1058 -13 569 -13 c 0,7,8
 115 -13 115 -13 55 268 c 0,9,10
 46 309 46 309 46 349 c 128,-1,11
 46 389 46 389 56 427 c 0,12,13
 71 498 71 498 95 498 c 0,14,15
 122 498 122 498 126 473 c 0,16,17
 126 471 126 471 124.5 460.5 c 128,-1,18
 123 450 123 450 117 427 c 0,19,20
 112 406 112 406 112 384 c 128,-1,21
 112 362 112 362 117 341 c 0,22,23
 139 239 139 239 253.5 187.5 c 128,-1,24
 368 136 368 136 577 136 c 0,25,26
 711 136 711 136 820 151.5 c 128,-1,27
 929 167 929 167 1014 197 c 0,28,29
 1141 245 1141 245 1178 311 c 0,30,31
 1228 400 1228 400 1250 400 c 0,32,33
 1275 400 1275 400 1280 375 c 0,34,35
 1281 370 1281 370 1281.5 356.5 c 128,-1,36
 1282 343 1282 343 1280 322 c 0,37,38
 1279 302 1279 302 1279.5 286 c 128,-1,39
 1280 270 1280 270 1282 258 c 0,40,41
 1306 149 1306 149 1448 149 c 2,42,-1
 1472 149 l 2,43,44
 1489 149 1489 149 1496 114 c 2,45,-1
 1512 35 l 1,46,-1
 1512 35 l 1,0,1
EndSplineSet
EndChar

StartChar: afii52258
Encoding: 65551 -1 204
Width: 1512
GlyphClass: 2
Flags: W
LayerCount: 2
Fore
SplineSet
1526 35 m 2,0,1
 1535 0 1535 0 1517 0 c 2,2,-1
 1492 0 l 2,3,4
 1312 0 1312 0 1157 89 c 1,5,6
 957 -13 957 -13 569 -13 c 0,7,8
 115 -13 115 -13 55 268 c 0,9,10
 46 309 46 309 46 349 c 128,-1,11
 46 389 46 389 56 427 c 0,12,13
 71 498 71 498 95 498 c 0,14,15
 122 498 122 498 126 473 c 0,16,17
 126 471 126 471 124.5 460.5 c 128,-1,18
 123 450 123 450 117 427 c 0,19,20
 112 406 112 406 112 384 c 128,-1,21
 112 362 112 362 117 341 c 0,22,23
 139 239 139 239 253.5 187.5 c 128,-1,24
 368 136 368 136 577 136 c 0,25,26
 718 136 718 136 824 146 c 128,-1,27
 930 156 930 156 1002 176 c 1,28,29
 910 248 910 248 895 318 c 0,30,31
 882 381 882 381 888 438.5 c 128,-1,32
 894 496 894 496 922 548 c 0,33,34
 948 600 948 600 984 625.5 c 128,-1,35
 1020 651 1020 651 1064 651 c 0,36,37
 1147 651 1147 651 1218 551 c 0,38,39
 1248 511 1248 511 1269 465.5 c 128,-1,40
 1290 420 1290 420 1300 371 c 0,41,42
 1311 320 1311 320 1301.5 272.5 c 128,-1,43
 1292 225 1292 225 1265 179 c 1,44,45
 1289 163 1289 163 1328 156 c 128,-1,46
 1367 149 1367 149 1421 149 c 2,47,-1
 1485 149 l 2,48,49
 1501 149 1501 149 1510 114 c 2,50,-1
 1526 35 l 2,0,1
1244 336 m 0,51,52
 1233 390 1233 390 1177 445 c 0,53,54
 1121 501 1121 501 1074 501 c 0,55,56
 1023 501 1023 501 981 451 c 0,57,58
 942 401 942 401 952 349 c 0,59,60
 962 303 962 303 1035 258 c 0,61,62
 1102 212 1102 212 1142 212 c 0,63,64
 1152 212 1152 212 1168 222 c 128,-1,65
 1184 232 1184 232 1204 249 c 0,66,67
 1230 271 1230 271 1239.5 293 c 128,-1,68
 1249 315 1249 315 1244 336 c 0,51,52
EndSplineSet
EndChar

StartChar: afii62889
Encoding: 65552 -1 210
Width: 1289
Flags: W
LayerCount: 2
Fore
SplineSet
1304 35 m 2,0,1
 1311 0 1311 0 1295 0 c 2,2,-1
 1271 0 l 1,3,-1
 1127 2 l 1,4,5
 1132 -17 1132 -17 1138.5 -43 c 128,-1,6
 1145 -69 1145 -69 1153 -105 c 0,7,8
 1190 -287 1190 -287 1072 -399 c 0,9,10
 1001 -467 1001 -467 880.5 -500 c 128,-1,11
 760 -533 760 -533 590 -533 c 0,12,13
 518 -533 518 -533 452.5 -515 c 128,-1,14
 387 -497 387 -497 327 -459 c 0,15,16
 253 -412 253 -412 207.5 -347.5 c 128,-1,17
 162 -283 162 -283 145 -197 c 0,18,19
 116 -69 116 -69 145 46 c 0,20,21
 170 151 170 151 206 151 c 0,22,23
 228 151 228 151 233 130 c 1,24,25
 233 132 233 132 228.5 112.5 c 128,-1,26
 224 93 224 93 214 54 c 0,27,28
 197 -22 197 -22 215 -108 c 0,29,30
 270 -373 270 -373 622 -373 c 0,31,32
 724 -373 724 -373 811 -354.5 c 128,-1,33
 898 -336 898 -336 972 -298 c 0,34,35
 1116 -225 1116 -225 1098 -142 c 0,36,37
 1079 -50 1079 -50 1046 11 c 1,38,39
 1021 6 1021 6 978 3 c 128,-1,40
 935 0 935 0 872 0 c 0,41,42
 682 0 682 0 652 142 c 0,43,44
 623 272 623 272 659 380 c 0,45,46
 698 496 698 496 778 496 c 0,47,48
 882 496 882 496 976 371 c 0,49,50
 1009 326 1009 326 1038.5 270.5 c 128,-1,51
 1068 215 1068 215 1092 149 c 1,52,-1
 1263 149 l 2,53,54
 1279 149 1279 149 1288 114 c 2,55,-1
 1304 35 l 2,0,1
998 160 m 1,56,57
 988 187 988 187 968.5 216 c 128,-1,58
 949 245 949 245 922 274 c 0,59,60
 887 310 887 310 856 328.5 c 128,-1,61
 825 347 825 347 796 347 c 0,62,63
 775 347 775 347 757 337.5 c 128,-1,64
 739 328 739 328 727 313 c 128,-1,65
 715 298 715 298 710 279 c 128,-1,66
 705 260 705 260 709 240 c 0,67,68
 720 192 720 192 759 170.5 c 128,-1,69
 798 149 798 149 884 149 c 0,70,71
 968 149 968 149 998 160 c 1,56,57
EndSplineSet
EndChar

StartChar: afii62887
Encoding: 65553 -1 211
Width: 1416
Flags: W
LayerCount: 2
Fore
SplineSet
1154 531 m 1,0,1
 1185 502 1185 502 1208.5 475.5 c 128,-1,2
 1232 449 1232 449 1250 418.5 c 128,-1,3
 1268 388 1268 388 1281.5 351.5 c 128,-1,4
 1295 315 1295 315 1305 267 c 0,5,6
 1312 235 1312 235 1309 202.5 c 128,-1,7
 1306 170 1306 170 1292.5 140.5 c 128,-1,8
 1279 111 1279 111 1253.5 87 c 128,-1,9
 1228 63 1228 63 1189 50 c 0,10,11
 1134 31 1134 31 1072 19 c 128,-1,12
 1010 7 1010 7 935.5 0 c 128,-1,13
 861 -7 861 -7 770.5 -10 c 128,-1,14
 680 -13 680 -13 569 -13 c 0,15,16
 342 -13 342 -13 214 54 c 128,-1,17
 86 121 86 121 55 268 c 0,18,19
 45 313 45 313 47 354.5 c 128,-1,20
 49 396 49 396 56.5 428 c 128,-1,21
 64 460 64 460 75 479 c 128,-1,22
 86 498 86 498 95 498 c 0,23,24
 106 498 106 498 115 492 c 128,-1,25
 124 486 124 486 126 473 c 0,26,27
 127 466 127 466 124 455 c 128,-1,28
 121 444 121 444 117.5 427.5 c 128,-1,29
 114 411 114 411 112.5 389.5 c 128,-1,30
 111 368 111 368 117 341 c 0,31,32
 125 302 125 302 149.5 265.5 c 128,-1,33
 174 229 174 229 231 200 c 128,-1,34
 288 171 288 171 384.5 153.5 c 128,-1,35
 481 136 481 136 634 136 c 0,36,37
 750 136 750 136 860.5 142 c 128,-1,38
 971 148 971 148 1055.5 161 c 128,-1,39
 1140 174 1140 174 1189 194 c 128,-1,40
 1238 214 1238 214 1232 242 c 0,41,42
 1230 251 1230 251 1224.5 262 c 128,-1,43
 1219 273 1219 273 1206.5 289 c 128,-1,44
 1194 305 1194 305 1172.5 328 c 128,-1,45
 1151 351 1151 351 1117 384 c 1,46,-1
 1154 531 l 1,47,-1
 1154 531 l 1,0,1
EndSplineSet
EndChar

StartChar: afii62888
Encoding: 1697 1697 212
Width: 1466
GlyphClass: 2
Flags: W
LayerCount: 2
Fore
SplineSet
1350 336 m 0,0,1
 1397 119 1397 119 1230 50 c 0,2,3
 1154 18 1154 18 989 2.5 c 128,-1,4
 824 -13 824 -13 569 -13 c 0,5,6
 115 -13 115 -13 55 268 c 0,7,8
 46 309 46 309 46 349 c 128,-1,9
 46 389 46 389 56 427 c 0,10,11
 71 498 71 498 95 498 c 0,12,13
 122 498 122 498 126 473 c 0,14,15
 126 471 126 471 124.5 460.5 c 128,-1,16
 123 450 123 450 117 427 c 0,17,18
 112 406 112 406 112 384 c 128,-1,19
 112 362 112 362 117 341 c 0,20,21
 139 239 139 239 253.5 187.5 c 128,-1,22
 368 136 368 136 577 136 c 0,23,24
 1044 136 1044 136 1203 187 c 0,25,26
 1312 219 1312 219 1297 290 c 0,27,28
 1292 307 1292 307 1287 319.5 c 128,-1,29
 1282 332 1282 332 1274 343 c 1,30,31
 1236 317 1236 317 1099 317 c 0,32,33
 912 317 912 317 882 460 c 0,34,35
 871 513 871 513 871.5 564 c 128,-1,36
 872 615 872 615 883 667 c 0,37,38
 911 805 911 805 1007 805 c 0,39,40
 1128 805 1128 805 1223 663 c 0,41,42
 1306 540 1306 540 1350 336 c 0,0,1
1218 487 m 1,43,44
 1207 516 1207 516 1188 543.5 c 128,-1,45
 1169 571 1169 571 1142 598 c 0,46,47
 1112 627 1112 627 1081 641.5 c 128,-1,48
 1050 656 1050 656 1021 656 c 0,49,50
 1001 656 1001 656 984 648 c 128,-1,51
 967 640 967 640 955.5 626 c 128,-1,52
 944 612 944 612 939.5 594 c 128,-1,53
 935 576 935 576 940 555 c 0,54,55
 960 466 960 466 1094 466 c 0,56,57
 1179 466 1179 466 1218 487 c 1,43,44
EndSplineSet
Substitution2: "'fina' Terminal Forms in Arabic lookup 3 subtable" afii52258
Substitution2: "'medi' Medial Forms in Arabic lookup 2 subtable" afii57374
Substitution2: "'init' Initial Forms in Arabic lookup 1 subtable" afii57459
EndChar

StartChar: afii57567
Encoding: 1705 1705 219
Width: 1610
GlyphClass: 2
Flags: W
AnchorPoint: "Anchor-3" 570 -450 basechar 0
AnchorPoint: "Anchor-2" 465 1020 basechar 0
LayerCount: 2
Fore
SplineSet
1377 1096 m 1,0,-1
 782 861 l 1,1,-1
 1000 674 l 1,2,3
 1204 486 1204 486 1244 302 c 0,4,5
 1270 177 1270 177 1223 107 c 128,-1,6
 1176 37 1176 37 1041 13 c 0,7,8
 899 -13 899 -13 569 -13 c 0,9,10
 115 -13 115 -13 55 268 c 0,11,12
 46 309 46 309 46 349 c 128,-1,13
 46 389 46 389 56 427 c 0,14,15
 71 498 71 498 95 498 c 0,16,17
 122 498 122 498 126 473 c 0,18,19
 126 471 126 471 124.5 460.5 c 128,-1,20
 123 450 123 450 117 427 c 0,21,22
 112 406 112 406 112 384 c 128,-1,23
 112 362 112 362 117 341 c 0,24,25
 139 239 139 239 253.5 187.5 c 128,-1,26
 368 136 368 136 577 136 c 0,27,28
 763 136 763 136 888 147 c 128,-1,29
 1013 158 1013 158 1082 179 c 0,30,31
 1199 215 1199 215 1180 302 c 0,32,33
 1166 368 1166 368 1063 477 c 0,34,35
 965 577 965 577 877 633 c 1,36,-1
 874 604 l 1,37,38
 725 719 725 719 713 777 c 0,39,40
 675 955 675 955 747 984 c 2,41,-1
 1392 1245 l 1,42,-1
 1377 1096 l 1,0,-1
EndSplineSet
Substitution2: "'fina' Terminal Forms in Arabic lookup 3 subtable" afii62964
Substitution2: "'medi' Medial Forms in Arabic lookup 2 subtable" afii52306
Substitution2: "'init' Initial Forms in Arabic lookup 1 subtable" afii52305
EndChar

StartChar: afii62964
Encoding: 64399 64399 220
Width: 1748
GlyphClass: 2
Flags: W
AnchorPoint: "Anchor-3" 675 -465 basechar 0
AnchorPoint: "Anchor-2" 510 990 basechar 0
LayerCount: 2
Fore
SplineSet
1763 35 m 1,0,1
 1770 0 1770 0 1754 0 c 2,2,-1
 1730 0 l 2,3,4
 1612 0 1612 0 1514 64 c 0,5,6
 1474 90 1474 90 1407.5 149 c 128,-1,7
 1341 208 1341 208 1244 302 c 1,8,9
 1267 170 1267 170 1222 106 c 0,10,11
 1175 39 1175 39 1041 13 c 0,12,13
 899 -13 899 -13 569 -13 c 0,14,15
 115 -13 115 -13 55 268 c 0,16,17
 46 309 46 309 46 349 c 128,-1,18
 46 389 46 389 56 427 c 0,19,20
 71 498 71 498 95 498 c 0,21,22
 122 498 122 498 126 473 c 0,23,24
 126 471 126 471 124.5 460.5 c 128,-1,25
 123 450 123 450 117 427 c 0,26,27
 112 406 112 406 112 384 c 128,-1,28
 112 362 112 362 117 341 c 0,29,30
 139 239 139 239 253.5 187.5 c 128,-1,31
 368 136 368 136 577 136 c 0,32,33
 763 136 763 136 888 147 c 128,-1,34
 1013 158 1013 158 1082 179 c 0,35,36
 1199 215 1199 215 1180 302 c 0,37,38
 1165 372 1165 372 1046 487 c 0,39,40
 1015 516 1015 516 960 562.5 c 128,-1,41
 905 609 905 609 827 672 c 0,42,43
 713 768 713 768 709 784 c 0,44,45
 673 956 673 956 733 980 c 2,46,-1
 1392 1245 l 1,47,-1
 1377 1096 l 1,48,-1
 782 861 l 1,49,50
 792 848 792 848 958.5 698 c 128,-1,51
 1125 548 1125 548 1445 259 c 0,52,53
 1567 149 1567 149 1707 149 c 2,54,-1
 1722 149 l 2,55,56
 1739 149 1739 149 1746 114 c 2,57,-1
 1763 35 l 1,58,-1
 1763 35 l 1,0,1
EndSplineSet
EndChar

StartChar: afii52305
Encoding: 64400 64400 221
Width: 787
GlyphClass: 2
Flags: W
AnchorPoint: "Anchor-3" 315 -555 basechar 0
AnchorPoint: "Anchor-2" 0 1215 basechar 0
LayerCount: 2
Fore
SplineSet
-41 861 m 1,0,1
 -33 849 -33 849 -0.5 823.5 c 128,-1,2
 32 798 32 798 78 760.5 c 128,-1,3
 124 723 124 723 177.5 674.5 c 128,-1,4
 231 626 231 626 279.5 567.5 c 128,-1,5
 328 509 328 509 366 441.5 c 128,-1,6
 404 374 404 374 420 300 c 0,7,8
 435 231 435 231 429.5 184.5 c 128,-1,9
 424 138 424 138 399 105 c 0,10,11
 375 72 375 72 338 51 c 128,-1,12
 301 30 301 30 254 19 c 128,-1,13
 207 8 207 8 150 4 c 128,-1,14
 93 0 93 0 28 0 c 2,15,-1
 -5 0 l 2,16,17
 -23 0 -23 0 -30 35 c 2,18,-1
 -46 114 l 2,19,20
 -55 149 -55 149 -36 149 c 2,21,-1
 -13 149 l 2,22,23
 188 149 188 149 281 184.5 c 128,-1,24
 374 220 374 220 357 300 c 0,25,26
 349 336 349 336 316.5 382.5 c 128,-1,27
 284 429 284 429 239 476.5 c 128,-1,28
 194 524 194 524 144.5 565.5 c 128,-1,29
 95 607 95 607 54 633 c 1,30,-1
 50 604 l 1,31,32
 30 621 30 621 3.5 643 c 128,-1,33
 -23 665 -23 665 -47 688.5 c 128,-1,34
 -71 712 -71 712 -89 735 c 128,-1,35
 -107 758 -107 758 -111 777 c 0,36,37
 -131 872 -131 872 -117.5 922.5 c 128,-1,38
 -104 973 -104 973 -76 984 c 2,39,-1
 568 1245 l 1,40,-1
 553 1096 l 1,41,-1
 -41 861 l 1,0,1
EndSplineSet
EndChar

StartChar: afii52306
Encoding: 64401 64401 222
Width: 928
GlyphClass: 2
Flags: W
AnchorPoint: "Anchor-3" 405 -510 basechar 0
AnchorPoint: "Anchor-2" 0 1245 basechar 0
LayerCount: 2
Fore
SplineSet
-46 114 m 1,0,1
 -55 149 -55 149 -36 149 c 2,2,-1
 -13 149 l 2,3,4
 57 149 57 149 128.5 153.5 c 128,-1,5
 200 158 200 158 255 174 c 128,-1,6
 310 190 310 190 340.5 220 c 128,-1,7
 371 250 371 250 360 300 c 0,8,9
 354 330 354 330 331 365 c 128,-1,10
 308 400 308 400 274 437 c 128,-1,11
 240 474 240 474 199 511 c 128,-1,12
 158 548 158 548 116 583.5 c 128,-1,13
 74 619 74 619 34 651 c 128,-1,14
 -6 683 -6 683 -37.5 709.5 c 128,-1,15
 -69 736 -69 736 -89 755 c 128,-1,16
 -109 774 -109 774 -111 784 c 0,17,18
 -114 800 -114 800 -118.5 829.5 c 128,-1,19
 -123 859 -123 859 -122.5 889.5 c 128,-1,20
 -122 920 -122 920 -114.5 945.5 c 128,-1,21
 -107 971 -107 971 -86 980 c 2,22,-1
 572 1245 l 1,23,-1
 557 1096 l 1,24,-1
 -37 861 l 1,25,26
 -32 857 -32 857 -24 849 c 128,-1,27
 -16 841 -16 841 6.5 820 c 128,-1,28
 29 799 29 799 70.5 760.5 c 128,-1,29
 112 722 112 722 183.5 656.5 c 128,-1,30
 255 591 255 591 363 494 c 128,-1,31
 471 397 471 397 625 259 c 0,32,33
 650 236 650 236 677.5 216 c 128,-1,34
 705 196 705 196 736.5 181 c 128,-1,35
 768 166 768 166 805 157.5 c 128,-1,36
 842 149 842 149 887 149 c 2,37,-1
 902 149 l 2,38,39
 912 149 912 149 916.5 140.5 c 128,-1,40
 921 132 921 132 925 114 c 2,41,-1
 942 35 l 2,42,43
 950 0 950 0 934 0 c 2,44,-1
 909 0 l 2,45,46
 847 0 847 0 797 14.5 c 128,-1,47
 747 29 747 29 694 64 c 128,-1,48
 641 99 641 99 577 156.5 c 128,-1,49
 513 214 513 214 424 300 c 1,50,51
 441 211 441 211 423 153.5 c 128,-1,52
 405 96 405 96 354 61.5 c 128,-1,53
 303 27 303 27 218.5 13.5 c 128,-1,54
 134 0 134 0 18 0 c 2,55,-1
 -5 0 l 2,56,57
 -23 0 -23 0 -30 35 c 2,58,-1
 -46 114 l 1,59,-1
 -46 114 l 1,0,1
EndSplineSet
EndChar

StartChar: afii57509
Encoding: 1711 1711 223
Width: 1610
GlyphClass: 2
Flags: W
AnchorPoint: "Anchor-3" 600 -465 basechar 0
AnchorPoint: "Anchor-2" 345 1110 basechar 0
LayerCount: 2
Fore
SplineSet
1406 939 m 1,0,1
 1342 920 1342 920 1263.5 894 c 128,-1,2
 1185 868 1185 868 1108 841 c 128,-1,3
 1031 814 1031 814 964 789 c 128,-1,4
 897 764 897 764 856 747 c 1,5,6
 916 702 916 702 975 657.5 c 128,-1,7
 1034 613 1034 613 1085 561 c 0,8,9
 1114 529 1114 529 1138.5 498.5 c 128,-1,10
 1163 468 1163 468 1182 437 c 128,-1,11
 1201 406 1201 406 1215 372.5 c 128,-1,12
 1229 339 1229 339 1237 300 c 0,13,14
 1256 213 1256 213 1239 153 c 128,-1,15
 1222 93 1222 93 1164 56 c 128,-1,16
 1106 19 1106 19 1004 3 c 128,-1,17
 902 -13 902 -13 749 -13 c 2,18,-1
 569 -13 l 2,19,20
 342 -13 342 -13 214 54 c 128,-1,21
 86 121 86 121 55 268 c 0,22,23
 45 313 45 313 47 354.5 c 128,-1,24
 49 396 49 396 56.5 428 c 128,-1,25
 64 460 64 460 75 479 c 128,-1,26
 86 498 86 498 95 498 c 0,27,28
 106 498 106 498 115 492 c 128,-1,29
 124 486 124 486 126 473 c 0,30,31
 127 466 127 466 124 455 c 128,-1,32
 121 444 121 444 117.5 427.5 c 128,-1,33
 114 411 114 411 112.5 389.5 c 128,-1,34
 111 368 111 368 117 341 c 0,35,36
 125 302 125 302 152 265.5 c 128,-1,37
 179 229 179 229 232.5 200 c 128,-1,38
 286 171 286 171 370 153.5 c 128,-1,39
 454 136 454 136 577 136 c 0,40,41
 771 136 771 136 892 146.5 c 128,-1,42
 1013 157 1013 157 1078.5 177.5 c 128,-1,43
 1144 198 1144 198 1163 228.5 c 128,-1,44
 1182 259 1182 259 1173 300 c 0,45,46
 1169 322 1169 322 1150.5 349 c 128,-1,47
 1132 376 1132 376 1106 404 c 128,-1,48
 1080 432 1080 432 1048.5 460 c 128,-1,49
 1017 488 1017 488 986 513 c 128,-1,50
 955 538 955 538 928 557.5 c 128,-1,51
 901 577 901 577 883 589 c 1,52,-1
 882 559 l 1,53,-1
 786 642 l 2,54,55
 768 658 768 658 756 669 c 128,-1,56
 744 680 744 680 737 687.5 c 128,-1,57
 730 695 730 695 727 700.5 c 128,-1,58
 724 706 724 706 723 712 c 0,59,60
 721 720 721 720 723 741 c 128,-1,61
 725 762 725 762 729 784.5 c 128,-1,62
 733 807 733 807 738 824.5 c 128,-1,63
 743 842 743 842 748 844 c 0,64,65
 750 845 750 845 754 847 c 128,-1,66
 758 849 758 849 768.5 852.5 c 128,-1,67
 779 856 779 856 798.5 863 c 128,-1,68
 818 870 818 870 851 882 c 2,69,-1
 966 923 l 2,70,71
 1042 947 1042 947 1152.5 985 c 128,-1,72
 1263 1023 1263 1023 1424 1077 c 1,73,-1
 1406 939 l 1,0,1
1342 1178 m 1,74,75
 1283 1159 1283 1159 1206.5 1133 c 128,-1,76
 1130 1107 1130 1107 1049 1078 c 128,-1,77
 968 1049 968 1049 887.5 1018.5 c 128,-1,78
 807 988 807 988 740 960 c 1,79,-1
 754 1068 l 1,80,-1
 1354 1282 l 1,81,-1
 1342 1178 l 1,74,75
EndSplineSet
Substitution2: "'fina' Terminal Forms in Arabic lookup 3 subtable" afii62967
Substitution2: "'medi' Medial Forms in Arabic lookup 2 subtable" afii62966
Substitution2: "'init' Initial Forms in Arabic lookup 1 subtable" afii62965
EndChar

StartChar: afii62967
Encoding: 64403 64403 224
Width: 1748
GlyphClass: 2
Flags: W
AnchorPoint: "Anchor-3" 645 -525 basechar 0
AnchorPoint: "Anchor-2" 465 1200 basechar 0
LayerCount: 2
Fore
SplineSet
1406 939 m 1,0,1
 1342 920 1342 920 1263.5 894 c 128,-1,2
 1185 868 1185 868 1108 841 c 128,-1,3
 1031 814 1031 814 964 789 c 128,-1,4
 897 764 897 764 856 747 c 1,5,6
 895 721 895 721 934.5 690.5 c 128,-1,7
 974 660 974 660 1016.5 624 c 128,-1,8
 1059 588 1059 588 1107.5 546.5 c 128,-1,9
 1156 505 1156 505 1213 457 c 2,10,-1
 1444 254 l 2,11,12
 1474 228 1474 228 1504 208.5 c 128,-1,13
 1534 189 1534 189 1566 175.5 c 128,-1,14
 1598 162 1598 162 1634 155.5 c 128,-1,15
 1670 149 1670 149 1711 149 c 2,16,-1
 1722 149 l 2,17,18
 1739 149 1739 149 1746 114 c 2,19,-1
 1763 35 l 2,20,21
 1771 0 1771 0 1754 0 c 2,22,-1
 1730 0 l 2,23,24
 1693 0 1693 0 1660.5 4.5 c 128,-1,25
 1628 9 1628 9 1595.5 21 c 128,-1,26
 1563 33 1563 33 1528 54.5 c 128,-1,27
 1493 76 1493 76 1451.5 109.5 c 128,-1,28
 1410 143 1410 143 1359 189.5 c 128,-1,29
 1308 236 1308 236 1244 300 c 1,30,31
 1258 231 1258 231 1253 184.5 c 128,-1,32
 1248 138 1248 138 1222 105 c 0,33,34
 1198 70 1198 70 1155.5 47.5 c 128,-1,35
 1113 25 1113 25 1039 11.5 c 128,-1,36
 965 -2 965 -2 851 -7.5 c 128,-1,37
 737 -13 737 -13 569 -13 c 0,38,39
 342 -13 342 -13 214 54 c 128,-1,40
 86 121 86 121 55 268 c 0,41,42
 45 313 45 313 47 354.5 c 128,-1,43
 49 396 49 396 56.5 428 c 128,-1,44
 64 460 64 460 75 479 c 128,-1,45
 86 498 86 498 95 498 c 0,46,47
 106 498 106 498 115 492 c 128,-1,48
 124 486 124 486 126 473 c 0,49,50
 127 466 127 466 124 455 c 128,-1,51
 121 444 121 444 117.5 427.5 c 128,-1,52
 114 411 114 411 112.5 389.5 c 128,-1,53
 111 368 111 368 117 341 c 0,54,55
 125 302 125 302 152 265.5 c 128,-1,56
 179 229 179 229 232.5 200 c 128,-1,57
 286 171 286 171 370 153.5 c 128,-1,58
 454 136 454 136 577 136 c 0,59,60
 770 136 770 136 892 146 c 128,-1,61
 1014 156 1014 156 1081 176.5 c 128,-1,62
 1148 197 1148 197 1168.5 228 c 128,-1,63
 1189 259 1189 259 1180 300 c 0,64,65
 1175 322 1175 322 1157.5 348.5 c 128,-1,66
 1140 375 1140 375 1114 404 c 128,-1,67
 1088 433 1088 433 1055 463.5 c 128,-1,68
 1022 494 1022 494 986 523 c 0,69,70
 942 561 942 561 898.5 594 c 128,-1,71
 855 627 855 627 819.5 654 c 128,-1,72
 784 681 784 681 760.5 702 c 128,-1,73
 737 723 737 723 734 736 c 0,74,75
 732 743 732 743 733.5 760 c 128,-1,76
 735 777 735 777 738 795 c 128,-1,77
 741 813 741 813 743.5 827.5 c 128,-1,78
 746 842 746 842 748 844 c 0,79,80
 750 845 750 845 754 847 c 128,-1,81
 758 849 758 849 768.5 852.5 c 128,-1,82
 779 856 779 856 798.5 863 c 128,-1,83
 818 870 818 870 851 882 c 2,84,-1
 966 923 l 2,85,86
 1042 947 1042 947 1152.5 985 c 128,-1,87
 1263 1023 1263 1023 1424 1077 c 1,88,-1
 1406 939 l 1,0,1
1342 1178 m 1,89,90
 1283 1159 1283 1159 1206.5 1133 c 128,-1,91
 1130 1107 1130 1107 1049 1078 c 128,-1,92
 968 1049 968 1049 887.5 1018.5 c 128,-1,93
 807 988 807 988 740 960 c 1,94,-1
 754 1068 l 1,95,-1
 1354 1282 l 1,96,-1
 1342 1178 l 1,89,90
EndSplineSet
EndChar

StartChar: afii62965
Encoding: 64404 64404 225
Width: 807
GlyphClass: 2
Flags: W
AnchorPoint: "Anchor-3" 330 -480 basechar 0
AnchorPoint: "Anchor-2" 0 1440 basechar 0
LayerCount: 2
Fore
SplineSet
595 939 m 1,0,1
 532 919 532 919 453.5 893 c 128,-1,2
 375 867 375 867 298 840 c 128,-1,3
 221 813 221 813 154 788.5 c 128,-1,4
 87 764 87 764 45 747 c 1,5,6
 106 702 106 702 164.5 657.5 c 128,-1,7
 223 613 223 613 272 561 c 0,8,9
 303 529 303 529 328 499 c 128,-1,10
 353 469 353 469 372 438 c 128,-1,11
 391 407 391 407 404.5 373 c 128,-1,12
 418 339 418 339 426 300 c 0,13,14
 445 211 445 211 427.5 153.5 c 128,-1,15
 410 96 410 96 357.5 61.5 c 128,-1,16
 305 27 305 27 219.5 13.5 c 128,-1,17
 134 0 134 0 18 0 c 2,18,-1
 -5 0 l 2,19,20
 -23 0 -23 0 -30 35 c 2,21,-1
 -46 114 l 2,22,23
 -55 149 -55 149 -36 149 c 2,24,-1
 -13 149 l 2,25,26
 34 149 34 149 82 151 c 128,-1,27
 130 153 130 153 174 158.5 c 128,-1,28
 218 164 218 164 255.5 174.5 c 128,-1,29
 293 185 293 185 319 201.5 c 128,-1,30
 345 218 345 218 357 242 c 128,-1,31
 369 266 369 266 362 300 c 0,32,33
 358 322 358 322 339.5 349 c 128,-1,34
 321 376 321 376 295 404 c 128,-1,35
 269 432 269 432 237.5 460 c 128,-1,36
 206 488 206 488 175 513 c 128,-1,37
 144 538 144 538 117 557.5 c 128,-1,38
 90 577 90 577 72 589 c 1,39,-1
 71 559 l 1,40,41
 45 580 45 580 19.5 601.5 c 128,-1,42
 -6 623 -6 623 -24 642 c 0,43,44
 -42 658 -42 658 -54 669 c 128,-1,45
 -66 680 -66 680 -73 687.5 c 128,-1,46
 -80 695 -80 695 -83 700.5 c 128,-1,47
 -86 706 -86 706 -87 712 c 0,48,49
 -89 720 -89 720 -87 741 c 128,-1,50
 -85 762 -85 762 -81 784.5 c 128,-1,51
 -77 807 -77 807 -72 824.5 c 128,-1,52
 -67 842 -67 842 -62 844 c 0,53,54
 -61 845 -61 845 -56.5 847 c 128,-1,55
 -52 849 -52 849 -41 853 c 128,-1,56
 -30 857 -30 857 -11 864 c 128,-1,57
 8 871 8 871 40 882 c 2,58,-1
 156 923 l 2,59,60
 231 947 231 947 341.5 985 c 128,-1,61
 452 1023 452 1023 613 1077 c 1,62,-1
 595 939 l 1,0,1
531 1178 m 1,63,64
 472 1159 472 1159 395.5 1133 c 128,-1,65
 319 1107 319 1107 238 1078 c 128,-1,66
 157 1049 157 1049 77 1018.5 c 128,-1,67
 -3 988 -3 988 -70 960 c 1,68,-1
 -56 1068 l 1,69,-1
 543 1282 l 1,70,-1
 531 1178 l 1,63,64
EndSplineSet
EndChar

StartChar: afii62966
Encoding: 64405 64405 226
Width: 928
GlyphClass: 2
Flags: W
AnchorPoint: "Anchor-3" 420 -510 basechar 0
AnchorPoint: "Anchor-2" 15 1425 basechar 0
LayerCount: 2
Fore
SplineSet
-46 114 m 2,0,1
 -55 149 -55 149 -36 149 c 2,2,-1
 -13 149 l 2,3,4
 34 149 34 149 82 151 c 128,-1,5
 130 153 130 153 174 158.5 c 128,-1,6
 218 164 218 164 255.5 174.5 c 128,-1,7
 293 185 293 185 319 201.5 c 128,-1,8
 345 218 345 218 357 242 c 128,-1,9
 369 266 369 266 362 300 c 0,10,11
 357 322 357 322 339.5 348.5 c 128,-1,12
 322 375 322 375 296 404 c 128,-1,13
 270 433 270 433 236.5 463.5 c 128,-1,14
 203 494 203 494 167 523 c 0,15,16
 124 561 124 561 80.5 594 c 128,-1,17
 37 627 37 627 1.5 654 c 128,-1,18
 -34 681 -34 681 -57 702 c 128,-1,19
 -80 723 -80 723 -83 736 c 0,20,21
 -85 743 -85 743 -83 759.5 c 128,-1,22
 -81 776 -81 776 -78 794 c 128,-1,23
 -75 812 -75 812 -70.5 826.5 c 128,-1,24
 -66 841 -66 841 -62 844 c 0,25,26
 -61 845 -61 845 -56.5 847 c 128,-1,27
 -52 849 -52 849 -41 853 c 128,-1,28
 -30 857 -30 857 -11 864 c 128,-1,29
 8 871 8 871 40 882 c 2,30,-1
 156 923 l 2,31,32
 231 947 231 947 341.5 985 c 128,-1,33
 452 1023 452 1023 613 1077 c 1,34,-1
 595 939 l 1,35,36
 532 919 532 919 453.5 893 c 128,-1,37
 375 867 375 867 298 840 c 128,-1,38
 221 813 221 813 154 788.5 c 128,-1,39
 87 764 87 764 45 747 c 1,40,41
 81 720 81 720 118.5 690.5 c 128,-1,42
 156 661 156 661 198 625.5 c 128,-1,43
 240 590 240 590 288.5 548.5 c 128,-1,44
 337 507 337 507 395 457 c 2,45,-1
 626 254 l 2,46,47
 686 202 686 202 748 175.5 c 128,-1,48
 810 149 810 149 891 149 c 2,49,-1
 902 149 l 2,50,51
 912 149 912 149 916.5 140.5 c 128,-1,52
 921 132 921 132 925 114 c 2,53,-1
 942 35 l 2,54,55
 950 0 950 0 934 0 c 2,56,-1
 909 0 l 2,57,58
 855 0 855 0 808.5 11 c 128,-1,59
 762 22 762 22 709.5 54.5 c 128,-1,60
 657 87 657 87 589.5 146 c 128,-1,61
 522 205 522 205 426 300 c 1,62,63
 442 211 442 211 424 153.5 c 128,-1,64
 406 96 406 96 354 61.5 c 128,-1,65
 302 27 302 27 217.5 13.5 c 128,-1,66
 133 0 133 0 18 0 c 2,67,-1
 -5 0 l 2,68,69
 -23 0 -23 0 -30 35 c 2,70,-1
 -46 114 l 2,0,1
531 1178 m 1,71,72
 472 1159 472 1159 395.5 1133 c 128,-1,73
 319 1107 319 1107 238 1078 c 128,-1,74
 157 1049 157 1049 77 1018.5 c 128,-1,75
 -3 988 -3 988 -70 960 c 1,76,-1
 -56 1068 l 1,77,-1
 543 1282 l 1,78,-1
 531 1178 l 1,71,72
EndSplineSet
EndChar

StartChar: afii57555
Encoding: 1740 1740 227
Width: 1364
GlyphClass: 2
Flags: W
AnchorPoint: "Anchor-3" 570 -915 basechar 0
AnchorPoint: "Anchor-2" 450 705 basechar 0
LayerCount: 2
Fore
SplineSet
1231 369 m 0,0,1
 1236 349 1236 349 1220 349 c 1,2,3
 1222 349 1222 349 1206.5 354.5 c 128,-1,4
 1191 360 1191 360 1159 373 c 0,5,6
 1127 385 1127 385 1096.5 392 c 128,-1,7
 1066 399 1066 399 1036 399 c 0,8,9
 979 399 979 399 928 372.5 c 128,-1,10
 877 346 877 346 830 295 c 0,11,12
 747 200 747 200 763 125 c 0,13,14
 775 70 775 70 905 45 c 2,15,-1
 1090 7 l 2,16,17
 1164 -7 1164 -7 1196 -34 c 0,18,19
 1211 -46 1211 -46 1220.5 -64.5 c 128,-1,20
 1230 -83 1230 -83 1235 -106 c 0,21,22
 1287 -355 1287 -355 1077 -443 c 0,23,24
 867 -533 867 -533 646 -533 c 0,25,26
 456 -533 456 -533 328 -448 c 0,27,28
 177 -349 177 -349 135 -151 c 0,29,30
 104 -11 104 -11 136 103 c 0,31,32
 164 197 164 197 197 197 c 0,33,34
 218 197 218 197 223 177 c 1,35,36
 223 179 223 179 218.5 159.5 c 128,-1,37
 214 140 214 140 204 101 c 0,38,39
 195 61 195 61 195.5 21 c 128,-1,40
 196 -19 196 -19 205 -62 c 0,41,42
 270 -373 270 -373 648 -373 c 0,43,44
 734 -373 734 -373 820.5 -359 c 128,-1,45
 907 -345 907 -345 998 -317 c 0,46,47
 1189 -259 1189 -259 1175 -192 c 0,48,49
 1168 -155 1168 -155 1137 -142 c 0,50,51
 1130 -139 1130 -139 1114 -134.5 c 128,-1,52
 1098 -130 1098 -130 1072 -125 c 2,53,-1
 834 -76 l 2,54,55
 797 -69 797 -69 773 -60 c 128,-1,56
 749 -51 749 -51 737 -41 c 0,57,58
 720 -29 720 -29 709 -7.5 c 128,-1,59
 698 14 698 14 691 45 c 0,60,61
 663 175 663 175 754 350 c 0,62,63
 856 548 856 548 1013 548 c 0,64,65
 1052 548 1052 548 1088.5 534 c 128,-1,66
 1125 520 1125 520 1157 490 c 0,67,68
 1217 434 1217 434 1231 369 c 0,0,1
EndSplineSet
Substitution2: "'fina' Terminal Forms in Arabic lookup 3 subtable" afii52364
Substitution2: "'medi' Medial Forms in Arabic lookup 2 subtable" afii62832
Substitution2: "'init' Initial Forms in Arabic lookup 1 subtable" uniFBFE
EndChar

StartChar: afii52364
Encoding: 64509 64509 228
Width: 1348
GlyphClass: 2
Flags: W
AnchorPoint: "Anchor-3" 660 -1035 basechar 0
AnchorPoint: "Anchor-2" 420 465 basechar 0
LayerCount: 2
Fore
SplineSet
1361 35 m 1,0,1
 1370 0 1370 0 1353 0 c 2,2,-1
 1228 0 l 2,3,4
 798 0 798 0 815 -82 c 0,5,6
 822 -113 822 -113 1013 -138 c 0,7,8
 1084 -146 1084 -146 1129.5 -156 c 128,-1,9
 1175 -166 1175 -166 1197 -179 c 0,10,11
 1214 -189 1214 -189 1227 -209.5 c 128,-1,12
 1240 -230 1240 -230 1245 -261 c 0,13,14
 1307 -596 1307 -596 652 -596 c 0,15,16
 471 -596 471 -596 343 -520 c 0,17,18
 194 -434 194 -434 158 -261 c 0,19,20
 144 -197 144 -197 143.5 -135.5 c 128,-1,21
 143 -74 143 -74 157 -16 c 0,22,23
 184 87 184 87 219 87 c 0,24,25
 242 87 242 87 247 67 c 1,26,27
 246 68 246 68 227 -9 c 0,28,29
 210 -89 210 -89 227 -171 c 0,30,31
 260 -326 260 -326 391 -389 c 0,32,33
 505 -448 505 -448 723 -448 c 0,34,35
 824 -448 824 -448 908 -436.5 c 128,-1,36
 992 -425 992 -425 1061 -402 c 0,37,38
 1190 -362 1190 -362 1178 -313 c 0,39,40
 1173 -292 1173 -292 1065 -278 c 0,41,42
 990 -267 990 -267 939.5 -256.5 c 128,-1,43
 889 -246 889 -246 863 -238 c 0,44,45
 751 -206 751 -206 738 -142 c 0,46,47
 728 -100 728 -100 740.5 -58 c 128,-1,48
 753 -16 753 -16 784 26 c 0,49,50
 844 110 844 110 936 128 c 0,51,52
 982 139 982 139 1072.5 144 c 128,-1,53
 1163 149 1163 149 1297 149 c 2,54,-1
 1321 149 l 2,55,56
 1338 149 1338 149 1345 114 c 2,57,-1
 1361 35 l 1,58,-1
 1361 35 l 1,0,1
EndSplineSet
EndChar

StartChar: afii62882
Encoding: 64606 64606 229
Width: 0
GlyphClass: 4
Flags: W
AnchorPoint: "Anchor-2" 0 0 mark 0
AnchorPoint: "Anchor-0" 0 0 mark 0
LayerCount: 2
Fore
SplineSet
82 480 m 1,0,1
 77 453 77 453 70.5 437.5 c 128,-1,2
 64 422 64 422 56 414 c 1,3,-1
 -4 422 l 1,4,5
 -54 286 -54 286 -263 269 c 1,6,7
 -258 298 -258 298 -257 329 c 128,-1,8
 -256 360 -256 360 -264 394 c 0,9,10
 -275 448 -275 448 -331 448 c 0,11,12
 -346 448 -346 448 -366 441 c 128,-1,13
 -386 434 -386 434 -410 419 c 1,14,15
 -423 472 -423 472 -387 508 c 0,16,17
 -371 522 -371 522 -354.5 529 c 128,-1,18
 -338 536 -338 536 -317 536 c 0,19,20
 -244 536 -244 536 -228 451 c 0,21,22
 -212 382 -212 382 -224 351 c 1,23,24
 -210 349 -210 349 -189 353 c 128,-1,25
 -168 357 -168 357 -140 368 c 0,26,27
 -79 393 -79 393 -57 437 c 1,28,29
 -79 439 -79 439 -97.5 446.5 c 128,-1,30
 -116 454 -116 454 -135 467 c 0,31,32
 -155 481 -155 481 -167 497.5 c 128,-1,33
 -179 514 -179 514 -184 531 c 0,34,35
 -194 583 -194 583 -156 638 c 0,36,37
 -115 694 -115 694 -64 694 c 0,38,39
 -50 694 -50 694 -36 685 c 128,-1,40
 -22 676 -22 676 -10.5 662 c 128,-1,41
 1 648 1 648 10 630 c 128,-1,42
 19 612 19 612 23 593 c 0,43,44
 31 555 31 555 31 530 c 128,-1,45
 31 505 31 505 25 489 c 1,46,47
 46 480 46 480 82 480 c 1,0,1
90 266 m 2,48,49
 93 249 93 249 95 222 c 128,-1,50
 97 195 97 195 98 159 c 1,51,52
 89 83 89 83 19 83 c 0,53,54
 -12 83 -12 83 -26 94 c 1,55,56
 -69 14 -69 14 -116 14 c 0,57,58
 -183 14 -183 14 -202 105 c 0,59,60
 -210 140 -210 140 -208 164 c 128,-1,61
 -206 188 -206 188 -196 202 c 0,62,63
 -178 225 -178 225 -163 217 c 1,64,65
 -171 190 -171 190 -164 152 c 0,66,67
 -155 113 -155 113 -126 113 c 0,68,69
 -88 113 -88 113 -82 168 c 2,70,-1
 -75 248 l 1,71,-1
 -41 269 l 1,72,73
 -23 181 -23 181 25 181 c 0,74,75
 62 181 62 181 56 211 c 0,76,77
 40 279 40 279 45 298 c 0,78,79
 48 314 48 314 57.5 322.5 c 128,-1,80
 67 331 67 331 81 336 c 1,81,-1
 90 266 l 2,48,49
-13 547 m 0,82,83
 -28 618 -28 618 -75 618 c 0,84,85
 -101 618 -101 618 -118.5 602 c 128,-1,86
 -136 586 -136 586 -131 569 c 0,87,88
 -127 548 -127 548 -98 530 c 128,-1,89
 -69 512 -69 512 -17 497 c 1,90,91
 -12 507 -12 507 -10.5 519 c 128,-1,92
 -9 531 -9 531 -13 547 c 0,82,83
EndSplineSet
Ligature2: "'ccmp' Glyph Composition/Decomposition in Arabic lookup 6 subtable" afii57457 afii57452
EndChar

StartChar: afii62883
Encoding: 64607 64607 230
Width: 0
GlyphClass: 4
Flags: W
AnchorPoint: "Anchor-2" 0 0 mark 0
AnchorPoint: "Anchor-0" 0 0 mark 0
LayerCount: 2
Fore
SplineSet
50 587 m 2,0,1
 54 567 54 567 55.5 537.5 c 128,-1,2
 57 508 57 508 58 470 c 1,3,4
 50 393 50 393 -17 393 c 0,5,6
 -45 393 -45 393 -74 406 c 1,7,8
 -100 324 -100 324 -156 324 c 0,9,10
 -222 324 -222 324 -243 416 c 0,11,12
 -256 484 -256 484 -235 512 c 0,13,14
 -216 536 -216 536 -201 527 c 1,15,16
 -212 503 -212 503 -203 462 c 0,17,18
 -194 423 -194 423 -166 423 c 0,19,20
 -129 423 -129 423 -119 479 c 1,21,22
 -120 500 -120 500 -119 521.5 c 128,-1,23
 -118 543 -118 543 -116 566 c 1,24,-1
 -84 587 l 1,25,26
 -63 492 -63 492 -14 492 c 0,27,28
 22 492 22 492 16 521 c 0,29,30
 8 561 8 561 4.5 583 c 128,-1,31
 1 605 1 605 2 613 c 0,32,33
 11 649 11 649 41 658 c 1,34,-1
 50 587 l 2,0,1
126 311 m 1,35,-1
 -185 134 l 1,36,-1
 -180 203 l 1,37,-1
 130 380 l 1,38,-1
 126 311 l 1,35,-1
151 183 m 1,39,-1
 -159 5 l 1,40,-1
 -155 75 l 1,41,-1
 156 251 l 1,42,-1
 151 183 l 1,39,-1
EndSplineSet
Ligature2: "'ccmp' Glyph Composition/Decomposition in Arabic lookup 6 subtable" afii57457 afii57453
EndChar

StartChar: afii62884
Encoding: 64608 64608 231
Width: 0
GlyphClass: 4
Flags: W
AnchorPoint: "Anchor-2" 0 0 mark 0
AnchorPoint: "Anchor-0" 0 0 mark 0
LayerCount: 2
Fore
SplineSet
66 424 m 1,0,-1
 -244 248 l 1,1,-1
 -238 316 l 1,2,-1
 72 493 l 1,3,-1
 66 424 l 1,0,-1
96 260 m 2,4,5
 98 240 98 240 101 211 c 128,-1,6
 104 182 104 182 106 143 c 1,7,8
 95 66 95 66 26 66 c 0,9,10
 2 66 2 66 -27 79 c 1,11,12
 -56 -3 -56 -3 -109 -3 c 0,13,14
 -176 -3 -176 -3 -195 88 c 0,15,16
 -203 124 -203 124 -201 148 c 128,-1,17
 -199 172 -199 172 -188 186 c 0,18,19
 -172 210 -172 210 -156 200 c 1,20,21
 -160 188 -160 188 -161 172 c 128,-1,22
 -162 156 -162 156 -157 136 c 0,23,24
 -148 96 -148 96 -118 96 c 0,25,26
 -81 96 -81 96 -75 152 c 2,27,-1
 -68 239 l 1,28,-1
 -35 260 l 1,29,30
 -15 165 -15 165 32 165 c 0,31,32
 69 165 69 165 63 195 c 0,33,34
 46 274 46 274 49 287 c 0,35,36
 54 304 54 304 62.5 315.5 c 128,-1,37
 71 327 71 327 86 331 c 1,38,-1
 96 260 l 2,4,5
EndSplineSet
Ligature2: "'ccmp' Glyph Composition/Decomposition in Arabic lookup 6 subtable" afii57457 afii57454
EndChar

StartChar: afii62885
Encoding: 64609 64609 232
Width: 0
GlyphClass: 4
Flags: W
AnchorPoint: "Anchor-2" 0 0 mark 0
AnchorPoint: "Anchor-0" 0 0 mark 0
LayerCount: 2
Fore
SplineSet
60 369 m 1,0,1
 49 369 49 369 31.5 373.5 c 128,-1,2
 14 378 14 378 -9 385 c 1,3,4
 -20 362 -20 362 -39 343 c 128,-1,5
 -58 324 -58 324 -87 308 c 0,6,7
 -153 271 -153 271 -239 271 c 0,8,9
 -278 271 -278 271 -302 298 c 1,10,11
 -206 321 -206 321 -147.5 348 c 128,-1,12
 -89 375 -89 375 -66 407 c 1,13,14
 -80 409 -80 409 -96.5 417.5 c 128,-1,15
 -113 426 -113 426 -133 440 c 0,16,17
 -159 459 -159 459 -173 476 c 128,-1,18
 -187 493 -187 493 -191 511 c 0,19,20
 -201 564 -201 564 -160 620 c 0,21,22
 -117 675 -117 675 -62 675 c 0,23,24
 -28 675 -28 675 -1.5 648.5 c 128,-1,25
 25 622 25 622 34 579 c 0,26,27
 46 522 46 522 23 454 c 1,28,29
 51 439 51 439 94 439 c 1,30,-1
 60 369 l 1,0,1
103 271 m 2,31,32
 105 251 105 251 108.5 222 c 128,-1,33
 112 193 112 193 114 154 c 1,34,35
 102 77 102 77 34 77 c 0,36,37
 9 77 9 77 -20 90 c 1,38,39
 -47 8 -47 8 -101 8 c 0,40,41
 -168 8 -168 8 -187 99 c 0,42,43
 -195 135 -195 135 -193 158.5 c 128,-1,44
 -191 182 -191 182 -180 197 c 0,45,46
 -163 220 -163 220 -148 211 c 1,47,48
 -158 186 -158 186 -149 147 c 0,49,50
 -142 107 -142 107 -111 107 c 0,51,52
 -75 107 -75 107 -67 163 c 1,53,-1
 -61 250 l 1,54,-1
 -28 271 l 1,55,56
 -9 176 -9 176 39 176 c 0,57,58
 77 176 77 176 70 206 c 0,59,60
 62 245 62 245 58.5 267.5 c 128,-1,61
 55 290 55 290 56 298 c 0,62,63
 66 335 66 335 94 342 c 1,64,-1
 103 271 l 2,31,32
-15 534 m 0,65,66
 -30 599 -30 599 -77 599 c 0,67,68
 -86 599 -86 599 -96 595 c 128,-1,69
 -106 591 -106 591 -114 584 c 128,-1,70
 -122 577 -122 577 -126 568.5 c 128,-1,71
 -130 560 -130 560 -128 551 c 0,72,73
 -119 502 -119 502 -18 469 c 1,74,75
 -6 486 -6 486 -15 534 c 0,65,66
EndSplineSet
Ligature2: "'ccmp' Glyph Composition/Decomposition in Arabic lookup 6 subtable" afii57457 afii57455
EndChar

StartChar: afii62886
Encoding: 64610 64610 233
Width: 0
GlyphClass: 4
Flags: W
AnchorPoint: "Anchor-2" 0 0 mark 0
AnchorPoint: "Anchor-0" 0 0 mark 0
LayerCount: 2
Fore
SplineSet
60 468 m 2,0,1
 63 448 63 448 64.5 418.5 c 128,-1,2
 66 389 66 389 68 350 c 1,3,4
 59 274 59 274 -7 274 c 0,5,6
 -32 274 -32 274 -65 285 c 1,7,8
 -91 203 -91 203 -146 203 c 0,9,10
 -215 203 -215 203 -234 294 c 0,11,12
 -249 362 -249 362 -225 393 c 0,13,14
 -217 404 -217 404 -207.5 407 c 128,-1,15
 -198 410 -198 410 -190 406 c 1,16,17
 -195 393 -195 393 -197 378 c 128,-1,18
 -199 363 -199 363 -195 343 c 0,19,20
 -185 304 -185 304 -157 304 c 0,21,22
 -120 304 -120 304 -109 358 c 1,23,24
 -111 401 -111 401 -106 445 c 1,25,-1
 -76 468 l 1,26,27
 -54 370 -54 370 -5 370 c 0,28,29
 32 370 32 370 25 400 c 0,30,31
 17 439 17 439 13.5 462.5 c 128,-1,32
 10 486 10 486 12 494 c 0,33,34
 21 530 21 530 51 539 c 1,35,-1
 60 468 l 2,0,1
142 187 m 1,36,-1
 -167 7 l 1,37,-1
 -164 78 l 1,38,-1
 147 253 l 1,39,-1
 142 187 l 1,36,-1
EndSplineSet
Ligature2: "'ccmp' Glyph Composition/Decomposition in Arabic lookup 6 subtable" afii57457 afii57456
EndChar

StartChar: afii62945
Encoding: 65554 -1 234
Width: 1420
GlyphClass: 3
Flags: W
LayerCount: 2
Fore
SplineSet
1285 227 m 2,0,1
 1309 117 1309 117 1265 46 c 0,2,3
 1216 -28 1216 -28 1092 -28 c 0,4,5
 926 -28 926 -28 844 89 c 1,6,7
 800 -28 800 -28 663 -28 c 0,8,9
 513 -28 513 -28 444 167 c 1,10,-1
 375 91 l 1,11,-1
 293 91 l 2,12,13
 83 91 83 91 58 208 c 0,14,15
 46 264 46 264 60 326 c 0,16,17
 69 360 69 360 81 383.5 c 128,-1,18
 93 407 93 407 111 421 c 0,19,20
 194 485 194 485 298 530 c 1,21,-1
 274 585 l 1,22,-1
 346 686 l 1,23,24
 360 639 360 639 392 540 c 128,-1,25
 424 441 424 441 474 285 c 0,26,27
 490 235 490 235 506.5 203.5 c 128,-1,28
 523 172 523 172 544.5 153.5 c 128,-1,29
 566 135 566 135 594.5 128 c 128,-1,30
 623 121 623 121 663 121 c 0,31,32
 712 121 712 121 747 155 c 0,33,34
 795 197 795 197 776 254 c 0,35,36
 742 378 742 378 706 497.5 c 128,-1,37
 670 617 670 617 632 736 c 1,38,-1
 720 854 l 1,39,40
 734 816 734 816 775 661 c 128,-1,41
 816 506 816 506 885 229 c 0,42,43
 891 205 891 205 907 185 c 128,-1,44
 923 165 923 165 946 150.5 c 128,-1,45
 969 136 969 136 998 128.5 c 128,-1,46
 1027 121 1027 121 1058 121 c 0,47,48
 1130 121 1130 121 1170.5 141.5 c 128,-1,49
 1211 162 1211 162 1203 194 c 0,50,51
 1202 198 1202 198 1191 240 c 128,-1,52
 1180 282 1180 282 1157 361 c 2,53,-1
 1017 857 l 1,54,-1
 1112 984 l 1,55,56
 1154 819 1154 819 1185.5 682.5 c 128,-1,57
 1217 546 1217 546 1242 432 c 2,58,-1
 1285 227 l 2,0,1
335 440 m 1,59,60
 278 417 278 417 233 392.5 c 128,-1,61
 188 368 188 368 155 339 c 0,62,63
 103 297 103 297 106 279 c 0,64,65
 118 222 118 222 312 222 c 0,66,67
 339 222 339 222 364 225 c 128,-1,68
 389 228 389 228 412 235 c 1,69,-1
 335 440 l 1,59,60
EndSplineSet
EndChar

StartChar: afii64184
Encoding: 65010 65010 235
Width: 1420
GlyphClass: 3
Flags: W
AnchorPoint: "Anchor-1" 1155 -405 baselig 0
AnchorPoint: "Anchor-0" 1020 1095 baselig 0
AnchorPoint: "Anchor-1" 810 -375 baselig 1
AnchorPoint: "Anchor-0" 630 900 baselig 1
AnchorPoint: "Anchor-1" 330 -375 baselig 2
AnchorPoint: "Anchor-0" 150 705 baselig 2
LayerCount: 2
Fore
SplineSet
1285 227 m 2,0,1
 1309 117 1309 117 1265 46 c 0,2,3
 1216 -28 1216 -28 1092 -28 c 0,4,5
 926 -28 926 -28 844 89 c 1,6,7
 800 -28 800 -28 663 -28 c 0,8,9
 513 -28 513 -28 444 167 c 1,10,-1
 375 91 l 1,11,-1
 293 91 l 2,12,13
 83 91 83 91 58 208 c 0,14,15
 46 264 46 264 60 326 c 0,16,17
 69 360 69 360 81 383.5 c 128,-1,18
 93 407 93 407 111 421 c 0,19,20
 194 485 194 485 298 530 c 1,21,-1
 274 585 l 1,22,-1
 346 686 l 1,23,24
 360 639 360 639 392 540 c 128,-1,25
 424 441 424 441 474 285 c 0,26,27
 490 235 490 235 506.5 203.5 c 128,-1,28
 523 172 523 172 544.5 153.5 c 128,-1,29
 566 135 566 135 594.5 128 c 128,-1,30
 623 121 623 121 663 121 c 0,31,32
 712 121 712 121 747 155 c 0,33,34
 795 197 795 197 776 254 c 0,35,36
 742 378 742 378 706 497.5 c 128,-1,37
 670 617 670 617 632 736 c 1,38,-1
 720 854 l 1,39,40
 734 816 734 816 775 661 c 128,-1,41
 816 506 816 506 885 229 c 0,42,43
 891 205 891 205 907 185 c 128,-1,44
 923 165 923 165 946 150.5 c 128,-1,45
 969 136 969 136 998 128.5 c 128,-1,46
 1027 121 1027 121 1058 121 c 0,47,48
 1130 121 1130 121 1170.5 141.5 c 128,-1,49
 1211 162 1211 162 1203 194 c 0,50,51
 1202 198 1202 198 1191 240 c 128,-1,52
 1180 282 1180 282 1157 361 c 2,53,-1
 1017 857 l 1,54,-1
 1112 984 l 1,55,56
 1154 819 1154 819 1185.5 682.5 c 128,-1,57
 1217 546 1217 546 1242 432 c 2,58,-1
 1285 227 l 2,0,1
335 440 m 1,59,60
 278 417 278 417 233 392.5 c 128,-1,61
 188 368 188 368 155 339 c 0,62,63
 103 297 103 297 106 279 c 0,64,65
 118 222 118 222 312 222 c 0,66,67
 339 222 339 222 364 225 c 128,-1,68
 389 228 389 228 412 235 c 1,69,-1
 335 440 l 1,59,60
749 1150 m 2,70,71
 752 1130 752 1130 753 1101 c 128,-1,72
 754 1072 754 1072 756 1033 c 1,73,74
 748 956 748 956 680 956 c 0,75,76
 655 956 655 956 622 969 c 1,77,78
 599 887 599 887 543 887 c 0,79,80
 474 887 474 887 455 978 c 0,81,82
 440 1048 440 1048 464 1076 c 0,83,84
 480 1100 480 1100 497 1090 c 1,85,86
 485 1067 485 1067 493 1025 c 0,87,88
 502 986 502 986 531 986 c 0,89,90
 569 986 569 986 578 1042 c 1,91,-1
 581 1129 l 1,92,-1
 614 1150 l 1,93,94
 635 1055 635 1055 682 1055 c 0,95,96
 720 1055 720 1055 713 1085 c 0,97,98
 698 1165 698 1165 700 1176 c 0,99,100
 712 1213 712 1213 739 1220 c 1,101,-1
 749 1150 l 2,70,71
576 1305 m 0,102,103
 590 1236 590 1236 579.5 1207.5 c 128,-1,104
 569 1179 569 1179 537 1179 c 1,105,106
 542 1190 542 1190 542 1205 c 128,-1,107
 542 1220 542 1220 538 1241 c 0,108,109
 533 1265 533 1265 520.5 1294.5 c 128,-1,110
 508 1324 508 1324 490 1360 c 0,111,112
 476 1387 476 1387 464 1407.5 c 128,-1,113
 452 1428 452 1428 440 1441 c 1,114,-1
 486 1528 l 1,115,116
 555 1399 555 1399 576 1305 c 0,102,103
EndSplineSet
Ligature2: "'rlig' Required Ligatures in Arabic lookup 5 subtable" afii62817 afii62818 uni06C1
Ligature2: "'rlig' Required Ligatures in Arabic lookup 4 subtable" afii62817 afii62818 uniFC63 afii62828
Ligature2: "'rlig' Required Ligatures in Arabic lookup 4 subtable" afii62817 afii62818 afii57457 uni0670 afii62828
EndChar

StartChar: afii57415.001
Encoding: 1575 1575 249
Width: 414
GlyphClass: 2
Flags: W
AnchorPoint: "Anchor-3" 240 -390 basechar 0
AnchorPoint: "Anchor-2" -60 1305 basechar 0
LayerCount: 2
Fore
SplineSet
238 222 m 1,0,1
 257 136 257 136 250 41 c 0,2,3
 241 -41 241 -41 227 -41 c 0,4,5
 219 -41 219 -41 167 146 c 2,6,-1
 -98 1124 l 1,7,-1
 0 1245 l 1,8,-1
 238 222 l 1,9,-1
 238 222 l 1,0,1
EndSplineSet
Substitution2: "'fina' Terminal Forms in Arabic lookup 3 subtable" afii62760
EndChar

StartChar: afii62760.001
Encoding: 65555 -1 250
Width: 487
GlyphClass: 2
Flags: W
LayerCount: 2
Fore
SplineSet
500 35 m 1,0,1
 509 0 509 0 494 0 c 2,2,-1
 460 0 l 2,3,4
 338 0 338 0 249 62 c 0,5,6
 158 125 158 125 131 244 c 0,7,8
 75 492 75 492 17 715 c 128,-1,9
 -41 938 -41 938 -102 1142 c 1,10,-1
 -16 1245 l 1,11,12
 24 1108 24 1108 82 866.5 c 128,-1,13
 140 625 140 625 214 279 c 0,14,15
 228 214 228 214 301 177 c 0,16,17
 356 149 356 149 402 149 c 2,18,-1
 462 149 l 2,19,20
 477 149 477 149 484 114 c 2,21,-1
 500 35 l 1,22,-1
 500 35 l 1,0,1
EndSplineSet
EndChar

StartChar: afii57421
Encoding: 1581 1581 269
Width: 1118
GlyphClass: 2
Flags: W
AnchorPoint: "Anchor-3" 660 -1245 basechar 0
AnchorPoint: "Anchor-2" 390 735 basechar 0
LayerCount: 2
Fore
SplineSet
1201 -400 m 0,0,1
 1210 -438 1210 -438 1109 -501 c 1,2,3
 984 -585 984 -585 798 -585 c 0,4,5
 243 -585 243 -585 158 -179 c 0,6,7
 80 206 80 206 541 393 c 1,8,-1
 539 402 l 1,9,10
 439 418 439 418 359 425 c 128,-1,11
 279 432 279 432 217 432 c 0,12,13
 154 432 154 432 116 388 c 0,14,15
 78 343 78 343 72 343 c 0,16,17
 57 343 57 343 53 361 c 0,18,19
 41 424 41 424 82 498 c 0,20,21
 129 581 129 581 210 581 c 0,22,23
 252 581 252 581 320.5 573 c 128,-1,24
 389 565 389 565 486 548 c 0,25,26
 683 515 683 515 763 512 c 2,27,-1
 957 509 l 1,28,-1
 927 363 l 1,29,30
 803 366 803 366 686 339.5 c 128,-1,31
 569 313 569 313 460 256 c 0,32,33
 186 112 186 112 238 -130 c 0,34,35
 302 -441 302 -441 835 -441 c 0,36,37
 890 -441 890 -441 949.5 -434.5 c 128,-1,38
 1009 -428 1009 -428 1076 -416 c 0,39,40
 1137 -404 1137 -404 1166.5 -398.5 c 128,-1,41
 1196 -393 1196 -393 1194 -391 c 1,42,43
 1199 -391 1199 -391 1201 -400 c 0,0,1
EndSplineSet
Substitution2: "'fina' Terminal Forms in Arabic lookup 3 subtable" afii62776
Substitution2: "'medi' Medial Forms in Arabic lookup 2 subtable" afii62775
Substitution2: "'init' Initial Forms in Arabic lookup 1 subtable" afii62774
EndChar

StartChar: afii62776
Encoding: 65186 65186 270
Width: 1154
GlyphClass: 2
Flags: W
AnchorPoint: "Anchor-3" 660 -1275 basechar 0
AnchorPoint: "Anchor-2" 420 810 basechar 0
LayerCount: 2
Fore
SplineSet
1168 35 m 1,0,1
 1175 0 1175 0 1159 0 c 2,2,-1
 1079 0 l 2,3,4
 994 0 994 0 932.5 15.5 c 128,-1,5
 871 31 871 31 829 60 c 0,6,7
 754 113 754 113 728 238 c 0,8,9
 723 262 723 262 719.5 290 c 128,-1,10
 716 318 716 318 713 350 c 1,11,12
 605 322 605 322 519.5 283 c 128,-1,13
 434 244 434 244 371 192 c 0,14,15
 198 55 198 55 238 -130 c 0,16,17
 302 -441 302 -441 835 -441 c 0,18,19
 890 -441 890 -441 949.5 -434.5 c 128,-1,20
 1009 -428 1009 -428 1076 -416 c 0,21,22
 1137 -404 1137 -404 1166.5 -398.5 c 128,-1,23
 1196 -393 1196 -393 1194 -391 c 1,24,25
 1199 -391 1199 -391 1201 -400 c 0,26,27
 1210 -438 1210 -438 1109 -501 c 1,28,29
 984 -585 984 -585 798 -585 c 0,30,31
 243 -585 243 -585 158 -179 c 0,32,33
 80 206 80 206 541 393 c 1,34,-1
 539 402 l 1,35,36
 433 418 433 418 352.5 425 c 128,-1,37
 272 432 272 432 217 432 c 0,38,39
 154 432 154 432 116 388 c 0,40,41
 78 343 78 343 72 343 c 0,42,43
 57 343 57 343 53 361 c 0,44,45
 41 424 41 424 82 498 c 0,46,47
 129 581 129 581 210 581 c 0,48,49
 252 581 252 581 320.5 573 c 128,-1,50
 389 565 389 565 486 548 c 0,51,52
 683 515 683 515 763 512 c 2,53,-1
 957 509 l 1,54,-1
 926 367 l 1,55,-1
 768 359 l 1,56,57
 770 344 770 344 772 330 c 128,-1,58
 774 316 774 316 776 304 c 0,59,60
 795 212 795 212 862 179 c 0,61,62
 894 163 894 163 944 156 c 128,-1,63
 994 149 994 149 1064 149 c 2,64,-1
 1127 149 l 2,65,66
 1144 149 1144 149 1151 114 c 2,67,-1
 1168 35 l 1,68,-1
 1168 35 l 1,0,1
EndSplineSet
EndChar

StartChar: afii62774
Encoding: 65187 65187 271
Width: 1131
GlyphClass: 2
Flags: W
AnchorPoint: "Anchor-3" 450 -525 basechar 0
AnchorPoint: "Anchor-2" 375 810 basechar 0
LayerCount: 2
Fore
SplineSet
949 287 m 1,0,-1
 882 287 l 2,1,2
 838 287 838 287 802.5 281.5 c 128,-1,3
 767 276 767 276 736 267 c 0,4,5
 701 253 701 253 641.5 222 c 128,-1,6
 582 191 582 191 495 142 c 0,7,8
 371 70 371 70 257.5 35 c 128,-1,9
 144 0 144 0 35 0 c 2,10,-1
 -5 0 l 2,11,12
 -41 0 -41 0 -48 35 c 2,13,-1
 -65 114 l 2,14,15
 -72 149 -72 149 -36 149 c 2,16,-1
 -13 149 l 2,17,18
 64 149 64 149 207 176 c 0,19,20
 270 187 270 187 373 228.5 c 128,-1,21
 476 270 476 270 622 343 c 1,22,-1
 620 352 l 1,23,24
 285 480 285 480 194 480 c 0,25,26
 131 480 131 480 94 436 c 0,27,28
 74 416 74 416 63.5 404.5 c 128,-1,29
 53 393 53 393 48 393 c 0,30,31
 33 393 33 393 29 412 c 0,32,33
 17 471 17 471 59 546 c 0,34,35
 105 630 105 630 186 630 c 0,36,37
 228 630 228 630 331 597 c 128,-1,38
 434 564 434 564 600 498 c 0,39,40
 688 463 688 463 784.5 444 c 128,-1,41
 881 425 881 425 989 423 c 1,42,-1
 949 287 l 1,0,-1
EndSplineSet
EndChar

StartChar: afii62775
Encoding: 65188 65188 272
Width: 1137
GlyphClass: 2
Flags: W
AnchorPoint: "Anchor-3" 405 -450 basechar 0
AnchorPoint: "Anchor-2" 390 840 basechar 0
LayerCount: 2
Fore
SplineSet
1151 35 m 1,0,1
 1160 0 1160 0 1142 0 c 2,2,-1
 1118 0 l 2,3,4
 810 0 810 0 764 215 c 0,5,6
 756 251 756 251 753 278.5 c 128,-1,7
 750 306 750 306 750 326 c 1,8,9
 668 289 668 289 454 140 c 0,10,11
 356 69 356 69 247 34.5 c 128,-1,12
 138 0 138 0 18 0 c 2,13,-1
 -5 0 l 2,14,15
 -41 0 -41 0 -48 35 c 2,16,-1
 -65 114 l 2,17,18
 -72 149 -72 149 -36 149 c 2,19,-1
 -13 149 l 2,20,21
 151 149 151 149 319 220 c 0,22,23
 370 241 370 241 441 281 c 128,-1,24
 512 321 512 321 609 379 c 1,25,-1
 607 388 l 1,26,27
 424 435 424 435 317.5 457.5 c 128,-1,28
 211 480 211 480 182 480 c 0,29,30
 118 480 118 480 83 436 c 0,31,32
 63 416 63 416 51.5 404.5 c 128,-1,33
 40 393 40 393 37 393 c 0,34,35
 22 393 22 393 18 412 c 0,36,37
 6 472 6 472 47 546 c 0,38,39
 93 630 93 630 175 630 c 0,40,41
 213 630 213 630 259.5 621.5 c 128,-1,42
 306 613 306 613 362 594 c 0,43,44
 539 538 539 538 579 528 c 0,45,46
 654 509 654 509 732 500.5 c 128,-1,47
 810 492 810 492 893 492 c 2,48,-1
 982 492 l 1,49,-1
 952 349 l 1,50,51
 891 359 891 359 803 343 c 1,52,-1
 813 288 l 2,53,54
 836 149 836 149 1047 149 c 2,55,-1
 1110 149 l 2,56,57
 1126 149 1126 149 1135 114 c 2,58,-1
 1151 35 l 1,59,-1
 1151 35 l 1,0,1
EndSplineSet
EndChar

StartChar: afii57423
Encoding: 1583 1583 277
Width: 811
GlyphClass: 2
Flags: W
AnchorPoint: "Anchor-3" 300 -420 basechar 0
AnchorPoint: "Anchor-2" 225 870 basechar 0
LayerCount: 2
Fore
SplineSet
703 276 m 0,0,1
 719 202 719 202 708 150 c 128,-1,2
 697 98 697 98 655.5 64.5 c 128,-1,3
 614 31 614 31 541 15.5 c 128,-1,4
 468 0 468 0 359 0 c 0,5,6
 111 0 111 0 70 196 c 0,7,8
 56 263 56 263 65 313 c 0,9,10
 74 352 74 352 92 352 c 0,11,12
 112 352 112 352 116 328 c 0,13,14
 117 324 117 324 117.5 315.5 c 128,-1,15
 118 307 118 307 119 296.5 c 128,-1,16
 120 286 120 286 121 275.5 c 128,-1,17
 122 265 122 265 124 259 c 0,18,19
 147 149 147 149 347 149 c 0,20,21
 662 149 662 149 640 258 c 0,22,23
 628 315 628 315 503 425 c 0,24,25
 446 476 446 476 378 525.5 c 128,-1,26
 310 575 310 575 230 624 c 1,27,-1
 234 783 l 1,28,29
 652 520 652 520 703 276 c 0,0,1
EndSplineSet
Substitution2: "'fina' Terminal Forms in Arabic lookup 3 subtable" afii62780
PairPos2: "'kern' Horizontal Kerning in Arabic lookup 2 subtable" uni06B50627.isol dx=-50 dy=0 dh=-50 dv=0 dx=0 dy=0 dh=0 dv=0
PairPos2: "'kern' Horizontal Kerning in Arabic lookup 2 subtable" uni06B8.init dx=-50 dy=0 dh=-50 dv=0 dx=0 dy=0 dh=0 dv=0
PairPos2: "'kern' Horizontal Kerning in Arabic lookup 2 subtable" uni06B7.init dx=-50 dy=0 dh=-50 dv=0 dx=0 dy=0 dh=0 dv=0
PairPos2: "'kern' Horizontal Kerning in Arabic lookup 2 subtable" uni06B6.init dx=-50 dy=0 dh=-50 dv=0 dx=0 dy=0 dh=0 dv=0
PairPos2: "'kern' Horizontal Kerning in Arabic lookup 2 subtable" uni06B5.init dx=-50 dy=0 dh=-50 dv=0 dx=0 dy=0 dh=0 dv=0
PairPos2: "'kern' Horizontal Kerning in Arabic lookup 2 subtable" uni06B4.init dx=-100 dy=0 dh=-100 dv=0 dx=0 dy=0 dh=0 dv=0
PairPos2: "'kern' Horizontal Kerning in Arabic lookup 2 subtable" uni06B4 dx=-100 dy=0 dh=-100 dv=0 dx=0 dy=0 dh=0 dv=0
PairPos2: "'kern' Horizontal Kerning in Arabic lookup 2 subtable" uniFB98 dx=-100 dy=0 dh=-100 dv=0 dx=0 dy=0 dh=0 dv=0
PairPos2: "'kern' Horizontal Kerning in Arabic lookup 2 subtable" uni06B3 dx=-100 dy=0 dh=-100 dv=0 dx=0 dy=0 dh=0 dv=0
PairPos2: "'kern' Horizontal Kerning in Arabic lookup 2 subtable" uni06B2.init dx=-100 dy=0 dh=-100 dv=0 dx=0 dy=0 dh=0 dv=0
PairPos2: "'kern' Horizontal Kerning in Arabic lookup 2 subtable" uniFB9C dx=-100 dy=0 dh=-100 dv=0 dx=0 dy=0 dh=0 dv=0
PairPos2: "'kern' Horizontal Kerning in Arabic lookup 2 subtable" uni06B1 dx=-100 dy=0 dh=-100 dv=0 dx=0 dy=0 dh=0 dv=0
PairPos2: "'kern' Horizontal Kerning in Arabic lookup 2 subtable" uni06B0.init dx=-100 dy=0 dh=-100 dv=0 dx=0 dy=0 dh=0 dv=0
PairPos2: "'kern' Horizontal Kerning in Arabic lookup 2 subtable" uni06B0 dx=-100 dy=0 dh=-100 dv=0 dx=0 dy=0 dh=0 dv=0
PairPos2: "'kern' Horizontal Kerning in Arabic lookup 2 subtable" uni06AE.init dx=-100 dy=0 dh=-100 dv=0 dx=0 dy=0 dh=0 dv=0
PairPos2: "'kern' Horizontal Kerning in Arabic lookup 2 subtable" uni06AE dx=-50 dy=0 dh=-50 dv=0 dx=0 dy=0 dh=0 dv=0
PairPos2: "'kern' Horizontal Kerning in Arabic lookup 2 subtable" uniFBD5 dx=-100 dy=0 dh=-100 dv=0 dx=0 dy=0 dh=0 dv=0
PairPos2: "'kern' Horizontal Kerning in Arabic lookup 2 subtable" uni06AD dx=-50 dy=0 dh=-50 dv=0 dx=0 dy=0 dh=0 dv=0
PairPos2: "'kern' Horizontal Kerning in Arabic lookup 2 subtable" uni06AB.init dx=-100 dy=0 dh=-100 dv=0 dx=0 dy=0 dh=0 dv=0
PairPos2: "'kern' Horizontal Kerning in Arabic lookup 2 subtable" uni06AB dx=-50 dy=0 dh=-50 dv=0 dx=0 dy=0 dh=0 dv=0
PairPos2: "'kern' Horizontal Kerning in Arabic lookup 2 subtable" uni06AB.init dx=-100 dy=0 dh=-100 dv=0 dx=0 dy=0 dh=0 dv=0
PairPos2: "'kern' Horizontal Kerning in Arabic lookup 2 subtable" uni06AB.001 dx=-100 dy=0 dh=-100 dv=0 dx=0 dy=0 dh=0 dv=0
PairPos2: "'kern' Horizontal Kerning in Arabic lookup 2 subtable" uni0675 dx=-50 dy=0 dh=-50 dv=0 dx=0 dy=0 dh=0 dv=0
PairPos2: "'kern' Horizontal Kerning in Arabic lookup 2 subtable" uni0673 dx=-50 dy=0 dh=-50 dv=0 dx=0 dy=0 dh=0 dv=0
PairPos2: "'kern' Horizontal Kerning in Arabic lookup 2 subtable" uni0672 dx=-50 dy=0 dh=-50 dv=0 dx=0 dy=0 dh=0 dv=0
PairPos2: "'kern' Horizontal Kerning in Arabic lookup 2 subtable" afii62840 dx=-50 dy=0 dh=-50 dv=0 dx=0 dy=0 dh=0 dv=0
PairPos2: "'kern' Horizontal Kerning in Arabic lookup 2 subtable" afii62838 dx=-50 dy=0 dh=-50 dv=0 dx=0 dy=0 dh=0 dv=0
PairPos2: "'kern' Horizontal Kerning in Arabic lookup 2 subtable" afii62836 dx=-50 dy=0 dh=-50 dv=0 dx=0 dy=0 dh=0 dv=0
PairPos2: "'kern' Horizontal Kerning in Arabic lookup 2 subtable" afii62834 dx=-50 dy=0 dh=-50 dv=0 dx=0 dy=0 dh=0 dv=0
PairPos2: "'kern' Horizontal Kerning in Arabic lookup 2 subtable" afii62817 dx=-50 dy=0 dh=-50 dv=0 dx=0 dy=0 dh=0 dv=0
PairPos2: "'kern' Horizontal Kerning in Arabic lookup 2 subtable" afii57410 dx=-100 dy=0 dh=-100 dv=0 dx=0 dy=0 dh=0 dv=0
PairPos2: "'kern' Horizontal Kerning in Arabic lookup 2 subtable" afii57443 dx=-50 dy=0 dh=-50 dv=0 dx=0 dy=0 dh=0 dv=0
PairPos2: "'kern' Horizontal Kerning in Arabic lookup 2 subtable" afii57413 dx=-50 dy=0 dh=-50 dv=0 dx=0 dy=0 dh=0 dv=0
PairPos2: "'kern' Horizontal Kerning in Arabic lookup 2 subtable" afii57411 dx=-50 dy=0 dh=-50 dv=0 dx=0 dy=0 dh=0 dv=0
PairPos2: "'kern' Horizontal Kerning in Arabic lookup 2 subtable" afii62965 dx=-100 dy=0 dh=-100 dv=0 dx=0 dy=0 dh=0 dv=0
PairPos2: "'kern' Horizontal Kerning in Arabic lookup 2 subtable" afii57509 dx=-100 dy=0 dh=-100 dv=0 dx=0 dy=0 dh=0 dv=0
PairPos2: "'kern' Horizontal Kerning in Arabic lookup 2 subtable" afii52305 dx=-100 dy=0 dh=-100 dv=0 dx=0 dy=0 dh=0 dv=0
PairPos2: "'kern' Horizontal Kerning in Arabic lookup 2 subtable" afii57567 dx=-100 dy=0 dh=-100 dv=0 dx=0 dy=0 dh=0 dv=0
EndChar

StartChar: afii62780
Encoding: 65194 65194 278
Width: 956
GlyphClass: 2
Flags: W
AnchorPoint: "Anchor-3" 345 -450 basechar 0
AnchorPoint: "Anchor-2" 300 1065 basechar 0
LayerCount: 2
Fore
SplineSet
970 35 m 1,0,1
 979 0 979 0 962 0 c 2,2,-1
 937 0 l 2,3,4
 862 0 862 0 808 35 c 0,5,6
 756 67 756 67 674 164 c 1,7,8
 667 118 667 118 642.5 84.5 c 128,-1,9
 618 51 618 51 576 34 c 0,10,11
 509 0 509 0 359 0 c 0,12,13
 111 0 111 0 70 196 c 0,14,15
 56 263 56 263 65 313 c 0,16,17
 74 352 74 352 92 352 c 0,18,19
 112 352 112 352 116 328 c 0,20,21
 117 324 117 324 117.5 315.5 c 128,-1,22
 118 307 118 307 119 296.5 c 128,-1,23
 120 286 120 286 121 275.5 c 128,-1,24
 122 265 122 265 124 259 c 0,25,26
 147 149 147 149 347 149 c 0,27,28
 642 149 642 149 618 263 c 0,29,30
 614 278 614 278 583 334 c 128,-1,31
 552 390 552 390 490 487 c 0,32,33
 429 584 429 584 398.5 636.5 c 128,-1,34
 368 689 368 689 366 697 c 1,35,-1
 412 829 l 1,36,37
 460 741 460 741 538.5 604.5 c 128,-1,38
 617 468 617 468 726 279 c 0,39,40
 762 222 762 222 800 189 c 128,-1,41
 838 156 838 156 877 149 c 1,42,-1
 930 149 l 2,43,44
 945 149 945 149 954 114 c 2,45,-1
 970 35 l 1,46,-1
 970 35 l 1,0,1
EndSplineSet
PairPos2: "'kern' Horizontal Kerning in Arabic lookup 2 subtable" uni06B50627.isol dx=-50 dy=0 dh=-50 dv=0 dx=0 dy=0 dh=0 dv=0
PairPos2: "'kern' Horizontal Kerning in Arabic lookup 2 subtable" uni06B8.init dx=-50 dy=0 dh=-50 dv=0 dx=0 dy=0 dh=0 dv=0
PairPos2: "'kern' Horizontal Kerning in Arabic lookup 2 subtable" uni06B7.init dx=-50 dy=0 dh=-50 dv=0 dx=0 dy=0 dh=0 dv=0
PairPos2: "'kern' Horizontal Kerning in Arabic lookup 2 subtable" uni06B6.init dx=-50 dy=0 dh=-50 dv=0 dx=0 dy=0 dh=0 dv=0
PairPos2: "'kern' Horizontal Kerning in Arabic lookup 2 subtable" uni06B5.init dx=-50 dy=0 dh=-50 dv=0 dx=0 dy=0 dh=0 dv=0
PairPos2: "'kern' Horizontal Kerning in Arabic lookup 2 subtable" uni06B4.init dx=-150 dy=0 dh=-150 dv=0 dx=0 dy=0 dh=0 dv=0
PairPos2: "'kern' Horizontal Kerning in Arabic lookup 2 subtable" uni06B4 dx=-150 dy=0 dh=-150 dv=0 dx=0 dy=0 dh=0 dv=0
PairPos2: "'kern' Horizontal Kerning in Arabic lookup 2 subtable" uniFB98 dx=-150 dy=0 dh=-150 dv=0 dx=0 dy=0 dh=0 dv=0
PairPos2: "'kern' Horizontal Kerning in Arabic lookup 2 subtable" uni06B3 dx=-150 dy=0 dh=-150 dv=0 dx=0 dy=0 dh=0 dv=0
PairPos2: "'kern' Horizontal Kerning in Arabic lookup 2 subtable" uni06B2.init dx=-150 dy=0 dh=-150 dv=0 dx=0 dy=0 dh=0 dv=0
PairPos2: "'kern' Horizontal Kerning in Arabic lookup 2 subtable" uniFB9C dx=-150 dy=0 dh=-150 dv=0 dx=0 dy=0 dh=0 dv=0
PairPos2: "'kern' Horizontal Kerning in Arabic lookup 2 subtable" uni06B1 dx=-150 dy=0 dh=-150 dv=0 dx=0 dy=0 dh=0 dv=0
PairPos2: "'kern' Horizontal Kerning in Arabic lookup 2 subtable" uni06B0.init dx=-150 dy=0 dh=-150 dv=0 dx=0 dy=0 dh=0 dv=0
PairPos2: "'kern' Horizontal Kerning in Arabic lookup 2 subtable" uni06B0 dx=-150 dy=0 dh=-150 dv=0 dx=0 dy=0 dh=0 dv=0
PairPos2: "'kern' Horizontal Kerning in Arabic lookup 2 subtable" uni06AE.init dx=-150 dy=0 dh=-150 dv=0 dx=0 dy=0 dh=0 dv=0
PairPos2: "'kern' Horizontal Kerning in Arabic lookup 2 subtable" uni06AE dx=-50 dy=0 dh=-50 dv=0 dx=0 dy=0 dh=0 dv=0
PairPos2: "'kern' Horizontal Kerning in Arabic lookup 2 subtable" uniFBD5 dx=-150 dy=0 dh=-150 dv=0 dx=0 dy=0 dh=0 dv=0
PairPos2: "'kern' Horizontal Kerning in Arabic lookup 2 subtable" uni06AD dx=-50 dy=0 dh=-50 dv=0 dx=0 dy=0 dh=0 dv=0
PairPos2: "'kern' Horizontal Kerning in Arabic lookup 2 subtable" uni06AB.init dx=-150 dy=0 dh=-150 dv=0 dx=0 dy=0 dh=0 dv=0
PairPos2: "'kern' Horizontal Kerning in Arabic lookup 2 subtable" uni06AB dx=-50 dy=0 dh=-50 dv=0 dx=0 dy=0 dh=0 dv=0
PairPos2: "'kern' Horizontal Kerning in Arabic lookup 2 subtable" uni06AB.init dx=-150 dy=0 dh=-150 dv=0 dx=0 dy=0 dh=0 dv=0
PairPos2: "'kern' Horizontal Kerning in Arabic lookup 2 subtable" uni06AB.001 dx=-150 dy=0 dh=-150 dv=0 dx=0 dy=0 dh=0 dv=0
PairPos2: "'kern' Horizontal Kerning in Arabic lookup 2 subtable" uni0675 dx=-50 dy=0 dh=-50 dv=0 dx=0 dy=0 dh=0 dv=0
PairPos2: "'kern' Horizontal Kerning in Arabic lookup 2 subtable" uni0673 dx=-50 dy=0 dh=-50 dv=0 dx=0 dy=0 dh=0 dv=0
PairPos2: "'kern' Horizontal Kerning in Arabic lookup 2 subtable" uni0672 dx=-50 dy=0 dh=-50 dv=0 dx=0 dy=0 dh=0 dv=0
PairPos2: "'kern' Horizontal Kerning in Arabic lookup 2 subtable" afii62840 dx=-50 dy=0 dh=-50 dv=0 dx=0 dy=0 dh=0 dv=0
PairPos2: "'kern' Horizontal Kerning in Arabic lookup 2 subtable" afii62838 dx=-50 dy=0 dh=-50 dv=0 dx=0 dy=0 dh=0 dv=0
PairPos2: "'kern' Horizontal Kerning in Arabic lookup 2 subtable" afii62836 dx=-50 dy=0 dh=-50 dv=0 dx=0 dy=0 dh=0 dv=0
PairPos2: "'kern' Horizontal Kerning in Arabic lookup 2 subtable" afii62834 dx=-50 dy=0 dh=-50 dv=0 dx=0 dy=0 dh=0 dv=0
PairPos2: "'kern' Horizontal Kerning in Arabic lookup 2 subtable" afii62817 dx=-50 dy=0 dh=-50 dv=0 dx=0 dy=0 dh=0 dv=0
PairPos2: "'kern' Horizontal Kerning in Arabic lookup 2 subtable" afii57410 dx=-150 dy=0 dh=-150 dv=0 dx=0 dy=0 dh=0 dv=0
PairPos2: "'kern' Horizontal Kerning in Arabic lookup 2 subtable" afii57443 dx=-50 dy=0 dh=-50 dv=0 dx=0 dy=0 dh=0 dv=0
PairPos2: "'kern' Horizontal Kerning in Arabic lookup 2 subtable" afii57413 dx=-50 dy=0 dh=-50 dv=0 dx=0 dy=0 dh=0 dv=0
PairPos2: "'kern' Horizontal Kerning in Arabic lookup 2 subtable" afii57411 dx=-50 dy=0 dh=-50 dv=0 dx=0 dy=0 dh=0 dv=0
PairPos2: "'kern' Horizontal Kerning in Arabic lookup 2 subtable" afii62965 dx=-150 dy=0 dh=-150 dv=0 dx=0 dy=0 dh=0 dv=0
PairPos2: "'kern' Horizontal Kerning in Arabic lookup 2 subtable" afii57509 dx=-150 dy=0 dh=-150 dv=0 dx=0 dy=0 dh=0 dv=0
PairPos2: "'kern' Horizontal Kerning in Arabic lookup 2 subtable" afii52305 dx=-150 dy=0 dh=-150 dv=0 dx=0 dy=0 dh=0 dv=0
PairPos2: "'kern' Horizontal Kerning in Arabic lookup 2 subtable" afii57567 dx=-150 dy=0 dh=-150 dv=0 dx=0 dy=0 dh=0 dv=0
EndChar

